<?xml version="1.0" encoding="utf-8"?>
<svg width="1194" height="834" viewBox="-597 -417 1194 834" xmlns="http://www.w3.org/2000/svg">
  <style>
svg { background-color:#60BBCD; }

#looom { --version:2; }

#t0 {
--visible:1; --timeOffset:0.8; --speed:10; --bookmarkIndex:-1; --latched:0; --playMode:0; --masked:0; --blendMode:0; 
stroke:#E6D3D5; stroke-opacity:1; fill-opacity:0; stroke-width:27.99542; stroke-linecap:round; stroke-linejoin:round;
}
@keyframes t0 { 0% { opacity: 1; } 12.5% { opacity: 0; } }
#t0 .frame { animation:t0 0.8s calc(var(--index) * 0.1s) steps(1) infinite; }

#t1 {
--visible:1; --timeOffset:0; --speed:10; --bookmarkIndex:-1; --latched:0; --playMode:0; --masked:0; --blendMode:0; 
stroke:#F3F678; stroke-opacity:1; fill-opacity:0; stroke-width:27.99542; stroke-linecap:round; stroke-linejoin:round;
}
@keyframes t1 { 0% { opacity: 1; } 12.5% { opacity: 0; } }
#t1 .frame { animation:t1 0.8s calc(var(--index) * 0.1s) steps(1) infinite; }

#t2 {
--visible:1; --timeOffset:3.2; --speed:10; --bookmarkIndex:-1; --latched:0; --playMode:0; --masked:0; --blendMode:0; 
stroke:#FF5959; stroke-opacity:1; fill-opacity:0; stroke-width:27.99542; stroke-linecap:round; stroke-linejoin:round;
}
@keyframes t2 { 0% { opacity: 1; } 12.5% { opacity: 0; } }
#t2 .frame { animation:t2 0.8s calc(var(--index) * 0.1s) steps(1) infinite; }

#t3 {
--visible:1; --timeOffset:2; --speed:8; --bookmarkIndex:-1; --latched:0; --playMode:0; --masked:0; --blendMode:0; 
stroke:#C34949; stroke-opacity:1; fill-opacity:0; stroke-width:27.99542; stroke-linecap:round; stroke-linejoin:round;
}
@keyframes t3 { 0% { opacity: 1; } 12.5% { opacity: 0; } }
#t3 .frame { animation:t3 1s calc(var(--index) * 0.125s) steps(1) infinite; }

#t4 {
--visible:1; --timeOffset:3.2; --speed:10; --bookmarkIndex:-1; --latched:0; --playMode:0; --masked:0; --blendMode:0; 
stroke:#EC1A1A; stroke-opacity:1; fill-opacity:0; stroke-width:27.99542; stroke-linecap:round; stroke-linejoin:round;
}
@keyframes t4 { 0% { opacity: 1; } 12.5% { opacity: 0; } }
#t4 .frame { animation:t4 0.8s calc(var(--index) * 0.1s) steps(1) infinite; }

</style>
  <g id="w0" transform="translate(409.50 178.00) scale(0.98 0.98) rotate(-8.51)" class="weave">
    <g id="t0" transform="translate(-112.55 283.26) scale(0.98 0.98) rotate(-2.77)" class="thread">
      <g id="f0" transform="translate(-614.38 -556.06)" style="--index:0; opacity:1;" class="frame">
        <path d="M-140.46,179.58L-110.47,183.88L-36.71,191.98" />
      </g>
      <g id="f1" transform="translate(-614.38 -556.06)" style="--index:1; opacity:0;" class="frame">
        <path d="M-36.71,191.98L61.69,201.48L135.66,211.08" />
      </g>
      <g id="f2" transform="translate(-614.38 -556.06)" style="--index:2; opacity:0;" class="frame">
        <path d="M135.66,211.08L299.80,232.64L335.47,237.94" />
      </g>
      <g id="f3" transform="translate(-614.38 -556.06)" style="--index:3; opacity:0;" class="frame">
        <path d="M335.47,237.94L414.41,249.88L570.10,269.47" />
      </g>
      <g id="f4" transform="translate(-614.38 -556.06)" style="--index:4; opacity:0;" class="frame">
        <path d="M570.10,269.47L768.78,300.03" />
      </g>
      <g id="f5" transform="translate(-614.38 -556.06)" style="--index:5; opacity:0;" class="frame">
        <path d="M768.78,300.03L825.60,310.03" />
      </g>
      <g id="f6" transform="translate(-614.38 -556.06)" style="--index:6; opacity:0;" class="frame">
        <path d="M-170.38,174.80" />
      </g>
      <g id="f7" transform="translate(-614.38 -556.06)" style="--index:7; opacity:0;" class="frame">
        <path d="M-170.38,174.80L-140.46,179.58" />
      </g>
    </g>
    <g id="t1" transform="translate(-251.56 -77.60)" class="thread">
      <g id="f0" style="--index:0; opacity:1;" class="frame">
        <path d="M168.36,-172.46" />
        <path d="M116.37,-18.73L120.44,-21.74L129.22,-25.09L138.95,-27.77L145.75,-28.31" />
        <path d="M33.85,-131.50L36.15,-129.60L39.22,-122.42L41.80,-118.92" />
        <path d="M-317.27,-161.78" />
      </g>
      <g id="f1" style="--index:1; opacity:0;" class="frame">
        <path d="M168.36,-172.46L167.09,-177.83L168.18,-178.18" />
        <path d="M-529.21,-94.61" />
        <path d="M145.75,-28.31L149.96,-28.71L160.08,-27.20L165.43,-24.85L170.90,-19.89" />
        <path d="M41.80,-118.92L44.54,-116.44L51.62,-115.38L59.75,-117.79" />
      </g>
      <g id="f2" style="--index:2; opacity:0;" class="frame">
        <path d="M168.18,-178.18L169.42,-179.55L174.94,-181.83L183.19,-181.63" />
        <path d="M-529.21,-94.61L-516.71,-102.06L-499.57,-109.33" />
        <path d="M170.90,-19.89L181.91,-10.47L189.71,-7.23L202.80,-4.76" />
        <path d="M59.75,-117.79L69.55,-120.98" />
      </g>
      <g id="f3" style="--index:3; opacity:0;" class="frame">
        <path d="M-569.48,-278.72L-561.41,-284.24L-559.23,-284.95" />
        <path d="M183.19,-181.63L191.80,-169.99L196.49,-166.70" />
        <path d="M-499.57,-109.33L-494.71,-110.67L-485.88,-110.90L-478.28,-109.77L-471.50,-106.68" />
        <path d="M202.80,-4.76L224.65,-2.01L237.18,-2.72L247.25,-4.32" />
        <path d="M-390.03,-163.34" />
      </g>
      <g id="f4" style="--index:4; opacity:0;" class="frame">
        <path d="M-559.23,-284.95L-553.79,-286.72L-543.44,-286.73L-538.37,-285.97" />
        <path d="M196.49,-166.70L204.51,-164.98L224.46,-170.28" />
        <path d="M-471.50,-106.68L-449.01,-90.89L-443.52,-89.55" />
        <path d="M247.25,-4.32L256.17,-5.06" />
        <path d="M-390.03,-163.34L-386.66,-168.53L-379.40,-172.11" />
      </g>
      <g id="f5" style="--index:5; opacity:0;" class="frame">
        <path d="M-538.37,-285.97L-533.89,-284.78L-530.07,-282.66L-519.91,-274.41" />
        <path d="M224.46,-170.28L242.89,-175.81" />
        <path d="M-443.52,-89.55L-438.96,-88.87L-432.07,-89.91L-411.47,-96.15" />
        <path d="M-379.40,-172.11L-371.42,-173.50L-362.82,-172.21" />
      </g>
      <g id="f6" style="--index:6; opacity:0;" class="frame">
        <path d="M-519.91,-274.41L-517.33,-270.91L-509.99,-264.64L-498.49,-261.88" />
        <path d="M13.98,-126.71" />
        <path d="M-362.82,-172.21L-344.84,-164.35" />
      </g>
      <g id="f7" style="--index:7; opacity:0;" class="frame">
        <path d="M-498.49,-261.88L-491.68,-262.42L-472.17,-268.30" />
        <path d="M168.36,-172.46" />
        <path d="M118.12,-9.66L115.91,-15.69L116.37,-18.73" />
        <path d="M13.98,-126.71L18.63,-130.15L29.80,-132.11L33.85,-131.50" />
        <path d="M-344.84,-164.35L-331.04,-159.69L-317.27,-161.78" />
      </g>
    </g>
    <g id="t2" transform="translate(-369.19 -168.51)" class="thread">
      <g id="f0" style="--index:0; opacity:1;" class="frame">
        <path d="M-41.20,-4.69L-54.79,5.39L-91.97,29.86L-94.02,37.34L-105.88,64.87L-107.72,68.56L-111.21,72.70L-114.37,80.66L-120.32,80.32L-124.04,79.03" />
        <path d="M-27.96,-168.28L-21.39,-158.82L-12.51,-141.67L-5.07,-126.42L-2.30,-118.08L1.82,-111.25L3.88,-105.85L5.38,-96.56L10.68,-78.21L14.86,-56.06L17.85,-33.51L17.45,-26.76L16.97,-27.40" />
      </g>
      <g id="f1" style="--index:1; opacity:0;" class="frame">
        <path d="M-35.00,-5.50L-51.00,25.00L-81.00,74.50L-96.50,105.50L-98.50,107.00L-100.00,109.50L-104.50,113.00L-104.50,114.50L-105.50,114.50L-107.00,112.00L-109.50,110.00L-118.00,105.00" />
        <path d="M-31.07,-162.49L-22.27,-144.77L-12.07,-113.25L-10.25,-110.15L-4.66,-66.24L-4.43,-56.00L-1.92,-34.09L-0.41,-28.77L-0.50,-20.27" />
      </g>
      <g id="f2" style="--index:2; opacity:0;" class="frame">
        <path d="M-32.50,-3.50L-37.50,2.50L-61.50,42.00L-65.00,60.00L-66.00,73.00L-66.00,104.00L-67.00,106.00L-68.00,117.00L-80.00,121.00L-82.50,121.00" />
        <path d="M-35.67,-165.99L-36.48,-152.49L-34.94,-104.06L-33.53,-86.28L-37.92,-71.60L-46.20,-49.54L-48.75,-39.70L-52.89,-30.65L-54.40,-24.06" />
      </g>
      <g id="f3" style="--index:3; opacity:0;" class="frame">
        <path d="M-31.00,-3.00L-32.50,5.00L-32.50,19.00L-36.00,53.00L-37.00,90.50L-39.50,111.50L-39.50,121.00L-49.50,122.00L-54.00,123.50" />
        <path d="M-39.08,-165.91L-43.00,-142.65L-44.53,-120.19L-47.97,-96.30L-51.48,-83.76L-64.44,-64.64L-71.91,-56.08L-78.43,-50.21L-82.72,-44.02L-85.18,-42.68L-85.58,-39.90" />
      </g>
      <g id="f4" style="--index:4; opacity:0;" class="frame">
        <path d="M-33.00,-6.50L-27.50,32.00L-18.50,61.00L-13.50,81.00L-3.50,105.50L-1.50,114.50L0.50,118.50L0.00,121.00L-3.50,122.00L-6.00,124.00" />
        <path d="M-39.80,-160.91L-42.98,-154.56L-49.21,-123.13L-53.75,-107.34L-56.15,-94.64L-59.81,-88.93L-75.39,-71.32L-89.21,-58.00L-97.09,-46.66L-103.92,-38.57" />
      </g>
      <g id="f5" style="--index:5; opacity:0;" class="frame">
        <path d="M12.50,96.00L13.00,96.00L12.50,96.00" />
        <path d="M-29.00,-7.00L-29.50,5.00L-27.00,27.50L-26.00,48.00L-24.50,56.00L-22.00,60.50L-6.00,76.00L3.50,88.00L10.00,94.50L12.50,96.00" />
        <path d="M17.22,102.08L19.32,113.01" />
        <path d="M-29.87,-166.85L-32.74,-158.76L-35.54,-139.31L-46.45,-102.89L-49.01,-89.08L-51.79,-85.51L-58.71,-72.89L-81.06,-39.81L-80.66,-38.62" />
      </g>
      <g id="f6" style="--index:6; opacity:0;" class="frame">
        <path d="M-35.09,-2.47L-44.90,32.44L-48.51,51.20L-52.65,61.10L-47.43,66.29L-41.70,70.45L-25.01,79.78L-14.06,84.97L-10.41,87.56L-7.80,90.68L-4.16,91.71L-3.63,92.23L-3.60,106.29" />
        <path d="M-27.73,-162.01L-28.69,-155.34L-23.91,-97.94L-26.07,-82.94L-35.72,-51.43L-41.30,-28.42L-43.84,-22.54L-43.92,-21.99L-43.29,-22.46" />
      </g>
      <g id="f7" style="--index:7; opacity:0;" class="frame">
        <path d="M-39.07,-4.02L-54.80,15.15L-64.21,28.18L-64.88,30.31L-72.46,39.65L-77.46,51.29L-76.50,53.52L-70.19,57.13L-53.12,71.66L-49.93,72.92L-43.21,78.72L-40.57,79.96L-40.63,81.04L-42.32,82.03L-44.09,84.64L-44.21,86.80" />
        <path d="M-27.81,-161.45L-24.72,-155.34L-21.08,-145.17L-12.94,-119.04L-8.66,-109.35L-5.26,-97.52L-4.83,-57.19L-3.81,-40.60L-4.69,-34.49L-4.46,-28.22L-4.07,-27.03L-3.91,-28.14" />
      </g>
    </g>
    <g id="t3" transform="translate(-41.27 79.84)" class="thread">
      <g id="f0" style="--index:0; opacity:1;" class="frame">
        <path d="M-361.97,-254.80L-362.74,-260.27L-358.99,-317.00L-361.87,-352.42L-361.67,-365.42L-363.09,-388.28L-362.68,-405.07L-364.44,-412.22" />
      </g>
      <g id="f1" style="--index:1; opacity:0;" class="frame">
        <path d="M-360.32,-255.25L-355.17,-317.33L-352.91,-357.33L-354.36,-379.65L-353.47,-395.33L-354.85,-399.75L-354.39,-407.86L-355.49,-417.14L-356.03,-417.17" />
      </g>
      <g id="f2" style="--index:2; opacity:0;" class="frame">
        <path d="M-361.61,-251.52L-361.15,-259.63L-358.26,-272.49L-355.47,-321.68L-356.34,-325.53L-355.41,-351.51L-356.11,-367.82L-355.22,-383.50L-356.57,-388.46L-355.99,-398.73L-357.60,-408.58L-360.51,-414.71" />
      </g>
      <g id="f3" style="--index:3; opacity:0;" class="frame">
        <path d="M-359.33,-416.27L-359.67,-410.33L-357.95,-392.87L-357.92,-364.67L-356.92,-344.00L-359.56,-287.75L-361.68,-269.43L-362.48,-255.37L-361.94,-255.34" />
      </g>
      <g id="f4" style="--index:4; opacity:0;" class="frame">
        <path d="M-357.65,-417.26" />
        <path d="M-358.73,-417.32L-357.48,-410.74L-356.42,-362.41L-357.32,-336.97L-357.42,-296.84L-359.44,-261.16L-360.10,-259.03" />
      </g>
      <g id="f5" style="--index:5; opacity:0;" class="frame">
        <path d="M-364.32,-414.38L-364.72,-407.36L-362.24,-364.91L-361.29,-324.18L-359.66,-305.11L-361.29,-276.45L-361.79,-258.04L-361.25,-258.01" />
      </g>
      <g id="f6" style="--index:6; opacity:0;" class="frame">
        <path d="M-362.16,-414.26L-361.72,-402.85L-363.01,-380.14L-362.94,-362.24L-360.83,-313.31L-361.00,-291.08L-359.93,-281.26L-360.80,-256.36" />
      </g>
      <g id="f7" style="--index:7; opacity:0;" class="frame">
        <path d="M-363.39,-411.62L-362.02,-378.46L-359.94,-357.73L-357.99,-325.08L-357.84,-299.04L-360.86,-255.28" />
      </g>
    </g>
    <g id="t4" transform="translate(-369.19 -168.51)" class="thread">
      <g id="f0" style="--index:0; opacity:1;" class="frame">
        <path d="M-33.00,-6.50L-27.50,32.00L-18.50,61.00L-13.50,81.00L-3.50,105.50L-1.50,114.50L0.50,118.50L0.00,121.00L-3.50,122.00L-6.00,124.00" />
        <path d="M-39.80,-160.91L-42.98,-154.56L-49.21,-123.13L-53.75,-107.34L-56.15,-94.64L-59.81,-88.93L-75.39,-71.32L-89.21,-58.00L-97.09,-46.66L-103.92,-38.57" />
      </g>
      <g id="f1" style="--index:1; opacity:0;" class="frame">
        <path d="M12.50,96.00L13.00,96.00L12.50,96.00" />
        <path d="M-29.00,-7.00L-29.50,5.00L-27.00,27.50L-26.00,48.00L-24.50,56.00L-22.00,60.50L-6.00,76.00L3.50,88.00L10.00,94.50L12.50,96.00" />
        <path d="M17.22,102.08L19.32,113.01" />
        <path d="M-29.87,-166.85L-32.74,-158.76L-35.54,-139.31L-46.45,-102.89L-49.01,-89.08L-51.79,-85.51L-58.71,-72.89L-81.06,-39.81L-80.66,-38.62" />
      </g>
      <g id="f2" style="--index:2; opacity:0;" class="frame">
        <path d="M-35.09,-2.47L-44.90,32.44L-48.51,51.20L-52.65,61.10L-47.43,66.29L-41.70,70.45L-25.01,79.78L-14.06,84.97L-10.41,87.56L-7.80,90.68L-4.16,91.71L-3.63,92.23L-3.60,106.29" />
        <path d="M-27.73,-162.01L-28.69,-155.34L-23.91,-97.94L-26.07,-82.94L-35.72,-51.43L-41.30,-28.42L-43.84,-22.54L-43.92,-21.99L-43.29,-22.46" />
      </g>
      <g id="f3" style="--index:3; opacity:0;" class="frame">
        <path d="M-39.07,-4.02L-54.80,15.15L-64.21,28.18L-64.88,30.31L-72.46,39.65L-77.46,51.29L-76.50,53.52L-70.19,57.13L-53.12,71.66L-49.93,72.92L-43.21,78.72L-40.57,79.96L-40.63,81.04L-42.32,82.03L-44.09,84.64L-44.21,86.80" />
        <path d="M-27.81,-161.45L-24.72,-155.34L-21.08,-145.17L-12.94,-119.04L-8.66,-109.35L-5.26,-97.52L-4.83,-57.19L-3.81,-40.60L-4.69,-34.49L-4.46,-28.22L-4.07,-27.03L-3.91,-28.14" />
      </g>
      <g id="f4" style="--index:4; opacity:0;" class="frame">
        <path d="M-41.20,-4.69L-54.79,5.39L-91.97,29.86L-94.02,37.34L-105.88,64.87L-107.72,68.56L-111.21,72.70L-114.37,80.66L-120.32,80.32L-124.04,79.03" />
        <path d="M-27.96,-168.28L-21.39,-158.82L-12.51,-141.67L-5.07,-126.42L-2.30,-118.08L1.82,-111.25L3.88,-105.85L5.38,-96.56L10.68,-78.21L14.86,-56.06L17.85,-33.51L17.45,-26.76L16.97,-27.40" />
      </g>
      <g id="f5" style="--index:5; opacity:0;" class="frame">
        <path d="M-35.00,-5.50L-51.00,25.00L-81.00,74.50L-96.50,105.50L-98.50,107.00L-100.00,109.50L-104.50,113.00L-104.50,114.50L-105.50,114.50L-107.00,112.00L-109.50,110.00L-118.00,105.00" />
        <path d="M-31.07,-162.49L-22.27,-144.77L-12.07,-113.25L-10.25,-110.15L-4.66,-66.24L-4.43,-56.00L-1.92,-34.09L-0.41,-28.77L-0.50,-20.27" />
      </g>
      <g id="f6" style="--index:6; opacity:0;" class="frame">
        <path d="M-32.50,-3.50L-37.50,2.50L-61.50,42.00L-65.00,60.00L-66.00,73.00L-66.00,104.00L-67.00,106.00L-68.00,117.00L-80.00,121.00L-82.50,121.00" />
        <path d="M-35.67,-165.99L-36.48,-152.49L-34.94,-104.06L-33.53,-86.28L-37.92,-71.60L-46.20,-49.54L-48.75,-39.70L-52.89,-30.65L-54.40,-24.06" />
      </g>
      <g id="f7" style="--index:7; opacity:0;" class="frame">
        <path d="M-31.00,-3.00L-32.50,5.00L-32.50,19.00L-36.00,53.00L-37.00,90.50L-39.50,111.50L-39.50,121.00L-49.50,122.00L-54.00,123.50" />
        <path d="M-39.08,-165.91L-43.00,-142.65L-44.53,-120.19L-47.97,-96.30L-51.48,-83.76L-64.44,-64.64L-71.91,-56.08L-78.43,-50.21L-82.72,-44.02L-85.18,-42.68L-85.58,-39.90" />
      </g>
    </g>
  </g>
</svg>