<?xml version="1.0" encoding="utf-8"?>
<svg width="1194" height="834" viewBox="-597 -417 1194 834" xmlns="http://www.w3.org/2000/svg">
  <style>
svg { background-color:#FFD572; }

#looom { --version:2; }

#t0 {
--visible:1; --timeOffset:11.99999; --speed:12; --bookmarkIndex:-1; --latched:0; --playMode:0; --masked:0; --blendMode:0; 
stroke:#5E4ACC; stroke-opacity:1; fill-opacity:0; stroke-width:10; stroke-linecap:round; stroke-linejoin:round;
}
@keyframes t0 { 0% { opacity: 1; } 4.166667% { opacity: 0; } }
#t0 .frame { animation:t0 2s calc(var(--index) * 0.08333334s) steps(1) infinite; }

#t1 {
--visible:1; --timeOffset:13.99999; --speed:12; --bookmarkIndex:-1; --latched:0; --playMode:0; --masked:0; --blendMode:0; 
stroke:#CC4A5B; stroke-opacity:1; fill-opacity:0; stroke-width:10; stroke-linecap:round; stroke-linejoin:round;
}
@keyframes t1 { 0% { opacity: 1; } 4.166667% { opacity: 0; } }
#t1 .frame { animation:t1 2s calc(var(--index) * 0.08333334s) steps(1) infinite; }

</style>
  <g id="w0" transform="translate(320.75 -0.25) scale(1.26 1.26) rotate(-10.74)" class="weave">
    <g id="t0" transform="translate(-156.21 29.44)" class="thread">
      <g id="f0" style="--index:0; opacity:1;" class="frame">
        <path d="M-146.55,-143.42" />
        <path d="M-147.50,-143.96L-136.76,-130.50L-129.35,-116.29L-116.85,-101.06" />
      </g>
      <g id="f1" style="--index:1; opacity:0;" class="frame">
        <path d="M-114.54,-96.70L-112.70,-93.51L-111.21,-86.85L-103.73,-69.44L-101.36,-61.89L-98.03,-55.57L-86.54,-26.40L-83.42,-20.83L-78.12,-3.15L-75.20,1.68L-73.50,7.32" />
        <path d="M-148.25,-141.99L-135.61,-123.90L-126.09,-113.16L-116.10,-97.72" />
      </g>
      <g id="f2" style="--index:2; opacity:0;" class="frame">
        <path d="M-148.25,-141.99L-140.91,-132.74L-138.19,-130.43L-115.69,-96.23" />
        <path d="M-114.33,-92.42L-110.39,-85.62L-101.56,-66.18L-89.80,-34.83L-76.96,3.44L-74.11,8.61L-72.00,15.75L-65.28,28.06L-55.22,50.22L-48.83,69.53" />
      </g>
      <g id="f3" style="--index:3; opacity:0;" class="frame">
        <path d="M-147.77,-144.37L-145.39,-138.59L-135.06,-123.09L-131.32,-115.27L-125.21,-105.20L-119.91,-99.90L-115.01,-92.56" />
        <path d="M-111.14,-90.72L-110.80,-87.12L-102.78,-67.13L-93.27,-36.94L-75.33,2.36L-70.17,18.95L-58.55,49.20L-55.16,60.49L-54.61,64.84L-51.28,69.40" />
        <path d="M-51.15,72.25L-57.81,77.28L-66.45,81.56L-67.87,81.63L-71.61,84.42" />
      </g>
      <g id="f4" style="--index:4; opacity:0;" class="frame">
        <path d="M-147.50,-142.19L-137.98,-131.45L-132.34,-122.54L-125.95,-115.61L-113.58,-97.93" />
        <path d="M-111.34,-91.47L-92.93,-35.11L-86.75,-20.08L-81.99,-13.82L-79.48,-3.42L-73.91,9.36L-67.72,27.92L-62.56,40.98L-57.67,50.09L-55.36,57.97L-55.56,60.76L-54.14,66.00L-52.51,68.44" />
        <path d="M-72.56,83.87L-67.33,82.44L-55.57,74.90L-50.67,73.41L-48.09,71.10" />
        <path d="M-123.66,-35.25L-115.64,-17.03L-112.25,-5.74L-94.38,37.43L-86.50,59.87L-84.12,63.88L-83.44,69.32L-81.60,74.28L-79.23,80.06L-75.56,84.69" />
      </g>
      <g id="f5" style="--index:5; opacity:0;" class="frame">
        <path d="M-147.63,-141.51L-136.49,-130.09L-134.99,-126.96L-125.75,-114.86L-118.82,-107.11L-111.68,-96.84L-110.12,-95.82" />
        <path d="M-110.59,-91.67L-95.99,-49.86L-91.44,-33.75L-85.80,-17.77L-51.96,69.26" />
        <path d="M-76.24,82.78L-64.00,78.16L-56.59,72.93L-51.08,73.68L-49.45,72.59" />
        <path d="M-73.86,81.49L-73.86,81.49" />
        <path d="M-144.39,-81.82L-140.85,-76.52L-117.95,-19.61L-105.72,7.59L-89.41,40.90L-81.19,61.64L-79.29,69.80L-73.86,81.49" />
      </g>
      <g id="f6" style="--index:6; opacity:0;" class="frame">
        <path d="M-145.73,-140.43L-146.48,-136.69L-147.51,-105.07L-148.80,-95.08L-148.26,-87.19L-147.65,-86.72" />
        <path d="M-146.14,-140.15L-138.32,-131.52L-126.23,-110.71L-114.60,-96.36L-112.29,-92.01" />
        <path d="M-109.78,-92.22L-108.90,-87.80L-105.09,-78.55L-91.03,-34.02L-75.54,1.61L-63.92,33.63L-53.59,52.67L-50.80,59.95L-49.24,66.27L-49.11,70.89L-48.50,71.37" />
        <path d="M-146.42,-82.23L-140.17,-72.85L-134.26,-60.00L-128.49,-42.93L-122.57,-30.08L-118.29,-17.91L-102.94,16.63L-94.65,31.72L-91.45,40.49L-86.43,50.69L-82.89,61.30L-79.63,67.96L-78.48,72.79L-73.92,81.83L-69.51,82.72L-63.45,78.98L-56.99,76.74L-53.39,76.40L-48.50,71.37" />
      </g>
      <g id="f7" style="--index:7; opacity:0;" class="frame">
        <path d="M-142.82,-105.55L-136.56,-105.00L-132.89,-107.45" />
        <path d="M-144.64,-140.56L-143.56,-137.16L-136.15,-128.25L-128.74,-112.28L-124.94,-106.56L-119.02,-100.78L-117.19,-97.59L-108.90,-87.80" />
        <path d="M-145.32,-137.16L-145.05,-127.92L-146.35,-114.39L-145.81,-99.43L-146.43,-78.70" />
        <path d="M-110.39,-89.16L-97.69,-50.20L-95.24,-44.76L-93.00,-34.77L-84.03,-14.23L-73.70,13.64L-62.49,40.64L-50.47,67.08" />
        <path d="M-143.77,-76.04L-127.06,-44.77L-121.89,-29.95L-117.55,-21.65L-113.33,-9.14L-96.55,27.10L-93.42,36.21L-88.67,46.00L-81.87,63.27L-74.47,77.48L-72.36,84.62" />
        <path d="M-73.45,84.75L-72.09,81.49L-65.77,79.93L-59.71,76.19L-56.65,73.27L-50.60,71.30" />
        <path d="M-138.46,-111.39L-138.40,-109.97L-138.46,-111.39" />
        <path d="M-138.68,-112.43L-138.46,-111.39L-138.68,-112.43" />
        <path d="M-140.84,-120.71L-140.84,-120.71" />
        <path d="M-140.84,-120.71L-140.84,-120.71" />
        <path d="M-135.74,-114.39L-137.31,-118.94L-138.53,-119.89L-139.21,-116.49L-138.68,-112.43L-140.84,-120.71L-139.62,-110.92L-140.23,-111.39L-141.45,-114.11L-142.13,-119.55L-143.22,-121.19" />
      </g>
      <g id="f8" style="--index:8; opacity:0;" class="frame">
        <path d="M-142.14,-138.13L-140.78,-131.20L-137.35,-122.28L-132.48,-104.74L-130.29,-89.60L-128.59,-87.34" />
        <path d="M-141.62,-139.40L-136.63,-131.94L-127.97,-121.94L-116.58,-109.85L-110.84,-105.32L-107.78,-100.83L-105.52,-100.17" />
        <path d="M-125.33,-109.93L-123.23,-110.47L-120.87,-112.83L-125.33,-109.93" />
        <path d="M-128.18,-110.01L-125.33,-109.93L-128.94,-108.27L-128.18,-110.01" />
        <path d="M-129.41,-110.09L-128.18,-110.01L-125.73,-111.84L-123.27,-112.50L-123.84,-110.90L-127.62,-108.08L-130.68,-107.85L-130.82,-109.21L-129.41,-110.09" />
        <path d="M-130.35,-110.15L-128.98,-110.29" />
        <path d="M-125.73,-81.53L-117.65,-62.85L-104.58,-36.72L-98.77,-18.70L-96.37,-14.31L-80.41,26.73L-64.90,61.64L-61.34,71.92" />
        <path d="M-58.90,83.05L-58.90,83.05" />
        <path d="M-103.35,-98.85L-92.84,-71.39L-83.64,-44.13L-70.07,-9.84L-58.61,15.73L-51.32,28.23L-44.14,46.11L-38.74,62.38L-38.00,68.89L-38.90,72.80L-56.26,81.07L-58.90,83.05" />
        <path d="M-59.92,69.09L-60.07,72.44L-57.57,76.17" />
      </g>
      <g id="f9" style="--index:9; opacity:0;" class="frame">
        <path d="M-146.33,-142.08L-138.61,-137.26L-128.92,-129.80L-120.83,-125.27L-115.79,-120.51" />
        <path d="M-144.30,-144.48L-135.26,-144.18L-119.71,-146.98L-112.22,-147.59" />
        <path d="M-105.96,-146.68L-85.66,-142.74L-51.70,-137.84L-5.50,-131.50L16.12,-129.73L18.56,-128.03" />
        <path d="M-112.73,-120.74L-99.35,-120.15L-90.64,-117.55L-60.64,-113.21L-54.15,-111.60L-27.91,-109.16L37.32,-99.41" />
        <path d="M12.96,-128.84L20.12,-129.49L38.16,-126.21L38.48,-119.10L36.38,-102.23L34.02,-102.24" />
        <path d="M-125.33,-140.73L-122.64,-138.32L-121.47,-134.79L-121.67,-131.11L-122.89,-129.61L-123.88,-129.75" />
        <path d="M-119.77,-141.94L-118.69,-137.75L-119.73,-132.85L-121.24,-131.72" />
        <path d="M-131.83,-137.63L-132.82,-137.77L-131.83,-137.63" />
        <path d="M-131.83,-137.63L-131.83,-137.63" />
        <path d="M-127.64,-136.35L-131.83,-137.63L-125.24,-136.68L-125.33,-136.02L-127.41,-135.64L-131.41,-135.89L-131.88,-134.94L-131.22,-134.85" />
      </g>
      <g id="f10" style="--index:10; opacity:0;" class="frame">
        <path d="M-123.94,-170.86L-127.06,-165.59L-139.67,-150.57L-148.92,-142.48L-146.61,-142.14L-135.20,-144.20L-120.15,-148.09L-104.74,-149.90" />
        <path d="M-121.63,-168.17L-112.52,-175.28L-95.73,-184.30L-62.74,-205.13L-34.94,-225.03L-28.00,-231.10L-17.20,-238.30L-2.00,-250.24L11.73,-259.04" />
        <path d="M11.50,-259.75L17.66,-251.11L21.37,-244.17L29.18,-235.30" />
        <path d="M-103.70,-150.09L-103.70,-150.09" />
        <path d="M28.66,-234.03L15.22,-227.21L5.12,-220.25L-25.27,-203.42L-34.42,-195.99L-46.55,-188.98L-65.62,-173.55L-92.05,-156.15L-103.70,-150.09" />
        <path d="M-130.08,-149.55L-127.93,-147.86L-127.51,-146.12L-130.08,-149.55" />
        <path d="M-129.24,-152.77L-125.10,-148.80L-126.37,-149.32L-129.24,-152.77" />
        <path d="M-129.24,-152.77L-129.24,-152.77" />
        <path d="M-130.52,-153.29L-129.24,-152.77L-131.27,-155.08L-130.52,-153.29" />
        <path d="M-126.57,-148.00L-126.57,-148.00" />
        <path d="M-133.63,-150.37L-130.08,-149.55L-132.26,-152.87L-132.12,-153.86L-130.52,-153.29L-126.57,-148.00" />
      </g>
      <g id="f11" style="--index:11; opacity:0;" class="frame">
        <path d="M-147.50,-148.00L-147.50,-147.00L-147.50,-148.00" />
        <path d="M-131.00,-188.50L-137.50,-172.50L-142.50,-163.50L-146.00,-154.50L-147.50,-148.00L-135.50,-151.50L-119.00,-158.50" />
        <path d="M-108.00,-167.00L-113.00,-163.50L-123.00,-158.50" />
        <path d="M-127.25,-191.04L-125.38,-195.84L-117.68,-202.49L-108.09,-209.01L-97.52,-218.50L-91.15,-222.59L-85.04,-228.22L-71.16,-236.33L-66.27,-240.91L-53.09,-249.82L-46.60,-255.43L-23.86,-270.48L-15.35,-277.84L-5.41,-283.95" />
        <path d="M-99.15,-175.32" />
        <path d="M-105.04,-167.39L-102.53,-170.63L-95.72,-175.45L-85.51,-185.34L-57.01,-206.43L-51.22,-212.85L-38.09,-221.01L-31.64,-226.23L-24.51,-230.27L-8.32,-243.90L-0.11,-252.42L10.61,-258.86L13.07,-261.34" />
        <path d="M-1.36,-282.14L8.87,-266.20L15.13,-263.47" />
        <path d="M-130.94,-158.64L-130.94,-158.64" />
        <path d="M-131.58,-159.32L-130.94,-158.64L-131.58,-159.32" />
        <path d="M-131.80,-159.84L-131.58,-159.32L-131.80,-159.84" />
        <path d="M-131.80,-159.84L-131.80,-159.84" />
        <path d="M-133.76,-164.17L-134.76,-166.14L-134.70,-166.89L-133.95,-166.84L-131.06,-164.73L-127.94,-160.70L-129.80,-161.22L-133.76,-164.17" />
        <path d="M-133.76,-164.17L-133.76,-164.17" />
        <path d="M-132.39,-160.39L-133.76,-164.17L-136.89,-168.19L-136.80,-169.32L-134.97,-168.43L-132.17,-165.19L-131.58,-162.87L-132.39,-160.39" />
        <path d="M-135.56,-158.91L-140.25,-158.56L-139.35,-160.39L-136.19,-162.06L-135.06,-161.98L-135.56,-158.91" />
        <path d="M-138.49,-161.85L-134.28,-162.30L-132.39,-160.39L-135.56,-158.91L-137.42,-155.70L-138.14,-156.13" />
      </g>
      <g id="f12" style="--index:12; opacity:0;" class="frame">
        <path d="M-98.14,-121.31L-111.50,-104.82L-113.63,-101.55L-114.64,-98.21L-95.82,-101.02L-82.27,-104.59L-78.44,-105.07L-76.60,-104.18" />
        <path d="M-102.28,-106.85L-100.00,-106.26L-99.06,-103.53L-100.54,-104.02L-102.28,-106.85" />
        <path d="M-104.10,-107.32L-102.28,-106.85L-102.45,-109.10L-99.78,-109.28L-97.44,-104.93" />
        <path d="M-94.79,-125.63L-98.20,-120.56" />
        <path d="M-91.09,-129.54L-75.64,-138.29L-56.32,-153.21L-29.31,-169.47L-19.72,-175.99L-0.35,-191.67L25.55,-208.40" />
        <path d="M30.22,-209.96L32.97,-205.96L41.78,-196.58" />
        <path d="M-74.84,-107.47L-65.82,-111.37L-44.13,-127.64L-32.60,-134.77L-23.76,-141.35L9.32,-162.86L33.09,-176.33L49.43,-186.91" />
        <path d="M40.92,-195.13L45.26,-192.15L46.60,-189.77" />
      </g>
      <g id="f13" style="--index:13; opacity:0;" class="frame">
        <path d="M-66.29,9.75L-66.29,9.75" />
        <path d="M-66.29,9.75L-66.29,9.75" />
        <path d="M-54.88,-6.13L-66.29,9.75L-55.25,9.42L-38.27,5.72" />
        <path d="M-50.63,-12.28L-57.71,-3.68" />
        <path d="M-54.64,1.11L-54.99,0.70L-54.64,1.11" />
        <path d="M-54.29,1.51L-54.64,1.11L-54.29,1.51" />
        <path d="M-53.97,2.29L-54.29,1.51L-53.97,2.29" />
        <path d="M-53.97,2.29L-53.97,2.29" />
        <path d="M-57.13,3.96L-54.94,-0.06L-53.48,0.81L-51.87,4.73L-52.27,5.08L-53.27,3.10" />
        <path d="M-47.20,-12.41L-44.28,-15.99L-35.24,-20.27L-26.89,-25.36L-14.00,-35.43L11.33,-49.54L24.51,-58.46L44.95,-67.98L52.14,-72.78L54.63,-75.63" />
        <path d="M52.17,-73.15L65.75,-82.42" />
        <path d="M65.21,-80.18L69.23,-77.99L71.71,-75.53L77.18,-67.16" />
        <path d="M-34.76,4.45L-11.07,-7.88L38.12,-41.89L63.40,-55.25L80.60,-67.29" />
      </g>
      <g id="f14" style="--index:14; opacity:0;" class="frame">
        <path d="M-33.80,53.89L-35.61,57.94L-43.16,67.64L-45.81,72.77L-34.69,71.30L-17.95,71.00" />
        <path d="M-28.53,49.34L-34.40,56.89" />
        <path d="M-32.55,68.04L-32.55,68.04" />
        <path d="M-32.55,68.04L-32.55,68.04" />
        <path d="M-32.49,67.28L-32.55,68.04L-32.49,67.28" />
        <path d="M-32.72,66.74L-32.49,67.28L-32.72,66.74" />
        <path d="M-35.73,64.77L-32.72,66.74L-32.95,63.07L-31.81,63.15L-29.82,67.10L-30.93,66.64" />
        <path d="M-27.34,48.67L-16.06,44.93L-7.28,39.11L3.74,33.84L13.28,28.08L23.83,23.91L49.03,11.69L75.15,-2.74L85.55,-9.96L99.70,-16.52L106.26,-17.95" />
        <path d="M106.07,-20.62L116.37,-10.75L118.44,-7.94L118.95,-4.49" />
        <path d="M117.16,-0.82L112.49,0.74L80.89,17.43L65.20,24.26L41.90,36.62L24.32,43.31L4.36,56.67L-2.75,60.33L-10.39,66.23L-19.79,70.11" />
      </g>
      <g id="f15" style="--index:15; opacity:0;" class="frame">
        <path d="M-76.56,87.52L-75.90,97.72L-76.85,111.88" />
        <path d="M-57.93,106.18L-57.93,106.18" />
        <path d="M-73.29,84.15L-62.83,96.43L-57.88,105.84" />
        <path d="M-68.10,96.89L-65.75,97.41L-64.58,96.53L-68.10,96.89" />
        <path d="M-71.08,95.61L-68.10,96.89L-73.12,97.76" />
        <path d="M-55.28,109.69L-48.77,122.81L-27.56,160.30L-24.42,167.71L-14.08,185.90L-8.25,198.92L3.02,220.38" />
        <path d="M-76.94,115.00L-77.13,118.81L-67.78,131.63L-58.14,147.28L-51.03,163.62L-44.66,175.32L-35.39,198.58L-29.51,208.82L-23.69,216.96L-20.99,222.57L-17.90,232.77L-16.43,234.72" />
        <path d="M-12.04,233.24L-9.85,230.07L-5.95,227.13L0.68,224.58L2.34,222.72" />
        <path d="M-67.26,100.68L-66.48,100.09L-67.26,100.68" />
        <path d="M-67.26,100.68L-67.26,100.68" />
        <path d="M-67.79,101.19L-67.26,100.68L-67.79,101.19" />
        <path d="M-70.82,103.67L-70.82,103.67" />
        <path d="M-70.82,103.67L-70.82,103.67" />
        <path d="M-71.50,101.13L-67.79,101.19L-70.82,103.67L-67.06,101.75" />
      </g>
      <g id="f16" style="--index:16; opacity:0;" class="frame">
        <path d="M-152.22,-38.51L-148.51,-40.08L-130.40,-39.97" />
        <path d="M-127.61,-37.48L-130.83,-32.01L-142.91,-20.47" />
        <path d="M-149.69,-16.89L-152.81,-14.54L-168.12,-7.29L-202.79,11.18L-220.73,19.81L-244.34,29.03L-252.63,33.44L-255.51,34.08" />
        <path d="M-156.85,-37.77L-214.31,-13.44L-254.40,1.47L-262.25,5.25L-266.20,6.08" />
        <path d="M-263.94,12.33L-266.23,16.19L-266.42,19.99L-263.43,25.99L-258.10,30.23" />
        <path d="M-136.93,-33.22L-136.73,-32.14L-136.93,-33.22" />
        <path d="M-138.68,-35.67L-139.62,-36.39L-139.37,-33.21L-138.68,-35.67" />
        <path d="M-134.10,-35.96L-136.94,-38.10L-136.93,-33.22L-138.68,-35.67L-138.11,-37.22" />
        <path d="M-144.76,-17.24L-149.83,-15.86L-153.98,-13.66" />
        <path d="M-129.33,-40.16" />
      </g>
      <g id="f17" style="--index:17; opacity:0;" class="frame">
        <path d="M-165.45,-90.56L-155.44,-89.85L-150.56,-87.42" />
        <path d="M-150.65,-84.30L-163.41,-72.85" />
        <path d="M-172.23,-89.43L-166.18,-90.32" />
        <path d="M-167.56,-70.65L-192.78,-62.35L-203.95,-59.74L-277.36,-35.92" />
        <path d="M-175.79,-88.88L-179.26,-89.02L-188.14,-85.39L-204.14,-80.68L-267.32,-65.18L-279.56,-59.93L-283.46,-59.44L-283.95,-58.46L-282.38,-54.75L-281.73,-49.43L-283.03,-37.77L-282.29,-35.57" />
        <path d="M-165.39,-83.58L-165.39,-83.58" />
        <path d="M-165.39,-83.58L-165.39,-83.58" />
        <path d="M-165.09,-83.19L-165.09,-83.19" />
        <path d="M-163.87,-79.54L-163.87,-79.54" />
        <path d="M-163.87,-79.54L-163.87,-79.54" />
        <path d="M-164.31,-81.34L-163.87,-79.54L-164.31,-81.34" />
        <path d="M-164.29,-82.27L-165.09,-83.19L-164.31,-81.34L-164.29,-82.27" />
        <path d="M-161.39,-84.76L-161.67,-80.27L-163.63,-81.24L-164.90,-84.56" />
      </g>
      <g id="f18" style="--index:18; opacity:0;" class="frame">
        <path d="M-166.60,-156.27L-152.26,-148.45" />
        <path d="M-153.68,-143.08L-157.63,-142.81L-171.16,-137.03" />
        <path d="M-174.08,-159.54L-169.86,-159.40L-166.39,-157.29" />
        <path d="M-277.14,-172.75L-255.52,-169.48L-224.38,-166.07L-191.07,-159.40L-179.17,-158.79L-176.86,-157.97L-175.44,-156.27" />
        <path d="M-283.80,-151.81L-256.07,-150.85L-243.08,-148.61L-237.17,-146.36L-224.93,-143.91L-209.23,-142.89L-186.52,-139.75L-176.73,-137.44L-173.13,-137.78" />
        <path d="M-277.88,-170.78L-281.01,-169.28L-283.87,-155.01" />
        <path d="M-163.13,-150.63L-163.13,-150.63" />
        <path d="M-163.20,-150.29L-163.20,-150.29" />
        <path d="M-163.74,-147.61L-163.20,-150.29L-163.74,-147.61" />
        <path d="M-163.76,-147.49L-163.76,-147.49" />
        <path d="M-164.02,-146.21L-163.76,-147.49L-164.02,-146.21" />
        <path d="M-164.02,-146.21L-164.63,-146.68L-164.42,-151.24" />
      </g>
      <g id="f19" style="--index:19; opacity:0;" class="frame">
        <path d="M-168.02,-163.27L-163.27,-158.79L-155.86,-149.88L-152.94,-148.59" />
        <path d="M-152.05,-161.84L-151.30,-149.67" />
        <path d="M-151.84,-164.63L-152.59,-160.89L-152.05,-156.54" />
        <path d="M-150.82,-169.73L-151.23,-165.92L-150.49,-157.29" />
        <path d="M-215.11,-270.63L-215.79,-270.77L-215.11,-270.63" />
        <path d="M-215.11,-270.63L-215.11,-270.63" />
        <path d="M-168.43,-166.54L-170.61,-169.80L-172.30,-178.98L-183.24,-200.26L-187.12,-210.93L-193.71,-222.15L-197.85,-231.47L-199.82,-233.98L-202.13,-241.87L-204.78,-244.52L-205.94,-247.58L-206.75,-255.88L-208.66,-258.73L-211.44,-260.70L-215.11,-270.63L-211.37,-271.65L-201.58,-276.41L-196.28,-279.94L-194.85,-280.01L-193.97,-279.12" />
        <path d="M-189.62,-279.67L-185.54,-273.55L-180.17,-261.51L-177.05,-248.87L-174.06,-240.84L-172.09,-227.72L-168.35,-216.37L-164.07,-205.97L-155.98,-191.62L-149.67,-177.27L-148.78,-172.85" />
        <path d="M-159.60,-159.46L-155.18,-162.11L-156.60,-158.51" />
      </g>
      <g id="f20" style="--index:20; opacity:0;" class="frame">
        <path d="M-156.19,-285.65L-158.32,-282.59L-163.88,-279.02L-165.07,-275.49L-159.80,-267.65L-158.30,-264.07L-154.50,-248.36L-148.36,-230.30L-143.42,-220.16L-136.58,-197.61L-132.39,-189.26L-130.18,-188.27L-126.12,-188.36L-125.11,-204.71L-132.06,-224.24L-138.90,-249.14L-142.43,-255.04L-146.23,-266.03L-153.37,-279.52L-154.45,-283.72" />
      </g>
      <g id="f21" style="--index:21; opacity:0;" class="frame">
        <path d="M-105.35,-271.57L-104.50,-268.08L-104.93,-265.11L-102.72,-261.76L-103.15,-258.79L-102.35,-257.33L-96.70,-256.85L-98.16,-253.70L-94.77,-249.16L-94.92,-248.18L-93.13,-246.57L-93.32,-245.25" />
        <path d="M-93.32,-245.25L-93.94,-240.96" />
      </g>
      <g id="f22" style="--index:22; opacity:0;" class="frame" />
      <g id="f23" style="--index:23; opacity:0;" class="frame">
        <path d="M-149.47,-142.94" />
      </g>
    </g>
    <g id="t1" transform="translate(-156.21 29.44)" class="thread">
      <g id="f0" style="--index:0; opacity:1;" class="frame">
        <path d="M-98.14,-121.31L-111.50,-104.82L-113.63,-101.55L-114.64,-98.21L-95.82,-101.02L-82.27,-104.59L-78.44,-105.07L-76.60,-104.18" />
        <path d="M-102.28,-106.85L-100.00,-106.26L-99.06,-103.53L-100.54,-104.02L-102.28,-106.85" />
        <path d="M-104.10,-107.32L-102.28,-106.85L-102.45,-109.10L-99.78,-109.28L-97.44,-104.93" />
        <path d="M-94.79,-125.63L-98.20,-120.56" />
        <path d="M-91.09,-129.54L-75.64,-138.29L-56.32,-153.21L-29.31,-169.47L-19.72,-175.99L-0.35,-191.67L25.55,-208.40" />
        <path d="M30.22,-209.96L32.97,-205.96L41.78,-196.58" />
        <path d="M-74.84,-107.47L-65.82,-111.37L-44.13,-127.64L-32.60,-134.77L-23.76,-141.35L9.32,-162.86L33.09,-176.33L49.43,-186.91" />
        <path d="M40.92,-195.13L45.26,-192.15L46.60,-189.77" />
      </g>
      <g id="f1" style="--index:1; opacity:0;" class="frame">
        <path d="M-66.29,9.75L-66.29,9.75" />
        <path d="M-66.29,9.75L-66.29,9.75" />
        <path d="M-54.88,-6.13L-66.29,9.75L-55.25,9.42L-38.27,5.72" />
        <path d="M-50.63,-12.28L-57.71,-3.68" />
        <path d="M-54.64,1.11L-54.99,0.70L-54.64,1.11" />
        <path d="M-54.29,1.51L-54.64,1.11L-54.29,1.51" />
        <path d="M-53.97,2.29L-54.29,1.51L-53.97,2.29" />
        <path d="M-53.97,2.29L-53.97,2.29" />
        <path d="M-57.13,3.96L-54.94,-0.06L-53.48,0.81L-51.87,4.73L-52.27,5.08L-53.27,3.10" />
        <path d="M-47.20,-12.41L-44.28,-15.99L-35.24,-20.27L-26.89,-25.36L-14.00,-35.43L11.33,-49.54L24.51,-58.46L44.95,-67.98L52.14,-72.78L54.63,-75.63" />
        <path d="M52.17,-73.15L65.75,-82.42" />
        <path d="M65.21,-80.18L69.23,-77.99L71.71,-75.53L77.18,-67.16" />
        <path d="M-34.76,4.45L-11.07,-7.88L38.12,-41.89L63.40,-55.25L80.60,-67.29" />
      </g>
      <g id="f2" style="--index:2; opacity:0;" class="frame">
        <path d="M-33.80,53.89L-35.61,57.94L-43.16,67.64L-45.81,72.77L-34.69,71.30L-17.95,71.00" />
        <path d="M-28.53,49.34L-34.40,56.89" />
        <path d="M-32.55,68.04L-32.55,68.04" />
        <path d="M-32.55,68.04L-32.55,68.04" />
        <path d="M-32.49,67.28L-32.55,68.04L-32.49,67.28" />
        <path d="M-32.72,66.74L-32.49,67.28L-32.72,66.74" />
        <path d="M-35.73,64.77L-32.72,66.74L-32.95,63.07L-31.81,63.15L-29.82,67.10L-30.93,66.64" />
        <path d="M-27.34,48.67L-16.06,44.93L-7.28,39.11L3.74,33.84L13.28,28.08L23.83,23.91L49.03,11.69L75.15,-2.74L85.55,-9.96L99.70,-16.52L106.26,-17.95" />
        <path d="M106.07,-20.62L116.37,-10.75L118.44,-7.94L118.95,-4.49" />
        <path d="M117.16,-0.82L112.49,0.74L80.89,17.43L65.20,24.26L41.90,36.62L24.32,43.31L4.36,56.67L-2.75,60.33L-10.39,66.23L-19.79,70.11" />
      </g>
      <g id="f3" style="--index:3; opacity:0;" class="frame">
        <path d="M-76.56,87.52L-75.90,97.72L-76.85,111.88" />
        <path d="M-57.93,106.18L-57.93,106.18" />
        <path d="M-73.29,84.15L-62.83,96.43L-57.88,105.84" />
        <path d="M-68.10,96.89L-65.75,97.41L-64.58,96.53L-68.10,96.89" />
        <path d="M-71.08,95.61L-68.10,96.89L-73.12,97.76" />
        <path d="M-55.28,109.69L-48.77,122.81L-27.56,160.30L-24.42,167.71L-14.08,185.90L-8.25,198.92L3.02,220.38" />
        <path d="M-76.94,115.00L-77.13,118.81L-67.78,131.63L-58.14,147.28L-51.03,163.62L-44.66,175.32L-35.39,198.58L-29.51,208.82L-23.69,216.96L-20.99,222.57L-17.90,232.77L-16.43,234.72" />
        <path d="M-12.04,233.24L-9.85,230.07L-5.95,227.13L0.68,224.58L2.34,222.72" />
        <path d="M-67.26,100.68L-66.48,100.09L-67.26,100.68" />
        <path d="M-67.26,100.68L-67.26,100.68" />
        <path d="M-67.79,101.19L-67.26,100.68L-67.79,101.19" />
        <path d="M-70.82,103.67L-70.82,103.67" />
        <path d="M-70.82,103.67L-70.82,103.67" />
        <path d="M-71.50,101.13L-67.79,101.19L-70.82,103.67L-67.06,101.75" />
      </g>
      <g id="f4" style="--index:4; opacity:0;" class="frame">
        <path d="M-152.22,-38.51L-148.51,-40.08L-130.40,-39.97" />
        <path d="M-127.61,-37.48L-130.83,-32.01L-142.91,-20.47" />
        <path d="M-149.69,-16.89L-152.81,-14.54L-168.12,-7.29L-202.79,11.18L-220.73,19.81L-244.34,29.03L-252.63,33.44L-255.51,34.08" />
        <path d="M-156.85,-37.77L-214.31,-13.44L-254.40,1.47L-262.25,5.25L-266.20,6.08" />
        <path d="M-263.94,12.33L-266.23,16.19L-266.42,19.99L-263.43,25.99L-258.10,30.23" />
        <path d="M-136.93,-33.22L-136.73,-32.14L-136.93,-33.22" />
        <path d="M-138.68,-35.67L-139.62,-36.39L-139.37,-33.21L-138.68,-35.67" />
        <path d="M-134.10,-35.96L-136.94,-38.10L-136.93,-33.22L-138.68,-35.67L-138.11,-37.22" />
        <path d="M-144.76,-17.24L-149.83,-15.86L-153.98,-13.66" />
        <path d="M-129.33,-40.16" />
      </g>
      <g id="f5" style="--index:5; opacity:0;" class="frame">
        <path d="M-165.45,-90.56L-155.44,-89.85L-150.56,-87.42" />
        <path d="M-150.65,-84.30L-163.41,-72.85" />
        <path d="M-172.23,-89.43L-166.18,-90.32" />
        <path d="M-167.56,-70.65L-192.78,-62.35L-203.95,-59.74L-277.36,-35.92" />
        <path d="M-175.79,-88.88L-179.26,-89.02L-188.14,-85.39L-204.14,-80.68L-267.32,-65.18L-279.56,-59.93L-283.46,-59.44L-283.95,-58.46L-282.38,-54.75L-281.73,-49.43L-283.03,-37.77L-282.29,-35.57" />
        <path d="M-165.39,-83.58L-165.39,-83.58" />
        <path d="M-165.39,-83.58L-165.39,-83.58" />
        <path d="M-165.09,-83.19L-165.09,-83.19" />
        <path d="M-163.87,-79.54L-163.87,-79.54" />
        <path d="M-163.87,-79.54L-163.87,-79.54" />
        <path d="M-164.31,-81.34L-163.87,-79.54L-164.31,-81.34" />
        <path d="M-164.29,-82.27L-165.09,-83.19L-164.31,-81.34L-164.29,-82.27" />
        <path d="M-161.39,-84.76L-161.67,-80.27L-163.63,-81.24L-164.90,-84.56" />
      </g>
      <g id="f6" style="--index:6; opacity:0;" class="frame">
        <path d="M-166.60,-156.27L-152.26,-148.45" />
        <path d="M-153.68,-143.08L-157.63,-142.81L-171.16,-137.03" />
        <path d="M-174.08,-159.54L-169.86,-159.40L-166.39,-157.29" />
        <path d="M-277.14,-172.75L-255.52,-169.48L-224.38,-166.07L-191.07,-159.40L-179.17,-158.79L-176.86,-157.97L-175.44,-156.27" />
        <path d="M-283.80,-151.81L-256.07,-150.85L-243.08,-148.61L-237.17,-146.36L-224.93,-143.91L-209.23,-142.89L-186.52,-139.75L-176.73,-137.44L-173.13,-137.78" />
        <path d="M-277.88,-170.78L-281.01,-169.28L-283.87,-155.01" />
        <path d="M-163.13,-150.63L-163.13,-150.63" />
        <path d="M-163.20,-150.29L-163.20,-150.29" />
        <path d="M-163.74,-147.61L-163.20,-150.29L-163.74,-147.61" />
        <path d="M-163.76,-147.49L-163.76,-147.49" />
        <path d="M-164.02,-146.21L-163.76,-147.49L-164.02,-146.21" />
        <path d="M-164.02,-146.21L-164.63,-146.68L-164.42,-151.24" />
      </g>
      <g id="f7" style="--index:7; opacity:0;" class="frame">
        <path d="M-168.02,-163.27L-163.27,-158.79L-155.86,-149.88L-152.94,-148.59" />
        <path d="M-152.05,-161.84L-151.30,-149.67" />
        <path d="M-151.84,-164.63L-152.59,-160.89L-152.05,-156.54" />
        <path d="M-150.82,-169.73L-151.23,-165.92L-150.49,-157.29" />
        <path d="M-215.11,-270.63L-215.79,-270.77L-215.11,-270.63" />
        <path d="M-215.11,-270.63L-215.11,-270.63" />
        <path d="M-168.43,-166.54L-170.61,-169.80L-172.30,-178.98L-183.24,-200.26L-187.12,-210.93L-193.71,-222.15L-197.85,-231.47L-199.82,-233.98L-202.13,-241.87L-204.78,-244.52L-205.94,-247.58L-206.75,-255.88L-208.66,-258.73L-211.44,-260.70L-215.11,-270.63L-211.37,-271.65L-201.58,-276.41L-196.28,-279.94L-194.85,-280.01L-193.97,-279.12" />
        <path d="M-189.62,-279.67L-185.54,-273.55L-180.17,-261.51L-177.05,-248.87L-174.06,-240.84L-172.09,-227.72L-168.35,-216.37L-164.07,-205.97L-155.98,-191.62L-149.67,-177.27L-148.78,-172.85" />
        <path d="M-159.60,-159.46L-155.18,-162.11L-156.60,-158.51" />
      </g>
      <g id="f8" style="--index:8; opacity:0;" class="frame">
        <path d="M-156.19,-285.65L-158.32,-282.59L-163.88,-279.02L-165.07,-275.49L-159.80,-267.65L-158.30,-264.07L-154.50,-248.36L-148.36,-230.30L-143.42,-220.16L-136.58,-197.61L-132.39,-189.26L-130.18,-188.27L-126.12,-188.36L-125.11,-204.71L-132.06,-224.24L-138.90,-249.14L-142.43,-255.04L-146.23,-266.03L-153.37,-279.52L-154.45,-283.72" />
      </g>
      <g id="f9" style="--index:9; opacity:0;" class="frame">
        <path d="M-105.35,-271.57L-104.50,-268.08L-104.93,-265.11L-102.72,-261.76L-103.15,-258.79L-102.35,-257.33L-96.70,-256.85L-98.16,-253.70L-94.77,-249.16L-94.92,-248.18L-93.13,-246.57L-93.32,-245.25" />
        <path d="M-93.32,-245.25L-93.94,-240.96" />
      </g>
      <g id="f10" style="--index:10; opacity:0;" class="frame" />
      <g id="f11" style="--index:11; opacity:0;" class="frame">
        <path d="M-149.47,-142.94" />
      </g>
      <g id="f12" style="--index:12; opacity:0;" class="frame">
        <path d="M-146.55,-143.42" />
        <path d="M-147.50,-143.96L-136.76,-130.50L-129.35,-116.29L-116.85,-101.06" />
      </g>
      <g id="f13" style="--index:13; opacity:0;" class="frame">
        <path d="M-114.54,-96.70L-112.70,-93.51L-111.21,-86.85L-103.73,-69.44L-101.36,-61.89L-98.03,-55.57L-86.54,-26.40L-83.42,-20.83L-78.12,-3.15L-75.20,1.68L-73.50,7.32" />
        <path d="M-148.25,-141.99L-135.61,-123.90L-126.09,-113.16L-116.10,-97.72" />
      </g>
      <g id="f14" style="--index:14; opacity:0;" class="frame">
        <path d="M-148.25,-141.99L-140.91,-132.74L-138.19,-130.43L-115.69,-96.23" />
        <path d="M-114.33,-92.42L-110.39,-85.62L-101.56,-66.18L-89.80,-34.83L-76.96,3.44L-74.11,8.61L-72.00,15.75L-65.28,28.06L-55.22,50.22L-48.83,69.53" />
      </g>
      <g id="f15" style="--index:15; opacity:0;" class="frame">
        <path d="M-147.77,-144.37L-145.39,-138.59L-135.06,-123.09L-131.32,-115.27L-125.21,-105.20L-119.91,-99.90L-115.01,-92.56" />
        <path d="M-111.14,-90.72L-110.80,-87.12L-102.78,-67.13L-93.27,-36.94L-75.33,2.36L-70.17,18.95L-58.55,49.20L-55.16,60.49L-54.61,64.84L-51.28,69.40" />
        <path d="M-51.15,72.25L-57.81,77.28L-66.45,81.56L-67.87,81.63L-71.61,84.42" />
      </g>
      <g id="f16" style="--index:16; opacity:0;" class="frame">
        <path d="M-147.50,-142.19L-137.98,-131.45L-132.34,-122.54L-125.95,-115.61L-113.58,-97.93" />
        <path d="M-111.34,-91.47L-92.93,-35.11L-86.75,-20.08L-81.99,-13.82L-79.48,-3.42L-73.91,9.36L-67.72,27.92L-62.56,40.98L-57.67,50.09L-55.36,57.97L-55.56,60.76L-54.14,66.00L-52.51,68.44" />
        <path d="M-72.56,83.87L-67.33,82.44L-55.57,74.90L-50.67,73.41L-48.09,71.10" />
        <path d="M-123.66,-35.25L-115.64,-17.03L-112.25,-5.74L-94.38,37.43L-86.50,59.87L-84.12,63.88L-83.44,69.32L-81.60,74.28L-79.23,80.06L-75.56,84.69" />
      </g>
      <g id="f17" style="--index:17; opacity:0;" class="frame">
        <path d="M-147.63,-141.51L-136.49,-130.09L-134.99,-126.96L-125.75,-114.86L-118.82,-107.11L-111.68,-96.84L-110.12,-95.82" />
        <path d="M-110.59,-91.67L-95.99,-49.86L-91.44,-33.75L-85.80,-17.77L-51.96,69.26" />
        <path d="M-76.24,82.78L-64.00,78.16L-56.59,72.93L-51.08,73.68L-49.45,72.59" />
        <path d="M-73.86,81.49L-73.86,81.49" />
        <path d="M-144.39,-81.82L-140.85,-76.52L-117.95,-19.61L-105.72,7.59L-89.41,40.90L-81.19,61.64L-79.29,69.80L-73.86,81.49" />
      </g>
      <g id="f18" style="--index:18; opacity:0;" class="frame">
        <path d="M-145.73,-140.43L-146.48,-136.69L-147.51,-105.07L-148.80,-95.08L-148.26,-87.19L-147.65,-86.72" />
        <path d="M-146.14,-140.15L-138.32,-131.52L-126.23,-110.71L-114.60,-96.36L-112.29,-92.01" />
        <path d="M-109.78,-92.22L-108.90,-87.80L-105.09,-78.55L-91.03,-34.02L-75.54,1.61L-63.92,33.63L-53.59,52.67L-50.80,59.95L-49.24,66.27L-49.11,70.89L-48.50,71.37" />
        <path d="M-146.42,-82.23L-140.17,-72.85L-134.26,-60.00L-128.49,-42.93L-122.57,-30.08L-118.29,-17.91L-102.94,16.63L-94.65,31.72L-91.45,40.49L-86.43,50.69L-82.89,61.30L-79.63,67.96L-78.48,72.79L-73.92,81.83L-69.51,82.72L-63.45,78.98L-56.99,76.74L-53.39,76.40L-48.50,71.37" />
      </g>
      <g id="f19" style="--index:19; opacity:0;" class="frame">
        <path d="M-142.82,-105.55L-136.56,-105.00L-132.89,-107.45" />
        <path d="M-144.64,-140.56L-143.56,-137.16L-136.15,-128.25L-128.74,-112.28L-124.94,-106.56L-119.02,-100.78L-117.19,-97.59L-108.90,-87.80" />
        <path d="M-145.32,-137.16L-145.05,-127.92L-146.35,-114.39L-145.81,-99.43L-146.43,-78.70" />
        <path d="M-110.39,-89.16L-97.69,-50.20L-95.24,-44.76L-93.00,-34.77L-84.03,-14.23L-73.70,13.64L-62.49,40.64L-50.47,67.08" />
        <path d="M-143.77,-76.04L-127.06,-44.77L-121.89,-29.95L-117.55,-21.65L-113.33,-9.14L-96.55,27.10L-93.42,36.21L-88.67,46.00L-81.87,63.27L-74.47,77.48L-72.36,84.62" />
        <path d="M-73.45,84.75L-72.09,81.49L-65.77,79.93L-59.71,76.19L-56.65,73.27L-50.60,71.30" />
        <path d="M-138.46,-111.39L-138.40,-109.97L-138.46,-111.39" />
        <path d="M-138.68,-112.43L-138.46,-111.39L-138.68,-112.43" />
        <path d="M-140.84,-120.71L-140.84,-120.71" />
        <path d="M-140.84,-120.71L-140.84,-120.71" />
        <path d="M-135.74,-114.39L-137.31,-118.94L-138.53,-119.89L-139.21,-116.49L-138.68,-112.43L-140.84,-120.71L-139.62,-110.92L-140.23,-111.39L-141.45,-114.11L-142.13,-119.55L-143.22,-121.19" />
      </g>
      <g id="f20" style="--index:20; opacity:0;" class="frame">
        <path d="M-142.14,-138.13L-140.78,-131.20L-137.35,-122.28L-132.48,-104.74L-130.29,-89.60L-128.59,-87.34" />
        <path d="M-141.62,-139.40L-136.63,-131.94L-127.97,-121.94L-116.58,-109.85L-110.84,-105.32L-107.78,-100.83L-105.52,-100.17" />
        <path d="M-125.33,-109.93L-123.23,-110.47L-120.87,-112.83L-125.33,-109.93" />
        <path d="M-128.18,-110.01L-125.33,-109.93L-128.94,-108.27L-128.18,-110.01" />
        <path d="M-129.41,-110.09L-128.18,-110.01L-125.73,-111.84L-123.27,-112.50L-123.84,-110.90L-127.62,-108.08L-130.68,-107.85L-130.82,-109.21L-129.41,-110.09" />
        <path d="M-130.35,-110.15L-128.98,-110.29" />
        <path d="M-125.73,-81.53L-117.65,-62.85L-104.58,-36.72L-98.77,-18.70L-96.37,-14.31L-80.41,26.73L-64.90,61.64L-61.34,71.92" />
        <path d="M-58.90,83.05L-58.90,83.05" />
        <path d="M-103.35,-98.85L-92.84,-71.39L-83.64,-44.13L-70.07,-9.84L-58.61,15.73L-51.32,28.23L-44.14,46.11L-38.74,62.38L-38.00,68.89L-38.90,72.80L-56.26,81.07L-58.90,83.05" />
        <path d="M-59.92,69.09L-60.07,72.44L-57.57,76.17" />
      </g>
      <g id="f21" style="--index:21; opacity:0;" class="frame">
        <path d="M-146.33,-142.08L-138.61,-137.26L-128.92,-129.80L-120.83,-125.27L-115.79,-120.51" />
        <path d="M-144.30,-144.48L-135.26,-144.18L-119.71,-146.98L-112.22,-147.59" />
        <path d="M-105.96,-146.68L-85.66,-142.74L-51.70,-137.84L-5.50,-131.50L16.12,-129.73L18.56,-128.03" />
        <path d="M-112.73,-120.74L-99.35,-120.15L-90.64,-117.55L-60.64,-113.21L-54.15,-111.60L-27.91,-109.16L37.32,-99.41" />
        <path d="M12.96,-128.84L20.12,-129.49L38.16,-126.21L38.48,-119.10L36.38,-102.23L34.02,-102.24" />
        <path d="M-125.33,-140.73L-122.64,-138.32L-121.47,-134.79L-121.67,-131.11L-122.89,-129.61L-123.88,-129.75" />
        <path d="M-119.77,-141.94L-118.69,-137.75L-119.73,-132.85L-121.24,-131.72" />
        <path d="M-131.83,-137.63L-132.82,-137.77L-131.83,-137.63" />
        <path d="M-131.83,-137.63L-131.83,-137.63" />
        <path d="M-127.64,-136.35L-131.83,-137.63L-125.24,-136.68L-125.33,-136.02L-127.41,-135.64L-131.41,-135.89L-131.88,-134.94L-131.22,-134.85" />
      </g>
      <g id="f22" style="--index:22; opacity:0;" class="frame">
        <path d="M-123.94,-170.86L-127.06,-165.59L-139.67,-150.57L-148.92,-142.48L-146.61,-142.14L-135.20,-144.20L-120.15,-148.09L-104.74,-149.90" />
        <path d="M-121.63,-168.17L-112.52,-175.28L-95.73,-184.30L-62.74,-205.13L-34.94,-225.03L-28.00,-231.10L-17.20,-238.30L-2.00,-250.24L11.73,-259.04" />
        <path d="M11.50,-259.75L17.66,-251.11L21.37,-244.17L29.18,-235.30" />
        <path d="M-103.70,-150.09L-103.70,-150.09" />
        <path d="M28.66,-234.03L15.22,-227.21L5.12,-220.25L-25.27,-203.42L-34.42,-195.99L-46.55,-188.98L-65.62,-173.55L-92.05,-156.15L-103.70,-150.09" />
        <path d="M-130.08,-149.55L-127.93,-147.86L-127.51,-146.12L-130.08,-149.55" />
        <path d="M-129.24,-152.77L-125.10,-148.80L-126.37,-149.32L-129.24,-152.77" />
        <path d="M-129.24,-152.77L-129.24,-152.77" />
        <path d="M-130.52,-153.29L-129.24,-152.77L-131.27,-155.08L-130.52,-153.29" />
        <path d="M-126.57,-148.00L-126.57,-148.00" />
        <path d="M-133.63,-150.37L-130.08,-149.55L-132.26,-152.87L-132.12,-153.86L-130.52,-153.29L-126.57,-148.00" />
      </g>
      <g id="f23" style="--index:23; opacity:0;" class="frame">
        <path d="M-147.50,-148.00L-147.50,-147.00L-147.50,-148.00" />
        <path d="M-131.00,-188.50L-137.50,-172.50L-142.50,-163.50L-146.00,-154.50L-147.50,-148.00L-135.50,-151.50L-119.00,-158.50" />
        <path d="M-108.00,-167.00L-113.00,-163.50L-123.00,-158.50" />
        <path d="M-127.25,-191.04L-125.38,-195.84L-117.68,-202.49L-108.09,-209.01L-97.52,-218.50L-91.15,-222.59L-85.04,-228.22L-71.16,-236.33L-66.27,-240.91L-53.09,-249.82L-46.60,-255.43L-23.86,-270.48L-15.35,-277.84L-5.41,-283.95" />
        <path d="M-99.15,-175.32" />
        <path d="M-105.04,-167.39L-102.53,-170.63L-95.72,-175.45L-85.51,-185.34L-57.01,-206.43L-51.22,-212.85L-38.09,-221.01L-31.64,-226.23L-24.51,-230.27L-8.32,-243.90L-0.11,-252.42L10.61,-258.86L13.07,-261.34" />
        <path d="M-1.36,-282.14L8.87,-266.20L15.13,-263.47" />
        <path d="M-130.94,-158.64L-130.94,-158.64" />
        <path d="M-131.58,-159.32L-130.94,-158.64L-131.58,-159.32" />
        <path d="M-131.80,-159.84L-131.58,-159.32L-131.80,-159.84" />
        <path d="M-131.80,-159.84L-131.80,-159.84" />
        <path d="M-133.76,-164.17L-134.76,-166.14L-134.70,-166.89L-133.95,-166.84L-131.06,-164.73L-127.94,-160.70L-129.80,-161.22L-133.76,-164.17" />
        <path d="M-133.76,-164.17L-133.76,-164.17" />
        <path d="M-132.39,-160.39L-133.76,-164.17L-136.89,-168.19L-136.80,-169.32L-134.97,-168.43L-132.17,-165.19L-131.58,-162.87L-132.39,-160.39" />
        <path d="M-135.56,-158.91L-140.25,-158.56L-139.35,-160.39L-136.19,-162.06L-135.06,-161.98L-135.56,-158.91" />
        <path d="M-138.49,-161.85L-134.28,-162.30L-132.39,-160.39L-135.56,-158.91L-137.42,-155.70L-138.14,-156.13" />
      </g>
    </g>
  </g>
</svg>