<?xml version="1.0" encoding="utf-8"?>
<svg width="1194" height="834" viewBox="-597 -417 1194 834" xmlns="http://www.w3.org/2000/svg">
  <style>
svg { background-color:#E5A3A4; }

#looom { --version:2; }

#t0 {
--visible:1; --timeOffset:35.00008; --speed:12; --bookmarkIndex:-1; --latched:0; --playMode:0; --masked:0; --blendMode:0; 
stroke:#29534D; stroke-opacity:1; fill-opacity:0; stroke-width:11.29762; stroke-linecap:round; stroke-linejoin:round;
}
@keyframes t0 { 0% { opacity: 1; } 14.28571% { opacity: 0; } }
#t0 .frame { animation:t0 0.5833334s calc(var(--index) * 0.08333334s) steps(1) infinite; }

#t1 {
--visible:1; --timeOffset:344.7532; --speed:12; --bookmarkIndex:-1; --latched:0; --playMode:0; --masked:0; --blendMode:0; 
stroke:#EDE9B8; stroke-opacity:0.2070299; fill-opacity:0; stroke-width:10.36129; stroke-linecap:round; stroke-linejoin:round;
}
@keyframes t1 { 0% { opacity: 1; } 4.761905% { opacity: 0; } }
#t1 .frame { animation:t1 1.75s calc(var(--index) * 0.08333334s) steps(1) infinite; }

#t2 {
--visible:1; --timeOffset:36.7501; --speed:12; --bookmarkIndex:-1; --latched:0; --playMode:0; --masked:0; --blendMode:0; 
stroke:#44C86C; stroke-opacity:1; fill-opacity:0; stroke-width:20.03664; stroke-linecap:round; stroke-linejoin:round;
}
@keyframes t2 { 0% { opacity: 1; } 4.761905% { opacity: 0; } }
#t2 .frame { animation:t2 1.75s calc(var(--index) * 0.08333334s) steps(1) infinite; }

#t3 {
--visible:1; --timeOffset:36.75009; --speed:12; --bookmarkIndex:-1; --latched:0; --playMode:0; --masked:0; --blendMode:0; 
stroke:#C84445; stroke-opacity:1; fill-opacity:0; stroke-width:20.03664; stroke-linecap:round; stroke-linejoin:round;
}
@keyframes t3 { 0% { opacity: 1; } 4.761905% { opacity: 0; } }
#t3 .frame { animation:t3 1.75s calc(var(--index) * 0.08333334s) steps(1) infinite; }

#t4 {
--visible:1; --timeOffset:35.0001; --speed:12; --bookmarkIndex:-1; --latched:0; --playMode:0; --masked:0; --blendMode:0; 
stroke:#449EC8; stroke-opacity:1; fill-opacity:0; stroke-width:20.03664; stroke-linecap:round; stroke-linejoin:round;
}
@keyframes t4 { 0% { opacity: 1; } 4.761905% { opacity: 0; } }
#t4 .frame { animation:t4 1.75s calc(var(--index) * 0.08333334s) steps(1) infinite; }


</style>
  <g id="w0" transform="translate(243.25 132.25) scale(1.50 1.50) rotate(-353.65)" class="weave">
    <g id="t0" transform="translate(374.81 84.20)" class="thread">
      <g id="f0" style="--index:0; opacity:1;" class="frame">
        <path d="M-563.38,-139.88L-578.80,-108.07L-590.35,-89.09" />
        <path d="M-591.80,-84.81L-598.51,-76.75L-646.85,-36.56L-650.19,-34.68L-659.73,-31.88" />
        <path d="M-560.42,-76.53L-572.41,-61.84L-590.59,-47.18L-617.84,-30.20L-625.00,-27.39L-640.29,-17.95L-646.98,-15.13L-656.50,-15.19L-661.25,-17.12L-666.45,-23.82" />
        <path d="M-663.13,-20.94L-664.06,-25.71L-662.14,-28.08" />
        <path d="M-525.58,-108.80L-526.23,-103.79L-523.42,-58.27" />
        <path d="M-502.70,-112.25L-499.09,-94.80L-496.79,-59.20L-495.79,-57.44L-494.92,-57.94" />
        <path d="M-520.77,-50.72L-520.06,-45.79L-517.14,-41.87L-501.44,-26.86L-492.10,-21.01L-485.22,-19.11L-471.12,-17.58L-458.78,-15.05L-447.46,-14.73L-447.13,-17.01L-448.19,-20.12L-454.93,-27.91L-466.74,-37.70L-477.46,-43.93L-484.15,-50.81L-493.11,-58.04L-496.36,-59.68" />
        <path d="M-558.71,-78.01L-558.03,-82.13L-553.69,-91.42L-545.15,-114.18L-544.62,-122.48" />
      </g>
      <g id="f1" style="--index:1; opacity:0;" class="frame">
        <path d="M-566.78,-128.00L-571.59,-120.40L-573.53,-113.75L-579.32,-101.88L-587.95,-90.98L-589.87,-89.56L-592.76,-84.34" />
        <path d="M-546.83,-119.78L-550.24,-105.99L-558.01,-81.28L-563.30,-71.78L-561.39,-72.72" />
        <path d="M-594.69,-79.11L-605.73,-64.89L-619.19,-42.59L-626.39,-33.11L-632.62,-26.48L-646.55,-6.08L-651.87,6.74L-651.89,10.55L-649.53,13.42L-643.33,12.98L-627.11,7.84L-621.38,5.02L-617.57,4.09L-613.73,0.30L-605.11,-9.17L-600.78,-15.34L-595.04,-20.06L-589.28,-28.13L-578.25,-40.44L-570.06,-56.11L-568.15,-58.48L-560.43,-75.10" />
        <path d="M-501.07,-72.09L-492.75,-94.68L-481.27,-108.84L-476.86,-110.87L-473.25,-111.06L-471.42,-110.70L-468.60,-108.59L-467.58,-106.38L-467.21,-99.17L-471.16,-88.11L-481.99,-70.37" />
        <path d="M-501.36,-68.91L-494.15,-69.29L-488.81,-70.92" />
        <path d="M-484.30,-71.15L-489.64,-69.52L-497.75,-69.10L-502.81,-70.65L-508.00,-74.90L-519.57,-88.77L-526.14,-93.40L-528.09,-96.01" />
        <path d="M-490.82,-101.11L-493.76,-105.48L-502.27,-112.72L-508.72,-123.69L-511.92,-124.43" />
        <path d="M-523.32,-91.29L-526.28,-96.11L-530.47,-107.19" />
      </g>
      <g id="f2" style="--index:2; opacity:0;" class="frame">
        <path d="M-564.35,-135.60L-569.64,-128.01L-584.11,-96.67L-585.57,-91.92L-598.09,-68.66L-603.91,-50.59L-621.70,-20.70L-628.43,-10.74L-631.80,-4.09L-637.11,7.78L-639.54,16.34L-639.56,18.72L-638.14,20.16L-632.43,21.62L-617.19,21.23L-611.93,17.93L-606.19,12.25L-598.99,4.20L-592.75,-4.34L-581.70,-21.89L-572.53,-42.31L-565.74,-62.27L-562.82,-73.68L-557.02,-87.94L-551.68,-104.57L-545.40,-119.30L-544.42,-125.01" />
        <path d="M-484.38,-81.55L-483.31,-87.03L-479.36,-98.08L-477.62,-108.12L-476.05,-112.72L-469.02,-125.30L-461.47,-127.95L-453.35,-128.37L-450.10,-126.73L-448.56,-123.19L-448.52,-113.70L-451.12,-102.71L-452.76,-99.46L-469.67,-85.47L-481.54,-78.98" />
        <path d="M-482.51,-80.29L-487.47,-80.03L-494.82,-82.36L-507.87,-89.82L-512.45,-90.94L-516.17,-93.01L-519.52,-96.46L-521.84,-97.69L-535.20,-102.43" />
        <path d="M-508.67,-122.79L-505.64,-116.62L-502.37,-114.53L-494.49,-110.86L-487.63,-109.41L-484.93,-109.55" />
      </g>
      <g id="f3" style="--index:3; opacity:0;" class="frame">
        <path d="M-568.66,-131.82L-571.56,-125.64L-577.40,-103.30L-580.30,-96.65L-585.17,-78.58L-587.58,-74.31L-589.03,-70.51L-589.03,-69.55L-588.55,-70.03" />
        <path d="M-545.44,-112.63L-543.99,-117.38L-544.94,-117.87L-545.89,-116.92L-547.84,-110.74L-555.65,-77.45L-559.52,-67.47L-560.99,-59.86" />
        <path d="M-590.01,-65.27L-597.72,-50.56L-614.02,-31.61L-616.91,-26.38L-626.99,-12.63L-632.77,-1.72L-633.75,2.09L-633.30,6.85L-630.93,8.77L-622.83,8.82L-612.82,6.50L-604.23,3.21L-599.92,-0.09L-581.24,-19.03L-574.04,-28.99L-565.37,-45.13L-561.50,-54.63L-559.06,-65.09L-558.10,-66.51" />
        <path d="M-533.16,-98.01L-526.52,-92.02L-517.63,-86.15L-488.49,-73.65L-468.82,-69.24L-464.74,-69.00L-454.16,-65.48L-442.30,-63.38L-430.36,-59.93L-417.74,-60.58" />
        <path d="M-509.54,-113.25L-488.44,-107.56L-474.07,-100.62L-462.63,-98.05L-451.57,-94.10L-435.60,-91.31L-430.62,-91.11L-420.56,-88.92L-406.28,-83.78L-396.05,-78.44L-393.16,-74.97L-392.50,-70.93L-395.31,-64.01L-407.37,-61.12L-426.28,-59.69" />
      </g>
      <g id="f4" style="--index:4; opacity:0;" class="frame">
        <path d="M-595.84,-55.59L-601.18,-56.57L-608.67,-62.49L-612.57,-70.14L-620.86,-82.33L-620.74,-89.92L-619.81,-92.14L-615.30,-94.74L-609.48,-95.99L-604.13,-95.46L-596.13,-93.10L-587.73,-87.61L-576.36,-73.14L-560.06,-59.04" />
        <path d="M-570.24,-120.82L-572.11,-115.49L-578.49,-107.11L-587.24,-90.28L-586.81,-89.82" />
        <path d="M-532.11,-112.53L-522.91,-92.21L-516.95,-73.08L-513.87,-66.00L-509.96,-60.33L-509.89,-58.97" />
        <path d="M-507.77,-122.84L-494.17,-95.96L-486.33,-84.16L-479.31,-70.96L-475.47,-66.64" />
        <path d="M-507.02,-55.96L-507.02,-55.96" />
        <path d="M-507.02,-55.96L-507.02,-55.96" />
        <path d="M-506.68,-55.22L-507.02,-55.96L-506.68,-55.22" />
        <path d="M-504.98,-51.54L-506.52,-55.08L-502.61,-49.40L-491.56,-36.86L-480.23,-27.50L-469.48,-20.83L-448.11,-9.73L-438.90,-6.59L-421.56,-3.42L-411.19,-3.95L-406.79,-6.44L-404.70,-9.71L-404.89,-13.32L-406.52,-18.66L-409.46,-23.03L-412.76,-25.57L-434.54,-35.75L-441.53,-39.91L-450.76,-43.50L-462.00,-51.06L-473.82,-60.84L-478.10,-73.73" />
        <path d="M-563.26,-59.15L-571.40,-55.51L-582.31,-54.13L-586.87,-54.43" />
        <path d="M-557.02,-64.15L-556.71,-69.29L-552.60,-80.24L-549.77,-98.58L-547.75,-103.62L-546.72,-113.46" />
        <path d="M-586.10,-54.21L-589.87,-55.19L-590.55,-54.74" />
      </g>
      <g id="f5" style="--index:5; opacity:0;" class="frame">
        <path d="M-618.66,-80.51L-614.23,-77.76L-609.78,-77.24L-598.24,-72.59L-589.31,-72.90L-576.30,-76.71L-570.45,-79.29L-565.04,-82.78L-557.32,-91.14L-554.12,-95.55L-548.57,-107.52L-542.19,-115.46" />
        <path d="M-530.59,-109.45L-528.86,-102.30L-524.15,-89.89L-517.91,-65.34L-515.89,-61.38L-511.13,-56.65" />
        <path d="M-503.48,-118.54L-504.15,-113.98L-491.64,-90.67L-485.88,-75.59L-482.47,-70.79L-479.17,-68.25L-478.27,-68.30" />
        <path d="M-512.95,-57.01L-510.80,-50.34L-494.70,-27.66L-486.52,-18.14L-468.41,-0.08L-454.77,10.06L-443.62,15.81L-437.71,16.41L-431.49,14.28L-430.19,13.31L-428.57,9.61L-429.21,6.02L-431.70,1.63L-439.54,-10.17L-454.45,-36.07L-461.63,-43.84L-470.50,-57.85L-477.63,-64.71L-482.54,-72.15" />
        <path d="M-619.08,-81.86L-623.90,-87.74L-629.04,-101.22L-628.83,-114.16L-625.98,-124.83L-622.81,-127.91L-613.80,-132.67L-610.23,-132.62L-600.99,-124.43L-596.64,-116.77L-594.09,-109.14L-588.84,-102.36L-584.08,-92.46L-581.56,-83.04" />
      </g>
      <g id="f6" style="--index:6; opacity:0;" class="frame">
        <path d="M-570.25,-119.92L-581.51,-113.85L-604.98,-98.15L-618.93,-91.23L-631.11,-83.39L-662.89,-78.54L-674.06,-78.27L-687.07,-74.01L-691.58,-71.41L-695.23,-66.55L-694.89,-59.85L-691.81,-57.12L-688.71,-55.73L-676.68,-53.75L-659.27,-53.48L-632.87,-57.07L-611.80,-62.54L-599.65,-68.15L-570.78,-86.89L-560.38,-95.21L-548.12,-107.51L-544.96,-109.70L-543.59,-111.91" />
        <path d="M-529.24,-109.52L-530.26,-103.13L-529.80,-94.11L-524.40,-50.99L-523.52,-51.49" />
        <path d="M-504.40,-118.94L-504.60,-113.96L-500.17,-80.73L-496.26,-66.46L-493.80,-62.52" />
        <path d="M-521.93,-47.05L-521.46,-38.03L-515.38,-25.23L-506.96,-11.20L-496.34,1.81L-487.76,10.41L-473.67,20.53L-463.06,24.51L-459.01,24.30L-456.89,21.47L-455.34,16.42L-456.21,-0.26L-465.10,-14.72L-472.71,-22.02L-483.83,-35.91L-492.85,-53.07L-494.11,-59.79L-493.46,-64.80" />
      </g>
    </g>
    <g id="t1" transform="translate(-449.31 -65.83)" class="thread">
      <g id="f0" style="--index:0; opacity:1;" class="frame">
        <path d="M138.81,76.51L151.84,64.09" />
        <path d="M157.25,59.77L161.58,65.18L166.65,79.82" />
        <path d="M306.61,-181.46L303.04,-177.19L300.42,-172.03L297.89,-164.09L298.00,-160.40L298.93,-160.42" />
        <path d="M296.24,-157.57L301.82,-156.35L318.90,-157.34" />
      </g>
      <g id="f1" style="--index:1; opacity:0;" class="frame">
        <path d="M157.21,118.94L158.90,113.80L159.81,113.31L165.04,118.24L166.92,119.10L169.69,119.02" />
        <path d="M166.35,115.42L171.06,118.51" />
        <path d="M335.63,-169.40L335.31,-164.77L337.04,-153.73" />
        <path d="M336.39,-174.97L341.37,-178.36L345.50,-179.41L357.49,-180.24L359.37,-179.37" />
        <path d="M290.26,-4.84L295.43,-2.23L304.04,7.22L310.66,12.10" />
        <path d="M324.76,-25.77L325.21,-10.99L323.55,10.32" />
        <path d="M323.89,6.61L321.28,11.78L320.10,18.75L320.23,22.90" />
        <path d="M311.13,12.55L317.33,18.83" />
      </g>
      <g id="f2" style="--index:2; opacity:0;" class="frame">
        <path d="M360.29,-118.84L361.38,-113.33L367.43,-96.87L370.09,-85.40" />
        <path d="M359.95,-114.67L363.29,-96.28L364.62,-82.92L365.14,-81.09L366.07,-80.65" />
        <path d="M357.54,-117.83L363.09,-118.00L379.81,-115.28L400.34,-108.97" />
        <path d="M384.93,-114.05L391.51,-110.55L396.72,-106.55L400.54,-102.50L405.41,-94.33" />
        <path d="M267.00,-85.49L270.35,-81.89L276.93,-78.40L281.20,-74.83L284.12,-69.83L288.64,-57.95L291.58,-52.50L294.87,-50.75" />
        <path d="M294.88,-35.49L300.76,-69.88L301.84,-80.08" />
        <path d="M302.28,-80.56L302.59,-100.91L302.45,-105.52L301.43,-108.73" />
        <path d="M159.55,150.30L159.23,154.93L160.24,157.67L162.16,159.93L164.02,160.33" />
      </g>
      <g id="f3" style="--index:3; opacity:0;" class="frame">
        <path d="M391.67,-14.41L395.87,2.11L397.56,12.23L398.13,30.70L395.49,50.19" />
        <path d="M389.50,-24.97L393.32,-20.93L402.11,-5.48L405.45,-1.88L414.74,14.48L421.02,23.53L425.53,34.95" />
        <path d="M247.91,-135.76L250.34,-131.67L257.89,-126.82L265.04,-119.64" />
        <path d="M271.10,-117.97L275.60,-121.81L279.03,-130.70L281.83,-145.11L281.89,-158.06" />
      </g>
      <g id="f4" style="--index:4; opacity:0;" class="frame">
        <path d="M233.84,9.36L235.95,18.08L235.44,31.50" />
        <path d="M239.91,26.74L243.97,23.38L261.24,13.61" />
        <path d="M403.23,92.02L406.74,85.91L409.28,77.97" />
        <path d="M410.10,74.71L409.73,62.70" />
        <path d="M409.30,63.64L422.65,77.10L425.61,83.02L426.20,87.16" />
        <path d="M420.84,78.08L427.22,90.37L429.25,96.32L429.69,110.63" />
        <path d="M244.61,-152.76L252.07,-150.68L257.24,-148.06" />
        <path d="M258.57,-149.95L259.66,-159.69L259.29,-171.70L258.23,-176.29L253.28,-186.77" />
      </g>
      <g id="f5" style="--index:5; opacity:0;" class="frame">
        <path d="M258.38,-80.14L257.46,-64.86L259.00,-59.82L259.93,-59.85" />
        <path d="M256.20,-91.17L254.95,-86.51L255.25,-61.56L255.53,-52.32L257.52,-47.76" />
        <path d="M285.24,-78.65L279.92,-71.09L267.40,-57.31L265.20,-53.54L264.39,-49.82" />
        <path d="M416.83,128.59L417.26,127.65L416.83,128.59" />
        <path d="M416.84,129.05L416.84,129.05" />
        <path d="M398.49,118.52L401.84,122.11L412.24,129.65L415.95,130.00L416.84,129.05L416.04,133.24L412.58,140.74L409.06,146.85L402.38,154.92" />
        <path d="M197.25,-174.89L206.85,-178.42L213.30,-179.08" />
        <path d="M219.87,-176.04L217.22,-171.80L216.41,-168.08L216.34,-155.13" />
      </g>
      <g id="f6" style="--index:6; opacity:0;" class="frame">
        <path d="M279.24,-139.02L277.55,-133.89L277.25,-128.33L277.34,-125.56L279.30,-121.92" />
        <path d="M277.51,-120.02L281.73,-117.84L284.95,-118.40L301.82,-126.31" />
        <path d="M292.76,-120.02L299.60,-123.00L307.31,-127.86" />
        <path d="M386.49,149.39L390.49,144.18L391.25,138.61" />
        <path d="M149.36,-17.19L149.12,-25.04L149.90,-29.69L155.40,-46.50L170.15,-78.38L177.18,-90.15" />
        <path d="M180.54,-86.09L178.86,-80.49L174.13,-38.75L173.91,-30.88L175.00,-25.37L176.93,-22.65" />
        <path d="M176.14,-33.26L176.34,-11.54L178.39,-5.13" />
      </g>
      <g id="f7" style="--index:7; opacity:0;" class="frame">
        <path d="M306.54,-168.52L305.85,-160.64L308.81,-154.72L311.66,-152.03" />
        <path d="M311.10,-155.25L316.70,-153.57L324.58,-152.89" />
        <path d="M134.35,81.73L135.52,74.76L137.66,69.15L146.48,55.01L147.83,54.04" />
        <path d="M155.89,45.48L157.92,51.43L159.76,66.16L162.38,76.25L165.29,80.79L167.18,82.11" />
        <path d="M168.51,80.23L168.72,87.15L170.18,89.42L172.05,90.29" />
      </g>
      <g id="f8" style="--index:8; opacity:0;" class="frame">
        <path d="M340.73,-169.10L343.85,-172.89L348.83,-176.28" />
        <path d="M285.57,-7.01L298.20,-2.31L302.96,2.17L305.41,6.71L307.49,14.51" />
        <path d="M323.60,-18.34L322.52,-8.14L320.87,-1.62L313.53,15.25" />
        <path d="M147.28,141.89L147.00,147.91L145.12,147.04L143.62,143.39L142.04,136.96L141.14,122.66" />
        <path d="M144.44,109.62L146.46,115.10L153.02,118.14L162.30,119.24L170.61,118.99" />
        <path d="M147.35,114.15L143.74,117.04L143.52,124.90" />
      </g>
      <g id="f9" style="--index:9; opacity:0;" class="frame">
        <path d="M370.12,-84.47L367.83,-98.73L364.70,-110.66" />
        <path d="M366.45,-113.95L360.66,-121.63" />
        <path d="M363.90,-121.73L376.42,-120.26L386.26,-115.94" />
        <path d="M372.83,-116.91L377.44,-117.05L382.11,-115.81L386.33,-113.63L390.60,-110.06L392.53,-107.35L394.48,-104.17L396.51,-98.22" />
        <path d="M262.71,-89.98L272.20,-81.95L275.63,-75.58L284.75,-64.31L288.20,-57.48L293.75,-41.93L296.57,-40.63" />
        <path d="M298.71,-106.80L299.93,-81.87L298.98,-67.51L299.02,-51.34L297.04,-40.18" />
        <path d="M163.01,142.34L157.83,154.51L157.52,159.61L164.14,164.49L169.74,166.17" />
      </g>
      <g id="f10" style="--index:10; opacity:0;" class="frame">
        <path d="M389.49,-10.18L393.94,-0.61L396.02,7.19L397.13,13.16L397.51,25.63" />
        <path d="M393.50,0.33L393.64,4.95L395.18,9.99L396.60,26.12L396.18,42.78" />
        <path d="M392.82,-7.04L405.71,6.43L413.03,19.15" />
        <path d="M399.93,-1.25L402.82,2.82L410.44,9.98L414.76,15.40L419.65,24.03L422.74,34.57" />
        <path d="M244.28,-133.34L250.76,-133.07L259.24,-127.78L263.06,-123.74L267.96,-114.64L269.98,-109.16L271.41,-107.81" />
        <path d="M278.93,-149.18L274.20,-122.23L273.58,-112.50" />
      </g>
      <g id="f11" style="--index:11; opacity:0;" class="frame">
        <path d="M403.18,90.18L414.86,79.19" />
        <path d="M414.80,77.34L416.41,69.43L424.61,80.74L427.64,88.97" />
        <path d="M427.50,84.35L429.99,90.28L430.29,99.98" />
        <path d="M241.80,-154.06L246.43,-153.74L249.26,-151.98L252.14,-148.37" />
        <path d="M254.03,-177.55L252.83,-171.50L252.80,-157.17" />
        <path d="M231.18,-2.12L228.55,2.59L229.12,21.52L232.75,34.35L235.56,35.65L237.38,34.67" />
        <path d="M237.48,37.91L239.62,32.29L243.61,26.63L257.04,12.35L262.00,8.04L264.74,7.03" />
      </g>
      <g id="f12" style="--index:12; opacity:0;" class="frame">
        <path d="M397.06,117.17L401.77,119.80L406.90,121.50L411.52,121.36L414.26,120.35L411.31,129.68L408.92,142.24" />
        <path d="M200.47,-175.45L211.05,-177.16L217.53,-176.90" />
        <path d="M216.66,-175.02L220.89,-172.84L218.04,-160.27L217.98,-146.86" />
        <path d="M256.03,-96.71L253.41,-91.55L250.08,-79.43L245.30,-54.32L245.21,-42.30L246.75,-37.26L247.70,-36.37" />
        <path d="M248.26,-33.15L250.36,-40.14L266.38,-60.51L274.44,-69.08" />
        <path d="M252.81,-35.60L272.28,-63.93L287.88,-82.89L295.50,-90.98" />
      </g>
      <g id="f13" style="--index:13; opacity:0;" class="frame">
        <path d="M392.89,146.88L394.52,139.90" />
        <path d="M150.80,-15.38L150.59,-22.31L154.35,-35.37L164.71,-59.72L169.07,-68.18L176.14,-79.02" />
        <path d="M180.80,-77.78L176.61,-63.32L173.41,-47.04L172.38,-35.46L172.72,-24.37L173.74,-21.17L176.13,-18.47" />
        <path d="M283.10,-148.85L279.53,-144.58L276.36,-127.38L275.67,-119.50" />
        <path d="M281.19,-120.59L303.12,-129.12" />
      </g>
      <g id="f14" style="--index:14; opacity:0;" class="frame">
        <path d="M142.78,70.38L149.25,54.93" />
        <path d="M148.80,55.40L150.44,48.42L155.28,40.41L158.41,37.08" />
        <path d="M161.62,36.06L161.04,47.63L161.52,63.33L162.66,70.23" />
        <path d="M164.55,71.56L165.68,78.46L168.75,88.08L171.18,92.16" />
        <path d="M311.15,-183.91L306.61,-181.46L304.39,-178.16L302.40,-167.93" />
        <path d="M301.50,-166.97L305.29,-163.85L314.63,-160.90" />
      </g>
      <g id="f15" style="--index:15; opacity:0;" class="frame">
        <path d="M294.59,-0.16L301.56,3.54L310.59,12.12L319.82,24.30L324.89,34.89" />
        <path d="M324.69,-12.57L325.82,26.70" />
        <path d="M144.73,134.11L142.26,129.10L142.15,125.41L141.98,119.86L144.09,113.33" />
        <path d="M144.54,112.85L153.85,114.88L162.16,114.63" />
        <path d="M334.67,-155.51L336.07,-170.34L336.02,-171.73L335.07,-172.62" />
        <path d="M334.55,-174.45L339.97,-178.78L345.92,-180.81L353.29,-181.50" />
      </g>
      <g id="f16" style="--index:16; opacity:0;" class="frame">
        <path d="M267.61,-80.89L272.78,-77.81L277.75,-66.40L282.11,-60.07L286.11,-50.02L294.96,-32.72L301.58,-12.58" />
        <path d="M301.72,-99.03L304.98,-37.65L303.21,-20.03" />
        <path d="M166.14,139.00L162.10,142.83L161.23,144.70L160.03,150.75L160.15,154.90L163.09,160.36L166.38,162.11L168.23,162.05" />
        <path d="M351.40,-137.52L356.62,-133.06L359.08,-128.05L360.62,-123.01L365.64,-94.97L369.18,-84.91" />
        <path d="M355.54,-138.11L360.19,-137.33L365.90,-131.96L377.92,-116.61L386.44,-109.93" />
        <path d="M389.75,-107.72L389.75,-107.72" />
        <path d="M389.78,-106.80L389.75,-107.72L389.78,-106.80" />
        <path d="M389.79,-106.34L389.79,-106.34" />
        <path d="M389.79,-106.34L389.79,-106.34" />
        <path d="M394.98,-102.80L389.79,-106.34L389.83,-104.95L393.77,-97.21L396.65,-93.60" />
      </g>
      <g id="f17" style="--index:17; opacity:0;" class="frame">
        <path d="M243.34,-133.77L259.86,-122.72L262.79,-117.72L265.87,-107.64" />
        <path d="M279.55,-144.12L280.61,-139.53L279.09,-128.85L273.14,-111.56L271.94,-105.52" />
        <path d="M393.21,-24.62L398.37,-6.75L400.56,4.28L403.92,38.84" />
        <path d="M393.01,-31.09" />
        <path d="M389.56,-37.92L391.12,-32.42L407.22,-4.71L413.47,3.42L421.55,10.57" />
        <path d="M419.76,12.47L423.60,16.98L426.54,22.44L428.09,27.94L428.51,41.79" />
      </g>
      <g id="f18" style="--index:18; opacity:0;" class="frame">
        <path d="M237.32,-149.30L242.42,-149.00L248.49,-146.87" />
        <path d="M252.01,-167.78L252.23,-160.85L249.82,-148.76" />
        <path d="M229.30,-2.98L229.61,22.43L231.62,27.45" />
        <path d="M235.96,33.33L242.22,26.67L249.43,20.44L253.52,18.00" />
        <path d="M253.63,21.70L255.34,17.02L263.52,12.61" />
        <path d="M412.33,87.12L413.07,81.09L415.15,73.63" />
        <path d="M419.08,66.12L422.95,71.55L428.87,83.85L431.60,97.63" />
      </g>
      <g id="f19" style="--index:19; opacity:0;" class="frame">
        <path d="M198.64,-174.93L202.23,-178.28L208.19,-179.85L208.28,-177.08L210.34,-170.21" />
        <path d="M254.87,-89.28L253.69,-82.31L254.10,-68.92L255.22,-62.48" />
        <path d="M256.54,-80.09L254.09,-69.38L252.69,-54.55L253.30,-34.69L254.78,-31.50" />
        <path d="M259.62,-39.50L261.75,-45.58L270.06,-61.08L273.60,-66.28L281.21,-74.37" />
        <path d="M271.99,-58.37L273.70,-63.04L279.48,-70.62L289.34,-80.62" />
        <path d="M403.18,120.68L407.88,123.31L411.14,124.14L416.69,123.97" />
        <path d="M418.10,124.85L416.44,130.91L411.69,142.15L401.93,155.39" />
      </g>
      <g id="f20" style="--index:20; opacity:0;" class="frame">
        <path d="M160.21,-25.38L162.28,-33.30L168.33,-46.89L173.00,-60.44L179.94,-75.44L181.73,-77.34L179.47,-45.38L179.78,-19.97" />
        <path d="M164.15,-32.43L159.63,-29.06L157.42,-25.76L154.90,-17.36L154.64,-10.88" />
        <path d="M278.55,-146.40L276.99,-137.11L277.27,-127.87L277.87,-123.26L279.31,-121.46" />
        <path d="M278.26,-125.59L277.05,-120.00L277.16,-116.31L277.69,-114.01L279.13,-112.21" />
        <path d="M280.48,-113.64L289.04,-120.83L304.03,-129.61" />
        <path d="M298.64,-124.36L302.70,-127.72L310.42,-132.12L317.28,-134.64L321.88,-135.24" />
        <path d="M385.22,153.13L390.20,149.74L393.26,144.10" />
        <path d="M393.44,134.85L393.64,141.31L392.82,144.58" />
      </g>
    </g>
    <g id="t2" transform="translate(-99.55 26.48)" class="thread">
      <g id="f0" style="--index:0; opacity:1;" class="frame">
        <path d="M-18.74,-270.43" />
        <path d="M-30.13,-273.95L-32.72,-270.05L-32.41,-265.96L-29.93,-260.39L-26.79,-256.92L-24.27,-256.29L-19.77,-256.63L-14.38,-261.56L-9.83,-272.20L-9.58,-274.27L-11.02,-277.04L-17.34,-279.04L-27.51,-277.44L-31.80,-274.24L-33.25,-271.66L-33.10,-269.61" />
        <path d="M-24.07,-264.53L-24.07,-264.53" />
        <path d="M-23.69,-264.97L-24.07,-264.53L-23.69,-264.97" />
        <path d="M-23.34,-265.82L-23.69,-264.97L-23.34,-265.82" />
        <path d="M-22.60,-266.93L-23.34,-265.82L-22.60,-266.93" />
        <path d="M-21.99,-267.49L-22.60,-266.93L-21.99,-267.49" />
        <path d="M-19.91,-269.38L-21.42,-267.61" />
        <path d="M-23.45,-263.38L-24.85,-267.74L-23.67,-269.75L-22.28,-269.91L-21.91,-266.67L-23.45,-263.38" />
        <path d="M-28.25,-260.54L-29.31,-261.59L-29.68,-264.84L-28.66,-268.24L-24.76,-271.04L-22.44,-271.30L-20.94,-270.54L-19.02,-266.06L-20.81,-261.16L-23.27,-258.06L-26.41,-256.76L-27.39,-257.12L-28.25,-260.54" />
        <path d="M-26.37,-260.52L-27.71,-259.90L-28.33,-261.24L-26.65,-267.06L-23.72,-270.22L-20.94,-270.54L-19.80,-268.79L-19.48,-266.01L-21.27,-261.10L-23.73,-258.00L-24.66,-257.90L-25.59,-257.79L-26.37,-260.52" />
        <path d="M-23.39,-263.21L-25.44,-260.63L-26.37,-260.52L-25.92,-264.80L-22.28,-269.91L-19.96,-270.18L-19.38,-265.08L-21.52,-259.20L-22.40,-258.63L-22.20,-261.00" />
      </g>
      <g id="f1" style="--index:1; opacity:0;" class="frame">
        <path d="M11.65,-249.23" />
        <path d="M-3.14,-245.22L-2.91,-240.61L-1.50,-238.25L0.67,-236.77L6.52,-235.56L14.27,-236.56L16.60,-238.38L19.73,-246.03L20.99,-251.06L20.97,-256.82L19.14,-259.16L12.88,-260.33L1.86,-259.08L-0.09,-257.70L-3.43,-252.92L-3.14,-245.22" />
        <path d="M3.15,-253.01L-0.85,-251.47L-3.03,-247.60L-3.14,-245.22L-1.34,-241.56" />
        <path d="M4.04,-240.99L2.65,-240.83L2.03,-242.17L1.80,-248.25L4.16,-252.27L6.89,-253.06L9.42,-251.47L10.77,-247.86L10.75,-239.88L9.62,-237.40L6.89,-236.62L4.77,-238.72L4.04,-240.99" />
        <path d="M7.37,-248.88L7.49,-243.73L5.84,-241.67L4.04,-240.99L3.82,-247.07L4.89,-250.01L7.87,-252.70L9.78,-252.45L10.97,-250.24L11.39,-246.53L10.02,-242.14L7.45,-239.97L5.59,-239.76L4.04,-240.99" />
      </g>
      <g id="f2" style="--index:2; opacity:0;" class="frame">
        <path d="M43.74,-167.97" />
        <path d="M33.54,-172.16L32.62,-167.98L35.38,-158.72L39.65,-151.22L46.88,-142.71L51.51,-141.41L55.19,-141.69L55.67,-146.26L54.33,-158.50L46.64,-173.15L39.19,-179.17L37.20,-178.20L35.43,-169.01L35.83,-163.69L38.06,-161.39" />
        <path d="M34.27,-178.80L31.72,-174.49L32.25,-172.89" />
        <path d="M47.89,-149.26L48.67,-146.53L46.60,-148.17L40.38,-161.55L38.35,-166.95L38.39,-170.72L39.78,-170.87L41.33,-169.64L45.99,-161.72L49.07,-151.27L49.33,-148.95L48.46,-148.38L47.89,-149.26" />
        <path d="M43.53,-161.95L43.37,-160.01L47.89,-149.26L45.20,-152.24L39.29,-162.83L37.73,-168.29L37.46,-170.61L38.39,-170.72L41.65,-166.86L43.53,-161.95" />
        <path d="M43.77,-164.76L45.53,-145.23L42.07,-163.15L41.54,-167.79L42.41,-168.36" />
      </g>
      <g id="f3" style="--index:3; opacity:0;" class="frame">
        <path d="M68.61,-41.13" />
        <path d="M53.74,-46.50L50.72,-42.98L50.74,-37.22L52.25,-33.63L60.14,-27.23L68.51,-25.39L74.21,-26.23L77.67,-29.38L80.71,-38.25L80.68,-44.01L78.74,-47.98L74.81,-50.98L60.48,-49.89L56.10,-47.92L54.18,-46.12L53.23,-42.35L54.52,-36.27" />
        <path d="M66.92,-38.05L67.70,-33.64L66.73,-29.78L64.32,-26.21L61.54,-25.89L59.62,-30.37L59.19,-34.08L59.91,-36.04L60.67,-37.54L62.89,-38.73L65.67,-39.05L66.92,-38.05" />
        <path d="M63.77,-35.07L67.22,-37.82L69.71,-32.47L69.51,-30.09L68.28,-28.54L65.39,-29.15L64.20,-31.36L63.35,-38.78L65.65,-43.27L69.36,-43.70L70.55,-41.49L70.98,-37.78L69.62,-29.17L68.80,-28.13" />
        <path d="M68.17,-36.16L66.49,-40.08L66.85,-41.06L67.77,-41.17L68.34,-40.29L68.17,-36.16" />
        <path d="M68.41,-35.60L68.17,-36.16L65.59,-31.52L62.40,-30.69L61.14,-37.59L62.78,-39.66L63.71,-39.76L64.28,-38.89L65.68,-34.82" />
      </g>
      <g id="f4" style="--index:4; opacity:0;" class="frame">
        <path d="M65.28,18.75" />
        <path d="M54.12,26.08L55.43,30.34L59.33,32.93L66.73,32.78L75.87,28.38L78.58,26.12L80.16,19.83L79.63,12.87L77.69,8.90L73.79,6.31L70.86,5.71L65.13,6.15L55.96,10.13L52.94,13.65L51.64,18.28L51.98,22.78L54.12,26.08" />
        <path d="M53.79,14.00L52.87,18.19L54.12,26.08L56.54,28.61L61.13,29.50" />
        <path d="M66.96,16.65L68.14,23.60L67.64,27.42L66.92,29.38L65.12,30.05L62.95,27.48L62.62,20.48L65.96,16.81L66.96,16.65" />
        <path d="M70.07,15.87L70.92,23.28L68.73,28.70L66.10,30.41L63.27,30.27L62.13,28.52L60.41,21.67L61.27,16.88L63.89,15.17L66.26,15.36L66.96,16.65L69.15,15.97L69.62,20.15L67.68,23.66L66.75,23.76" />
        <path d="M69.15,15.97L69.93,18.70L68.25,24.53L65.94,29.02L61.52,31.41L59.92,29.71L59.33,24.61L61.48,18.73L65.74,14.95L68.06,14.69L69.15,15.97" />
        <path d="M69.15,15.97L69.15,15.97" />
        <path d="M66.49,21.44L67.24,15.72L69.15,15.97L70.19,21.02L68.51,26.85L65.59,30.00L63.63,29.29L62.26,21.46L63.89,15.17L66.25,11.14L68.97,10.36L70.01,11.18L71.48,19.93L71.03,24.21L69.55,27.67" />
      </g>
      <g id="f5" style="--index:5; opacity:0;" class="frame">
        <path d="M37.29,44.55" />
        <path d="M26.78,37.86L23.31,41.00L22.74,44.34L23.45,53.75L25.99,60.14L29.07,62.79L39.75,62.40L45.67,59.07L49.11,55.52L50.09,46.80L49.47,38.61L47.06,33.85L44.48,32.40L37.49,32.52L31.16,35.88L27.75,39.84L25.00,47.05L25.16,49.09L26.57,51.46" />
        <path d="M28.26,55.61L27.17,51.31L27.72,47.95L30.95,43.36L32.70,42.22L36.41,41.79L37.60,44.01L38.45,51.42L37.07,55.81L35.48,58.34L31.88,59.69L29.35,58.10L28.26,55.61" />
        <path d="M26.97,49.24L27.15,47.08L28.69,44.09L30.79,41.97L37.28,41.22L38.89,42.92L40.04,48.89L39.59,53.17L37.13,56.27L34.04,58.03L29.82,58.05L28.27,56.82L26.61,54.66L26.29,51.88L26.97,49.24" />
        <path d="M35.35,48.96L34.60,54.68L33.36,56.23L29.71,57.12L28.26,55.61L27.11,50.84L27.72,47.95" />
      </g>
      <g id="f6" style="--index:6; opacity:0;" class="frame">
        <path d="M19.68,43.63" />
        <path d="M8.10,36.58L12.37,32.80L19.52,29.64L21.84,29.37L23.85,30.55L27.37,36.72L28.60,47.38L27.07,54.60L24.97,56.72L22.35,58.43L15.86,59.18L11.06,58.32L4.97,54.32L3.77,52.10L3.30,47.93L5.28,40.66L8.10,36.58" />
        <path d="M8.10,36.58L8.10,36.58" />
        <path d="M9.07,35.77L10.26,34.92L19.02,33.45L21.96,34.52L24.65,37.50L25.55,45.39L22.64,52.76L19.71,55.92L11.83,56.82L9.35,55.69L6.71,53.18L4.95,50.09L4.51,42.16L7.23,37.15L9.07,35.77" />
        <path d="M7.08,44.02L6.57,39.57L8.10,36.58L12.94,33.68L16.23,33.77L18.82,35.82L20.69,39.84L21.89,46.27L20.98,50.60L19.80,52.62L14.56,56.04L8.01,56.32L4.97,54.32L3.87,48.81L4.94,45.87L7.08,44.02" />
        <path d="M8.88,50.14L8.20,49.72L7.08,44.02L12.86,41.20L23.52,39.98L26.51,41.52L28.17,43.68L28.40,49.76L25.58,53.84L22.08,56.11L17.09,57.63L14.72,57.43L12.24,56.30L8.88,50.14" />
        <path d="M10.17,41.71L13.88,37.80L17.94,36.39L23.10,36.27L28.42,41.77L29.83,45.83L30.25,49.54L29.54,51.50L26.56,54.19L23.01,56.01L14.72,57.43L10.85,56.46L6.25,53.23L5.31,49.11L5.92,46.22L10.17,41.71" />
        <path d="M13.46,50.53L8.88,50.14L8.59,44.98L10.17,41.71L16.71,37.94L24.95,36.06L27.89,37.13L29.14,39.81L29.56,43.52L27.26,48.01L20.94,54.37L16.11,57.27L11.88,57.28" />
      </g>
      <g id="f7" style="--index:7; opacity:0;" class="frame">
        <path d="M7.71,20.29" />
        <path d="M-3.23,13.89L-5.15,18.46L-4.71,24.19L-1.25,26.39L2.84,26.08L6.00,18.85L6.47,14.28L5.56,13.12L2.64,12.52L-0.64,12.76L-3.23,13.89" />
        <path d="M-6.28,19.78L-5.94,24.28L-3.18,28.19L3.15,30.18L7.21,29.46L10.36,27.57L12.63,24.93L13.68,17.03L12.90,12.15L11.08,9.82L8.94,8.75L2.39,9.24L-1.55,11.60L-5.36,15.59L-6.28,19.78" />
        <path d="M-6.05,15.48L-6.41,18.14L-5.66,22.61L-2.61,24.85L1.49,24.54L3.41,22.75L4.80,19.35L5.78,15.98L5.44,11.48L4.50,9.91L2.36,8.83L-1.33,9.11L-4.82,11.85L-6.05,15.48" />
        <path d="M-5.92,18.41L-5.40,20.53L-3.17,22.83L1.05,24.16L4.29,23.50L5.97,18.44L5.00,11.10L2.86,10.03L0.40,10.22L-2.31,12.48L-5.92,18.41" />
        <path d="M3.31,25.09L7.32,19.98L10.03,12.37L9.85,9.91L8.50,8.37L6.39,7.71L2.71,7.98L-0.76,11.13L-2.78,17.04L-2.03,21.51L1.08,24.57L3.31,25.09" />
        <path d="M-6.13,16.37L-6.07,22.64L-3.80,25.35L0.79,26.24L5.61,24.64L7.48,16.68L7.32,14.63L5.97,13.09L1.76,11.76L-1.11,11.98L-4.29,13.45L-6.13,16.37" />
        <path d="M-3.56,12.16L-6.05,15.48L-6.78,18.58L-5.53,24.25L-3.30,26.55L-0.34,27.56L3.34,27.28L6.40,24.17" />
        <path d="M-4.17,25.77L-7.24,25.66L-8.46,14.99L-6.97,11.54L1.37,10.58L6.63,11.39L9.68,13.39L10.62,17.51L9.24,21.89L6.06,26.95L3.85,28.14L0.60,28.51L-2.34,27.44L-4.17,25.77" />
        <path d="M-3.94,25.75L-5.54,24.05L-6.89,20.45L-6.85,16.69L-3.62,12.09L-0.64,9.40L3.26,6.61L6.04,6.29L8.11,7.93L9.78,14.31L7.80,21.59L4.46,25.26L2.66,25.93L-2.44,26.52L-3.94,25.75" />
        <path d="M-6.58,23.23L-8.19,17.31L-4.10,7.92L4.71,6.91L9.56,8.23L11.32,11.32L11.90,16.42L9.97,24.16L8.43,27.15L3.96,29.07L-1.25,28.73L-4.76,26.78L-6.58,23.23" />
        <path d="M-5.54,24.05L-6.58,23.23L-6.84,20.91L-2.18,12.40L0.69,8.78L2.44,7.64L4.76,7.37L10.96,12.30L12.15,14.51L12.64,22.91L11.27,27.29L7.47,31.02L1.03,32.22L-1.96,30.69L-4.08,28.58L-5.54,24.05" />
        <path d="M1.75,11.16L6.88,9.48L8.73,9.27L9.77,10.09L10.72,18.43L9.40,23.28L6.22,28.34L4.47,29.48L-2.02,30.22L-9.09,25.87L-9.83,19.38L-7.99,14.94L-5.12,11.32L-1.93,10.49L1.75,11.16" />
        <path d="M-4.23,14.98L-3.52,13.02L-1.77,11.88L1.75,11.16L3.85,11.71L6.43,13.76L9.74,18.08L10.17,21.78L8.54,28.08L4.33,32.32L0.67,33.20L-3.14,32.70L-5.10,31.99L-8.83,28.19L-9.36,23.55L-7.87,20.09L-4.23,14.98" />
        <path d="M-4.23,14.98L-4.23,14.98" />
        <path d="M-1.77,11.88L2.60,9.03L6.31,8.61L11.07,13.23L12.88,16.78L13.73,24.19L13.43,25.64L10.50,28.79L5.56,30.77L0.92,31.30L-4.44,29.56L-6.67,26.53L-8.13,22.00L-7.73,17.26L-5.27,14.16L-1.77,11.88" />
        <path d="M-1.77,11.88L-1.77,11.88" />
        <path d="M-5.44,24.13L-5.86,21.27L-4.59,15.96L-1.77,11.88L0.85,10.17L5.90,9.12L8.73,9.27L11.83,11.73L12.99,17.70L11.50,21.16L8.17,24.83L1.58,28.87L-3.05,29.40L-4.49,29.10L-5.63,27.35L-5.44,24.13" />
        <path d="M-1.62,25.48L-3.94,25.75L-5.44,24.13L-3.40,18.17L1.28,13.88L6.38,13.30L8.76,17.72L8.06,23.90L6.11,27.41L2.67,30.16" />
      </g>
      <g id="f8" style="--index:8; opacity:0;" class="frame">
        <path d="M-49.52,-119.09" />
        <path d="M-55.37,-134.16L-56.39,-131.20L-55.80,-123.42L-52.88,-117.47L-51.12,-115.96L-48.66,-116.14L-47.97,-117.84L-48.71,-127.66L-51.13,-132.42L-53.30,-133.90L-55.37,-134.16" />
        <path d="M-55.37,-134.16L-55.37,-134.16" />
        <path d="M-55.18,-133.45L-56.59,-145.35L-55.45,-150.85L-54.96,-150.46" />
        <path d="M-59.41,-142.78L-59.46,-135.62L-52.19,-111.90L-50.56,-109.42L-49.13,-108.69L-41.59,-109.13L-40.52,-111.49L-40.53,-119.09L-42.45,-135.40L-44.17,-142.35L-46.50,-146.99L-49.56,-150.20L-53.35,-151.99L-56.44,-151.62L-57.99,-149.65L-59.05,-147.29L-58.22,-140.24L-56.48,-136.87L-54.56,-135.76" />
      </g>
      <g id="f9" style="--index:9; opacity:0;" class="frame">
        <path d="M-87.71,-209.56L-86.08,-205.39L-81.66,-199.37L-78.95,-192.41L-74.13,-186.09L-70.58,-183.98L-68.06,-184.30L-66.05,-188.58L-66.56,-198.37L-68.82,-204.66L-72.84,-213.28L-83.93,-228.67L-86.81,-228.30L-88.19,-224.84L-85.33,-210.96L-81.77,-205.93" />
        <path d="M-89.47,-218.59L-90.87,-214.16L-88.98,-212.14L-89.25,-209.95" />
      </g>
      <g id="f10" style="--index:10; opacity:0;" class="frame">
        <path d="M-91.53,-247.38" />
        <path d="M-101.81,-240.75L-101.10,-238.13L-96.26,-233.97L-94.56,-233.27L-89.24,-233.68L-84.61,-237.73L-80.54,-243.80L-79.62,-247.99L-80.59,-255.32L-82.79,-257.21L-89.02,-257.98L-95.98,-257.45L-97.55,-256.51L-99.88,-254.69L-103.20,-249.50L-103.23,-244.55L-101.81,-240.75" />
        <path d="M-102.35,-243.80L-101.81,-240.75L-100.34,-239.01" />
        <path d="M-87.49,-250.66L-86.12,-247.77L-86.81,-242.33L-89.04,-238.49L-91.74,-238.62L-93.63,-243.31L-93.97,-249.97L-92.13,-253.32L-89.05,-253.68L-87.49,-250.66" />
        <path d="M-91.07,-248.08L-87.49,-250.66L-87.26,-249.87L-88.65,-238.98L-92.10,-234.11L-93.08,-234.88L-93.84,-237.47L-94.28,-245.02L-93.53,-250.02L-91.82,-250.67L-89.46,-242.01" />
      </g>
      <g id="f11" style="--index:11; opacity:0;" class="frame">
        <path d="M-120.83,-267.14" />
        <path d="M-132.54,-267.45L-134.31,-263.61L-133.65,-260.37L-128.75,-255.39L-123.18,-252.51L-118.27,-252.89L-113.13,-255.74L-108.87,-264.71L-108.80,-274.59L-111.15,-278.53L-116.22,-280.21L-120.72,-279.87L-126.23,-276.57L-129.23,-272.64L-133.46,-263.26L-133.68,-260.78" />
        <path d="M-116.95,-262.90L-119.67,-267.05L-119.88,-268.81L-117.60,-272.21L-116.28,-272.36L-115.47,-269.33L-116.95,-262.90" />
        <path d="M-120.01,-258.52L-123.92,-257.61L-125.40,-258.77L-126.65,-261.75L-126.99,-268.42L-126.31,-270.28L-122.76,-274.28L-118.41,-275.24L-116.54,-274.57L-115.53,-269.77L-117.34,-262.41L-120.01,-258.52" />
        <path d="M-116.95,-262.90L-117.62,-261.03L-121.23,-257.48L-123.20,-259.03L-123.87,-264.76L-121.91,-270.80L-120.01,-273.71L-117.42,-274.46L-116.02,-270.16L-117.39,-262.85" />
      </g>
      <g id="f12" style="--index:12; opacity:0;" class="frame">
        <path d="M-150.98,-243.72" />
        <path d="M-162.10,-250.87L-164.96,-249.77L-166.98,-243.85L-167.27,-236.83L-164.60,-234.15L-159.91,-232.04L-154.09,-231.24L-149.21,-232.02L-145.02,-236.46L-143.97,-239.01L-143.18,-244.83L-143.58,-250.15L-147.13,-253.58L-152.64,-255.64L-157.14,-255.30L-162.10,-250.87" />
        <path d="M-160.96,-251.30L-162.53,-250.36L-164.74,-246.90" />
        <path d="M-154.10,-248.23L-153.86,-250.05L-152.65,-251.08L-150.00,-251.40L-148.86,-249.30L-149.04,-239.45L-151.65,-235.11L-154.35,-235.24L-156.19,-239.49L-155.60,-245.82L-154.10,-248.23" />
        <path d="M-154.10,-248.23L-154.10,-248.23" />
        <path d="M-150.04,-250.50L-148.57,-250.67L-147.04,-249.07L-145.98,-243.83L-146.44,-240.20L-147.79,-236.46L-150.90,-232.52L-155.75,-231.95L-158.16,-233.45L-162.03,-239.70L-163.35,-247.14L-159.91,-252.01L-157.31,-252.77L-152.41,-252.90L-150.04,-250.50" />
        <path d="M-151.73,-239.57L-154.07,-244.21L-154.10,-248.23L-150.34,-250.46L-149.25,-248.80L-148.52,-242.63L-149.24,-233.61" />
      </g>
      <g id="f13" style="--index:13; opacity:0;" class="frame">
        <path d="M-186.70,-91.08" />
        <path d="M-195.76,-96.38L-197.72,-89.65L-196.76,-76.96L-195.79,-74.97L-193.14,-72.70L-189.81,-72.13L-187.45,-73.55L-185.21,-76.60L-180.84,-95.04L-180.71,-98.75L-181.36,-107.35L-182.27,-108.51L-183.59,-109.65L-186.48,-109.84L-189.60,-107.55L-192.82,-101.13L-194.69,-93.17L-195.08,-87.38" />
        <path d="M-190.10,-110.36L-192.61,-105.15L-193.69,-99.21L-193.59,-90.73" />
        <path d="M-194.10,-79.95L-194.10,-79.95" />
        <path d="M-194.10,-79.95L-194.10,-79.95" />
        <path d="M-192.76,-91.28L-194.10,-79.95L-192.76,-91.28" />
        <path d="M-192.76,-91.28L-192.76,-91.28" />
        <path d="M-189.16,-102.43L-187.45,-103.08L-186.61,-96.03L-188.01,-85.14L-190.31,-78.16L-191.14,-77.62L-192.52,-85.50L-189.16,-102.43" />
        <path d="M-184.96,-107.24L-186.48,-91.13L-188.60,-78.81L-190.39,-75.02L-191.30,-78.94L-190.40,-90.22L-187.78,-102.14L-184.96,-107.24" />
        <path d="M-184.52,-97.17L-188.53,-81.95L-191.64,-78.00L-191.98,-84.67L-188.02,-100.33L-185.01,-105.15L-184.15,-101.68L-184.52,-97.17" />
        <path d="M-191.54,-99.91L-192.76,-91.28L-191.33,-98.15L-188.15,-105.23L-185.48,-109.12L-184.96,-107.24L-183.61,-108.45L-182.81,-105.41L-184.52,-97.17L-183.84,-91.44" />
      </g>
      <g id="f14" style="--index:14; opacity:0;" class="frame">
        <path d="M-198.30,5.41" />
        <path d="M-212.45,4.08L-211.49,16.77L-210.52,18.75L-206.11,22.53L-200.76,22.54L-198.02,20.69L-192.76,14.11L-191.55,8.26L-192.80,-2.76L-193.71,-3.92L-198.84,-6.42L-202.52,-6.14L-204.44,-4.35L-206.59,-0.07L-207.44,4.94" />
        <path d="M-207.75,0.84" />
        <path d="M-209.14,-1.11" />
        <path d="M-200.53,18.23L-202.09,18.86L-203.13,17.65L-204.79,11.14L-205.29,3.15L-202.88,-2.94L-201.27,-4.47L-199.07,-4.73L-196.14,1.18L-194.73,13.08L-195.74,15.88L-197.35,17.41L-200.53,18.23" />
        <path d="M-199.48,6.94L-199.37,15.41L-200.53,18.23L-201.70,18.37L-204.11,16.87L-207.05,10.96L-207.33,4.74L-204.38,-0.53L-201.01,-2.27L-200.03,-1.49L-199.48,6.94" />
        <path d="M-199.79,4.29L-200.18,12.38L-202.07,15.29L-205.31,14.33L-207.80,8.37L-208.42,3.08L-206.30,-1.64L-203.71,-2.39L-202.18,-0.79L-201.24,7.14L-202.04,11.71L-204.09,13.29L-205.02,12.95L-206.27,9.97L-206.89,4.68L-205.05,1.34" />
      </g>
      <g id="f15" style="--index:15; opacity:0;" class="frame">
        <path d="M-180.61,48.45" />
        <path d="M-182.75,42.99L-186.69,45.35L-187.42,46.64L-187.99,49.98L-187.49,56.52L-185.17,60.05L-180.42,62.99L-176.70,63.12L-175.13,62.18L-170.97,57.33L-166.70,48.37L-167.29,40.59L-168.61,39.46L-175.22,39.13L-180.42,41.17L-183.42,45.10L-185.09,50.17" />
        <path d="M-171.24,58.12L-172.31,59.14L-174.07,59.35L-175.99,58.24L-179.08,51.00L-179.55,47.04L-178.59,43.80L-174.60,39.75L-172.34,39.93L-169.93,41.43L-168.24,44.36L-166.58,50.87L-166.27,53.51L-167.33,55.87L-168.94,57.40L-171.24,58.12" />
        <path d="M-171.64,49.68L-170.70,57.61L-171.97,58.21L-174.28,57.59L-177.11,52.56L-177.52,49.03L-176.46,46.67" />
      </g>
      <g id="f16" style="--index:16; opacity:0;" class="frame">
        <path d="M-164.41,50.96" />
        <path d="M-177.26,55.75L-176.86,61.07L-175.48,63.02L-172.08,64.41L-168.39,64.14L-161.68,60.34L-156.86,53.39L-157.82,46.05L-159.27,43.28L-161.06,41.35L-164.46,39.97L-168.58,39.87L-175.32,43.26L-180.27,48.57L-181.28,51.53L-181.04,54.80L-178.27,58.71" />
        <path d="M-169.93,47.25L-168.19,47.36L-167.46,49.63L-166.61,57.05L-167.58,60.91L-168.51,61.02L-169.59,59.74L-170.48,56.08L-169.93,47.25" />
        <path d="M-170.87,48.61L-168.97,44.64L-166.81,42.98L-164.85,43.69L-164.18,45.50L-163.54,51.06L-164.44,59.62L-167.42,62.31L-168.92,61.54L-170.27,57.93L-170.87,48.61" />
        <path d="M-170.38,46.68L-168.56,44.12L-166.71,43.91L-164.88,51.68L-165.53,58.33L-166.65,60.81L-169.38,61.59L-172.53,58.66L-173.85,51.30L-173.65,48.93L-172.42,47.38L-170.38,46.68" />
        <path d="M-171.51,55.26L-172.05,50.62L-170.38,46.68L-168.76,46.49L-166.75,47.67L-165.22,56.89L-165.83,59.78L-170.00,60.25L-171.82,56.70L-172.08,54.39" />
      </g>
      <g id="f17" style="--index:17; opacity:0;" class="frame">
        <path d="M-140.00,41.00" />
        <path d="M-148.53,38.35L-151.15,41.84L-150.94,50.06L-146.94,53.87L-143.17,54.82L-137.85,54.42L-133.88,52.47L-132.40,50.30L-130.30,39.85L-130.83,32.90L-133.00,31.41L-138.00,30.56L-143.73,30.99L-150.26,37.25L-152.78,41.96L-152.70,48.54" />
        <path d="M-142.72,52.43L-144.36,54.50L-147.25,53.89L-149.03,46.58L-148.22,41.32L-145.97,36.37L-144.33,34.30L-140.21,33.36L-138.55,35.52L-137.72,38.71L-136.97,45.20L-137.32,50.41L-139.83,53.04L-141.69,53.25L-142.72,52.43" />
        <path d="M-140.84,44.23L-140.72,49.39L-140.84,44.23" />
        <path d="M-143.44,37.96L-141.29,48.51L-142.72,52.43L-144.43,49.81L-145.85,41.52L-145.81,37.76L-144.63,35.74L-143.29,35.12L-142.26,35.94L-140.84,44.23L-140.28,40.88L-138.64,38.82L-137.28,46.64" />
      </g>
      <g id="f18" style="--index:18; opacity:0;" class="frame">
        <path d="M-97.18,-103.12" />
        <path d="M-103.28,-114.48L-109.12,-104.58L-110.32,-98.72L-110.04,-95.04L-107.34,-91.95L-105.64,-91.26L-99.94,-92.10L-94.58,-97.44L-92.78,-100.87L-88.55,-115.60L-87.81,-122.24L-91.18,-123.22L-94.36,-121.74L-99.19,-114.79L-101.97,-108.00" />
        <path d="M-98.36,-120.21L-101.45,-117.50L-103.53,-112.41" />
        <path d="M-97.74,-96.19L-99.66,-92.45L-101.51,-92.24L-102.25,-98.73L-101.25,-106.36L-97.32,-117.14L-93.41,-119.94L-92.77,-114.37L-94.55,-105.25L-97.74,-96.19" />
        <path d="M-93.30,-113.53L-97.00,-97.92L-99.41,-94.36L-100.85,-94.66L-102.04,-96.88L-102.78,-103.37L-101.92,-108.16L-98.14,-116.11L-92.23,-121.95L-91.45,-119.22L-93.30,-113.53" />
        <path d="M-99.55,-107.96L-96.43,-113.49L-93.50,-116.64L-93.30,-113.53L-95.43,-108.90L-96.72,-107.82L-99.55,-107.96" />
        <path d="M-99.55,-107.96L-99.55,-107.96" />
        <path d="M-99.57,-114.30L-96.62,-123.33L-93.79,-127.41L-94.35,-124.06L-99.57,-114.30" />
        <path d="M-99.73,-113.58L-101.37,-111.51L-99.73,-113.58" />
        <path d="M-99.73,-113.58L-99.73,-113.58" />
        <path d="M-92.63,-117.21L-92.63,-117.21" />
        <path d="M-92.68,-117.67L-92.68,-117.67" />
        <path d="M-92.43,-119.58L-92.68,-117.67L-92.43,-119.58" />
        <path d="M-92.43,-119.58L-92.43,-119.58" />
        <path d="M-92.48,-120.04L-92.48,-120.04" />
        <path d="M-90.91,-126.80L-90.91,-126.80" />
        <path d="M-99.90,-102.76L-100.08,-112.60L-99.37,-114.56L-95.21,-119.26L-94.40,-124.52L-93.01,-124.68L-92.48,-120.04L-90.91,-126.80L-91.66,-121.08" />
      </g>
      <g id="f19" style="--index:19; opacity:0;" class="frame">
        <path d="M-71.38,-196.98" />
        <path d="M-72.37,-206.55L-76.43,-205.83L-77.57,-204.51L-83.28,-192.97L-84.80,-185.85L-84.43,-180.94L-82.58,-178.20L-80.47,-177.54L-76.47,-179.07L-71.46,-183.57L-60.53,-207.86L-61.03,-214.41L-62.82,-216.33L-64.46,-216.20L-75.97,-199.69L-75.81,-197.65L-73.71,-196.98" />
        <path d="M-71.90,-205.76L-71.07,-211.18L-73.44,-209.76L-79.27,-199.85L-79.56,-198.19L-77.92,-198.31" />
        <path d="M-71.70,-209.31L-71.77,-214.00L-71.00,-215.49L-69.25,-216.63L-68.93,-213.85L-72.15,-205.03" />
      </g>
      <g id="f20" style="--index:20; opacity:0;" class="frame">
        <path d="M-46.23,-244.66" />
        <path d="M-50.28,-246.50L-54.28,-244.96L-56.11,-241.94L-58.17,-236.44L-57.89,-232.75L-53.01,-228.18L-49.33,-228.46L-47.35,-229.43L-43.53,-233.43L-39.15,-240.76L-38.51,-243.27L-38.85,-247.77L-40.36,-251.37L-43.35,-252.79L-48.67,-252.38L-51.85,-250.91L-60.01,-244.53L-61.05,-241.98L-60.87,-239.52" />
        <path d="M-49.68,-234.37L-51.78,-232.25L-54.16,-232.45L-55.26,-237.96L-53.52,-243.32L-50.95,-245.50L-49.10,-245.71L-48.01,-244.42L-47.69,-241.64L-49.68,-234.37" />
        <path d="M-49.68,-234.37L-49.68,-234.37" />
        <path d="M-56.96,-240.58L-51.67,-243.54L-50.74,-243.64L-50.12,-242.30L-50.46,-237.10L-51.53,-234.16L-53.64,-232.04L-55.49,-231.83L-56.58,-233.11L-57.47,-236.77L-56.96,-240.58" />
        <path d="M-46.51,-243.66L-48.09,-236.90L-51.27,-231.84L-52.96,-230.24L-56.15,-229.40L-57.81,-231.56L-58.50,-237.59L-55.18,-245.48L-53.02,-247.14L-51.16,-247.35L-49.56,-245.66L-49.14,-241.95L-50.41,-236.64L-52.66,-231.68L-53.89,-230.13L-56.26,-230.33L-57.88,-236.25L-56.75,-238.73L-55.47,-239.81L-53.15,-240.08L-50.98,-237.51" />
      </g>
    </g>
    <g id="t3" transform="translate(-99.55 26.48)" class="thread">
      <g id="f0" style="--index:0; opacity:1;" class="frame">
        <path d="M7.71,20.29" />
        <path d="M-3.23,13.89L-5.15,18.46L-4.71,24.19L-1.25,26.39L2.84,26.08L6.00,18.85L6.47,14.28L5.56,13.12L2.64,12.52L-0.64,12.76L-3.23,13.89" />
        <path d="M-6.28,19.78L-5.94,24.28L-3.18,28.19L3.15,30.18L7.21,29.46L10.36,27.57L12.63,24.93L13.68,17.03L12.90,12.15L11.08,9.82L8.94,8.75L2.39,9.24L-1.55,11.60L-5.36,15.59L-6.28,19.78" />
        <path d="M-6.05,15.48L-6.41,18.14L-5.66,22.61L-2.61,24.85L1.49,24.54L3.41,22.75L4.80,19.35L5.78,15.98L5.44,11.48L4.50,9.91L2.36,8.83L-1.33,9.11L-4.82,11.85L-6.05,15.48" />
        <path d="M-5.92,18.41L-5.40,20.53L-3.17,22.83L1.05,24.16L4.29,23.50L5.97,18.44L5.00,11.10L2.86,10.03L0.40,10.22L-2.31,12.48L-5.92,18.41" />
        <path d="M3.31,25.09L7.32,19.98L10.03,12.37L9.85,9.91L8.50,8.37L6.39,7.71L2.71,7.98L-0.76,11.13L-2.78,17.04L-2.03,21.51L1.08,24.57L3.31,25.09" />
        <path d="M-6.13,16.37L-6.07,22.64L-3.80,25.35L0.79,26.24L5.61,24.64L7.48,16.68L7.32,14.63L5.97,13.09L1.76,11.76L-1.11,11.98L-4.29,13.45L-6.13,16.37" />
        <path d="M-3.56,12.16L-6.05,15.48L-6.78,18.58L-5.53,24.25L-3.30,26.55L-0.34,27.56L3.34,27.28L6.40,24.17" />
        <path d="M-4.17,25.77L-7.24,25.66L-8.46,14.99L-6.97,11.54L1.37,10.58L6.63,11.39L9.68,13.39L10.62,17.51L9.24,21.89L6.06,26.95L3.85,28.14L0.60,28.51L-2.34,27.44L-4.17,25.77" />
        <path d="M-3.94,25.75L-5.54,24.05L-6.89,20.45L-6.85,16.69L-3.62,12.09L-0.64,9.40L3.26,6.61L6.04,6.29L8.11,7.93L9.78,14.31L7.80,21.59L4.46,25.26L2.66,25.93L-2.44,26.52L-3.94,25.75" />
        <path d="M-6.58,23.23L-8.19,17.31L-4.10,7.92L4.71,6.91L9.56,8.23L11.32,11.32L11.90,16.42L9.97,24.16L8.43,27.15L3.96,29.07L-1.25,28.73L-4.76,26.78L-6.58,23.23" />
        <path d="M-5.54,24.05L-6.58,23.23L-6.84,20.91L-2.18,12.40L0.69,8.78L2.44,7.64L4.76,7.37L10.96,12.30L12.15,14.51L12.64,22.91L11.27,27.29L7.47,31.02L1.03,32.22L-1.96,30.69L-4.08,28.58L-5.54,24.05" />
        <path d="M1.75,11.16L6.88,9.48L8.73,9.27L9.77,10.09L10.72,18.43L9.40,23.28L6.22,28.34L4.47,29.48L-2.02,30.22L-9.09,25.87L-9.83,19.38L-7.99,14.94L-5.12,11.32L-1.93,10.49L1.75,11.16" />
        <path d="M-4.23,14.98L-3.52,13.02L-1.77,11.88L1.75,11.16L3.85,11.71L6.43,13.76L9.74,18.08L10.17,21.78L8.54,28.08L4.33,32.32L0.67,33.20L-3.14,32.70L-5.10,31.99L-8.83,28.19L-9.36,23.55L-7.87,20.09L-4.23,14.98" />
        <path d="M-4.23,14.98L-4.23,14.98" />
        <path d="M-1.77,11.88L2.60,9.03L6.31,8.61L11.07,13.23L12.88,16.78L13.73,24.19L13.43,25.64L10.50,28.79L5.56,30.77L0.92,31.30L-4.44,29.56L-6.67,26.53L-8.13,22.00L-7.73,17.26L-5.27,14.16L-1.77,11.88" />
        <path d="M-1.77,11.88L-1.77,11.88" />
        <path d="M-5.44,24.13L-5.86,21.27L-4.59,15.96L-1.77,11.88L0.85,10.17L5.90,9.12L8.73,9.27L11.83,11.73L12.99,17.70L11.50,21.16L8.17,24.83L1.58,28.87L-3.05,29.40L-4.49,29.10L-5.63,27.35L-5.44,24.13" />
        <path d="M-1.62,25.48L-3.94,25.75L-5.44,24.13L-3.40,18.17L1.28,13.88L6.38,13.30L8.76,17.72L8.06,23.90L6.11,27.41L2.67,30.16" />
      </g>
      <g id="f1" style="--index:1; opacity:0;" class="frame">
        <path d="M-49.52,-119.09" />
        <path d="M-55.37,-134.16L-56.39,-131.20L-55.80,-123.42L-52.88,-117.47L-51.12,-115.96L-48.66,-116.14L-47.97,-117.84L-48.71,-127.66L-51.13,-132.42L-53.30,-133.90L-55.37,-134.16" />
        <path d="M-55.37,-134.16L-55.37,-134.16" />
        <path d="M-55.18,-133.45L-56.59,-145.35L-55.45,-150.85L-54.96,-150.46" />
        <path d="M-59.41,-142.78L-59.46,-135.62L-52.19,-111.90L-50.56,-109.42L-49.13,-108.69L-41.59,-109.13L-40.52,-111.49L-40.53,-119.09L-42.45,-135.40L-44.17,-142.35L-46.50,-146.99L-49.56,-150.20L-53.35,-151.99L-56.44,-151.62L-57.99,-149.65L-59.05,-147.29L-58.22,-140.24L-56.48,-136.87L-54.56,-135.76" />
      </g>
      <g id="f2" style="--index:2; opacity:0;" class="frame">
        <path d="M-87.71,-209.56L-86.08,-205.39L-81.66,-199.37L-78.95,-192.41L-74.13,-186.09L-70.58,-183.98L-68.06,-184.30L-66.05,-188.58L-66.56,-198.37L-68.82,-204.66L-72.84,-213.28L-83.93,-228.67L-86.81,-228.30L-88.19,-224.84L-85.33,-210.96L-81.77,-205.93" />
        <path d="M-89.47,-218.59L-90.87,-214.16L-88.98,-212.14L-89.25,-209.95" />
      </g>
      <g id="f3" style="--index:3; opacity:0;" class="frame">
        <path d="M-91.53,-247.38" />
        <path d="M-101.81,-240.75L-101.10,-238.13L-96.26,-233.97L-94.56,-233.27L-89.24,-233.68L-84.61,-237.73L-80.54,-243.80L-79.62,-247.99L-80.59,-255.32L-82.79,-257.21L-89.02,-257.98L-95.98,-257.45L-97.55,-256.51L-99.88,-254.69L-103.20,-249.50L-103.23,-244.55L-101.81,-240.75" />
        <path d="M-102.35,-243.80L-101.81,-240.75L-100.34,-239.01" />
        <path d="M-87.49,-250.66L-86.12,-247.77L-86.81,-242.33L-89.04,-238.49L-91.74,-238.62L-93.63,-243.31L-93.97,-249.97L-92.13,-253.32L-89.05,-253.68L-87.49,-250.66" />
        <path d="M-91.07,-248.08L-87.49,-250.66L-87.26,-249.87L-88.65,-238.98L-92.10,-234.11L-93.08,-234.88L-93.84,-237.47L-94.28,-245.02L-93.53,-250.02L-91.82,-250.67L-89.46,-242.01" />
      </g>
      <g id="f4" style="--index:4; opacity:0;" class="frame">
        <path d="M-120.83,-267.14" />
        <path d="M-132.54,-267.45L-134.31,-263.61L-133.65,-260.37L-128.75,-255.39L-123.18,-252.51L-118.27,-252.89L-113.13,-255.74L-108.87,-264.71L-108.80,-274.59L-111.15,-278.53L-116.22,-280.21L-120.72,-279.87L-126.23,-276.57L-129.23,-272.64L-133.46,-263.26L-133.68,-260.78" />
        <path d="M-116.95,-262.90L-119.67,-267.05L-119.88,-268.81L-117.60,-272.21L-116.28,-272.36L-115.47,-269.33L-116.95,-262.90" />
        <path d="M-120.01,-258.52L-123.92,-257.61L-125.40,-258.77L-126.65,-261.75L-126.99,-268.42L-126.31,-270.28L-122.76,-274.28L-118.41,-275.24L-116.54,-274.57L-115.53,-269.77L-117.34,-262.41L-120.01,-258.52" />
        <path d="M-116.95,-262.90L-117.62,-261.03L-121.23,-257.48L-123.20,-259.03L-123.87,-264.76L-121.91,-270.80L-120.01,-273.71L-117.42,-274.46L-116.02,-270.16L-117.39,-262.85" />
      </g>
      <g id="f5" style="--index:5; opacity:0;" class="frame">
        <path d="M-150.98,-243.72" />
        <path d="M-162.10,-250.87L-164.96,-249.77L-166.98,-243.85L-167.27,-236.83L-164.60,-234.15L-159.91,-232.04L-154.09,-231.24L-149.21,-232.02L-145.02,-236.46L-143.97,-239.01L-143.18,-244.83L-143.58,-250.15L-147.13,-253.58L-152.64,-255.64L-157.14,-255.30L-162.10,-250.87" />
        <path d="M-160.96,-251.30L-162.53,-250.36L-164.74,-246.90" />
        <path d="M-154.10,-248.23L-153.86,-250.05L-152.65,-251.08L-150.00,-251.40L-148.86,-249.30L-149.04,-239.45L-151.65,-235.11L-154.35,-235.24L-156.19,-239.49L-155.60,-245.82L-154.10,-248.23" />
        <path d="M-154.10,-248.23L-154.10,-248.23" />
        <path d="M-150.04,-250.50L-148.57,-250.67L-147.04,-249.07L-145.98,-243.83L-146.44,-240.20L-147.79,-236.46L-150.90,-232.52L-155.75,-231.95L-158.16,-233.45L-162.03,-239.70L-163.35,-247.14L-159.91,-252.01L-157.31,-252.77L-152.41,-252.90L-150.04,-250.50" />
        <path d="M-151.73,-239.57L-154.07,-244.21L-154.10,-248.23L-150.34,-250.46L-149.25,-248.80L-148.52,-242.63L-149.24,-233.61" />
      </g>
      <g id="f6" style="--index:6; opacity:0;" class="frame">
        <path d="M-186.70,-91.08" />
        <path d="M-195.76,-96.38L-197.72,-89.65L-196.76,-76.96L-195.79,-74.97L-193.14,-72.70L-189.81,-72.13L-187.45,-73.55L-185.21,-76.60L-180.84,-95.04L-180.71,-98.75L-181.36,-107.35L-182.27,-108.51L-183.59,-109.65L-186.48,-109.84L-189.60,-107.55L-192.82,-101.13L-194.69,-93.17L-195.08,-87.38" />
        <path d="M-190.10,-110.36L-192.61,-105.15L-193.69,-99.21L-193.59,-90.73" />
        <path d="M-194.10,-79.95L-194.10,-79.95" />
        <path d="M-194.10,-79.95L-194.10,-79.95" />
        <path d="M-192.76,-91.28L-194.10,-79.95L-192.76,-91.28" />
        <path d="M-192.76,-91.28L-192.76,-91.28" />
        <path d="M-189.16,-102.43L-187.45,-103.08L-186.61,-96.03L-188.01,-85.14L-190.31,-78.16L-191.14,-77.62L-192.52,-85.50L-189.16,-102.43" />
        <path d="M-184.96,-107.24L-186.48,-91.13L-188.60,-78.81L-190.39,-75.02L-191.30,-78.94L-190.40,-90.22L-187.78,-102.14L-184.96,-107.24" />
        <path d="M-184.52,-97.17L-188.53,-81.95L-191.64,-78.00L-191.98,-84.67L-188.02,-100.33L-185.01,-105.15L-184.15,-101.68L-184.52,-97.17" />
        <path d="M-191.54,-99.91L-192.76,-91.28L-191.33,-98.15L-188.15,-105.23L-185.48,-109.12L-184.96,-107.24L-183.61,-108.45L-182.81,-105.41L-184.52,-97.17L-183.84,-91.44" />
      </g>
      <g id="f7" style="--index:7; opacity:0;" class="frame">
        <path d="M-198.30,5.41" />
        <path d="M-212.45,4.08L-211.49,16.77L-210.52,18.75L-206.11,22.53L-200.76,22.54L-198.02,20.69L-192.76,14.11L-191.55,8.26L-192.80,-2.76L-193.71,-3.92L-198.84,-6.42L-202.52,-6.14L-204.44,-4.35L-206.59,-0.07L-207.44,4.94" />
        <path d="M-207.75,0.84" />
        <path d="M-209.14,-1.11" />
        <path d="M-200.53,18.23L-202.09,18.86L-203.13,17.65L-204.79,11.14L-205.29,3.15L-202.88,-2.94L-201.27,-4.47L-199.07,-4.73L-196.14,1.18L-194.73,13.08L-195.74,15.88L-197.35,17.41L-200.53,18.23" />
        <path d="M-199.48,6.94L-199.37,15.41L-200.53,18.23L-201.70,18.37L-204.11,16.87L-207.05,10.96L-207.33,4.74L-204.38,-0.53L-201.01,-2.27L-200.03,-1.49L-199.48,6.94" />
        <path d="M-199.79,4.29L-200.18,12.38L-202.07,15.29L-205.31,14.33L-207.80,8.37L-208.42,3.08L-206.30,-1.64L-203.71,-2.39L-202.18,-0.79L-201.24,7.14L-202.04,11.71L-204.09,13.29L-205.02,12.95L-206.27,9.97L-206.89,4.68L-205.05,1.34" />
      </g>
      <g id="f8" style="--index:8; opacity:0;" class="frame">
        <path d="M-180.61,48.45" />
        <path d="M-182.75,42.99L-186.69,45.35L-187.42,46.64L-187.99,49.98L-187.49,56.52L-185.17,60.05L-180.42,62.99L-176.70,63.12L-175.13,62.18L-170.97,57.33L-166.70,48.37L-167.29,40.59L-168.61,39.46L-175.22,39.13L-180.42,41.17L-183.42,45.10L-185.09,50.17" />
        <path d="M-171.24,58.12L-172.31,59.14L-174.07,59.35L-175.99,58.24L-179.08,51.00L-179.55,47.04L-178.59,43.80L-174.60,39.75L-172.34,39.93L-169.93,41.43L-168.24,44.36L-166.58,50.87L-166.27,53.51L-167.33,55.87L-168.94,57.40L-171.24,58.12" />
        <path d="M-171.64,49.68L-170.70,57.61L-171.97,58.21L-174.28,57.59L-177.11,52.56L-177.52,49.03L-176.46,46.67" />
      </g>
      <g id="f9" style="--index:9; opacity:0;" class="frame">
        <path d="M-164.41,50.96" />
        <path d="M-177.26,55.75L-176.86,61.07L-175.48,63.02L-172.08,64.41L-168.39,64.14L-161.68,60.34L-156.86,53.39L-157.82,46.05L-159.27,43.28L-161.06,41.35L-164.46,39.97L-168.58,39.87L-175.32,43.26L-180.27,48.57L-181.28,51.53L-181.04,54.80L-178.27,58.71" />
        <path d="M-169.93,47.25L-168.19,47.36L-167.46,49.63L-166.61,57.05L-167.58,60.91L-168.51,61.02L-169.59,59.74L-170.48,56.08L-169.93,47.25" />
        <path d="M-170.87,48.61L-168.97,44.64L-166.81,42.98L-164.85,43.69L-164.18,45.50L-163.54,51.06L-164.44,59.62L-167.42,62.31L-168.92,61.54L-170.27,57.93L-170.87,48.61" />
        <path d="M-170.38,46.68L-168.56,44.12L-166.71,43.91L-164.88,51.68L-165.53,58.33L-166.65,60.81L-169.38,61.59L-172.53,58.66L-173.85,51.30L-173.65,48.93L-172.42,47.38L-170.38,46.68" />
        <path d="M-171.51,55.26L-172.05,50.62L-170.38,46.68L-168.76,46.49L-166.75,47.67L-165.22,56.89L-165.83,59.78L-170.00,60.25L-171.82,56.70L-172.08,54.39" />
      </g>
      <g id="f10" style="--index:10; opacity:0;" class="frame">
        <path d="M-140.00,41.00" />
        <path d="M-148.53,38.35L-151.15,41.84L-150.94,50.06L-146.94,53.87L-143.17,54.82L-137.85,54.42L-133.88,52.47L-132.40,50.30L-130.30,39.85L-130.83,32.90L-133.00,31.41L-138.00,30.56L-143.73,30.99L-150.26,37.25L-152.78,41.96L-152.70,48.54" />
        <path d="M-142.72,52.43L-144.36,54.50L-147.25,53.89L-149.03,46.58L-148.22,41.32L-145.97,36.37L-144.33,34.30L-140.21,33.36L-138.55,35.52L-137.72,38.71L-136.97,45.20L-137.32,50.41L-139.83,53.04L-141.69,53.25L-142.72,52.43" />
        <path d="M-140.84,44.23L-140.72,49.39L-140.84,44.23" />
        <path d="M-143.44,37.96L-141.29,48.51L-142.72,52.43L-144.43,49.81L-145.85,41.52L-145.81,37.76L-144.63,35.74L-143.29,35.12L-142.26,35.94L-140.84,44.23L-140.28,40.88L-138.64,38.82L-137.28,46.64" />
      </g>
      <g id="f11" style="--index:11; opacity:0;" class="frame">
        <path d="M-97.18,-103.12" />
        <path d="M-103.28,-114.48L-109.12,-104.58L-110.32,-98.72L-110.04,-95.04L-107.34,-91.95L-105.64,-91.26L-99.94,-92.10L-94.58,-97.44L-92.78,-100.87L-88.55,-115.60L-87.81,-122.24L-91.18,-123.22L-94.36,-121.74L-99.19,-114.79L-101.97,-108.00" />
        <path d="M-98.36,-120.21L-101.45,-117.50L-103.53,-112.41" />
        <path d="M-97.74,-96.19L-99.66,-92.45L-101.51,-92.24L-102.25,-98.73L-101.25,-106.36L-97.32,-117.14L-93.41,-119.94L-92.77,-114.37L-94.55,-105.25L-97.74,-96.19" />
        <path d="M-93.30,-113.53L-97.00,-97.92L-99.41,-94.36L-100.85,-94.66L-102.04,-96.88L-102.78,-103.37L-101.92,-108.16L-98.14,-116.11L-92.23,-121.95L-91.45,-119.22L-93.30,-113.53" />
        <path d="M-99.55,-107.96L-96.43,-113.49L-93.50,-116.64L-93.30,-113.53L-95.43,-108.90L-96.72,-107.82L-99.55,-107.96" />
        <path d="M-99.55,-107.96L-99.55,-107.96" />
        <path d="M-99.57,-114.30L-96.62,-123.33L-93.79,-127.41L-94.35,-124.06L-99.57,-114.30" />
        <path d="M-99.73,-113.58L-101.37,-111.51L-99.73,-113.58" />
        <path d="M-99.73,-113.58L-99.73,-113.58" />
        <path d="M-92.63,-117.21L-92.63,-117.21" />
        <path d="M-92.68,-117.67L-92.68,-117.67" />
        <path d="M-92.43,-119.58L-92.68,-117.67L-92.43,-119.58" />
        <path d="M-92.43,-119.58L-92.43,-119.58" />
        <path d="M-92.48,-120.04L-92.48,-120.04" />
        <path d="M-90.91,-126.80L-90.91,-126.80" />
        <path d="M-99.90,-102.76L-100.08,-112.60L-99.37,-114.56L-95.21,-119.26L-94.40,-124.52L-93.01,-124.68L-92.48,-120.04L-90.91,-126.80L-91.66,-121.08" />
      </g>
      <g id="f12" style="--index:12; opacity:0;" class="frame">
        <path d="M-71.38,-196.98" />
        <path d="M-72.37,-206.55L-76.43,-205.83L-77.57,-204.51L-83.28,-192.97L-84.80,-185.85L-84.43,-180.94L-82.58,-178.20L-80.47,-177.54L-76.47,-179.07L-71.46,-183.57L-60.53,-207.86L-61.03,-214.41L-62.82,-216.33L-64.46,-216.20L-75.97,-199.69L-75.81,-197.65L-73.71,-196.98" />
        <path d="M-71.90,-205.76L-71.07,-211.18L-73.44,-209.76L-79.27,-199.85L-79.56,-198.19L-77.92,-198.31" />
        <path d="M-71.70,-209.31L-71.77,-214.00L-71.00,-215.49L-69.25,-216.63L-68.93,-213.85L-72.15,-205.03" />
      </g>
      <g id="f13" style="--index:13; opacity:0;" class="frame">
        <path d="M-46.23,-244.66" />
        <path d="M-50.28,-246.50L-54.28,-244.96L-56.11,-241.94L-58.17,-236.44L-57.89,-232.75L-53.01,-228.18L-49.33,-228.46L-47.35,-229.43L-43.53,-233.43L-39.15,-240.76L-38.51,-243.27L-38.85,-247.77L-40.36,-251.37L-43.35,-252.79L-48.67,-252.38L-51.85,-250.91L-60.01,-244.53L-61.05,-241.98L-60.87,-239.52" />
        <path d="M-49.68,-234.37L-51.78,-232.25L-54.16,-232.45L-55.26,-237.96L-53.52,-243.32L-50.95,-245.50L-49.10,-245.71L-48.01,-244.42L-47.69,-241.64L-49.68,-234.37" />
        <path d="M-49.68,-234.37L-49.68,-234.37" />
        <path d="M-56.96,-240.58L-51.67,-243.54L-50.74,-243.64L-50.12,-242.30L-50.46,-237.10L-51.53,-234.16L-53.64,-232.04L-55.49,-231.83L-56.58,-233.11L-57.47,-236.77L-56.96,-240.58" />
        <path d="M-46.51,-243.66L-48.09,-236.90L-51.27,-231.84L-52.96,-230.24L-56.15,-229.40L-57.81,-231.56L-58.50,-237.59L-55.18,-245.48L-53.02,-247.14L-51.16,-247.35L-49.56,-245.66L-49.14,-241.95L-50.41,-236.64L-52.66,-231.68L-53.89,-230.13L-56.26,-230.33L-57.88,-236.25L-56.75,-238.73L-55.47,-239.81L-53.15,-240.08L-50.98,-237.51" />
      </g>
      <g id="f14" style="--index:14; opacity:0;" class="frame">
        <path d="M-18.74,-270.43" />
        <path d="M-30.13,-273.95L-32.72,-270.05L-32.41,-265.96L-29.93,-260.39L-26.79,-256.92L-24.27,-256.29L-19.77,-256.63L-14.38,-261.56L-9.83,-272.20L-9.58,-274.27L-11.02,-277.04L-17.34,-279.04L-27.51,-277.44L-31.80,-274.24L-33.25,-271.66L-33.10,-269.61" />
        <path d="M-24.07,-264.53L-24.07,-264.53" />
        <path d="M-23.69,-264.97L-24.07,-264.53L-23.69,-264.97" />
        <path d="M-23.34,-265.82L-23.69,-264.97L-23.34,-265.82" />
        <path d="M-22.60,-266.93L-23.34,-265.82L-22.60,-266.93" />
        <path d="M-21.99,-267.49L-22.60,-266.93L-21.99,-267.49" />
        <path d="M-19.91,-269.38L-21.42,-267.61" />
        <path d="M-23.45,-263.38L-24.85,-267.74L-23.67,-269.75L-22.28,-269.91L-21.91,-266.67L-23.45,-263.38" />
        <path d="M-28.25,-260.54L-29.31,-261.59L-29.68,-264.84L-28.66,-268.24L-24.76,-271.04L-22.44,-271.30L-20.94,-270.54L-19.02,-266.06L-20.81,-261.16L-23.27,-258.06L-26.41,-256.76L-27.39,-257.12L-28.25,-260.54" />
        <path d="M-26.37,-260.52L-27.71,-259.90L-28.33,-261.24L-26.65,-267.06L-23.72,-270.22L-20.94,-270.54L-19.80,-268.79L-19.48,-266.01L-21.27,-261.10L-23.73,-258.00L-24.66,-257.90L-25.59,-257.79L-26.37,-260.52" />
        <path d="M-23.39,-263.21L-25.44,-260.63L-26.37,-260.52L-25.92,-264.80L-22.28,-269.91L-19.96,-270.18L-19.38,-265.08L-21.52,-259.20L-22.40,-258.63L-22.20,-261.00" />
      </g>
      <g id="f15" style="--index:15; opacity:0;" class="frame">
        <path d="M11.65,-249.23" />
        <path d="M-3.14,-245.22L-2.91,-240.61L-1.50,-238.25L0.67,-236.77L6.52,-235.56L14.27,-236.56L16.60,-238.38L19.73,-246.03L20.99,-251.06L20.97,-256.82L19.14,-259.16L12.88,-260.33L1.86,-259.08L-0.09,-257.70L-3.43,-252.92L-3.14,-245.22" />
        <path d="M3.15,-253.01L-0.85,-251.47L-3.03,-247.60L-3.14,-245.22L-1.34,-241.56" />
        <path d="M4.04,-240.99L2.65,-240.83L2.03,-242.17L1.80,-248.25L4.16,-252.27L6.89,-253.06L9.42,-251.47L10.77,-247.86L10.75,-239.88L9.62,-237.40L6.89,-236.62L4.77,-238.72L4.04,-240.99" />
        <path d="M7.37,-248.88L7.49,-243.73L5.84,-241.67L4.04,-240.99L3.82,-247.07L4.89,-250.01L7.87,-252.70L9.78,-252.45L10.97,-250.24L11.39,-246.53L10.02,-242.14L7.45,-239.97L5.59,-239.76L4.04,-240.99" />
      </g>
      <g id="f16" style="--index:16; opacity:0;" class="frame">
        <path d="M43.74,-167.97" />
        <path d="M33.54,-172.16L32.62,-167.98L35.38,-158.72L39.65,-151.22L46.88,-142.71L51.51,-141.41L55.19,-141.69L55.67,-146.26L54.33,-158.50L46.64,-173.15L39.19,-179.17L37.20,-178.20L35.43,-169.01L35.83,-163.69L38.06,-161.39" />
        <path d="M34.27,-178.80L31.72,-174.49L32.25,-172.89" />
        <path d="M47.89,-149.26L48.67,-146.53L46.60,-148.17L40.38,-161.55L38.35,-166.95L38.39,-170.72L39.78,-170.87L41.33,-169.64L45.99,-161.72L49.07,-151.27L49.33,-148.95L48.46,-148.38L47.89,-149.26" />
        <path d="M43.53,-161.95L43.37,-160.01L47.89,-149.26L45.20,-152.24L39.29,-162.83L37.73,-168.29L37.46,-170.61L38.39,-170.72L41.65,-166.86L43.53,-161.95" />
        <path d="M43.77,-164.76L45.53,-145.23L42.07,-163.15L41.54,-167.79L42.41,-168.36" />
      </g>
      <g id="f17" style="--index:17; opacity:0;" class="frame">
        <path d="M68.61,-41.13" />
        <path d="M53.74,-46.50L50.72,-42.98L50.74,-37.22L52.25,-33.63L60.14,-27.23L68.51,-25.39L74.21,-26.23L77.67,-29.38L80.71,-38.25L80.68,-44.01L78.74,-47.98L74.81,-50.98L60.48,-49.89L56.10,-47.92L54.18,-46.12L53.23,-42.35L54.52,-36.27" />
        <path d="M66.92,-38.05L67.70,-33.64L66.73,-29.78L64.32,-26.21L61.54,-25.89L59.62,-30.37L59.19,-34.08L59.91,-36.04L60.67,-37.54L62.89,-38.73L65.67,-39.05L66.92,-38.05" />
        <path d="M63.77,-35.07L67.22,-37.82L69.71,-32.47L69.51,-30.09L68.28,-28.54L65.39,-29.15L64.20,-31.36L63.35,-38.78L65.65,-43.27L69.36,-43.70L70.55,-41.49L70.98,-37.78L69.62,-29.17L68.80,-28.13" />
        <path d="M68.17,-36.16L66.49,-40.08L66.85,-41.06L67.77,-41.17L68.34,-40.29L68.17,-36.16" />
        <path d="M68.41,-35.60L68.17,-36.16L65.59,-31.52L62.40,-30.69L61.14,-37.59L62.78,-39.66L63.71,-39.76L64.28,-38.89L65.68,-34.82" />
      </g>
      <g id="f18" style="--index:18; opacity:0;" class="frame">
        <path d="M65.28,18.75" />
        <path d="M54.12,26.08L55.43,30.34L59.33,32.93L66.73,32.78L75.87,28.38L78.58,26.12L80.16,19.83L79.63,12.87L77.69,8.90L73.79,6.31L70.86,5.71L65.13,6.15L55.96,10.13L52.94,13.65L51.64,18.28L51.98,22.78L54.12,26.08" />
        <path d="M53.79,14.00L52.87,18.19L54.12,26.08L56.54,28.61L61.13,29.50" />
        <path d="M66.96,16.65L68.14,23.60L67.64,27.42L66.92,29.38L65.12,30.05L62.95,27.48L62.62,20.48L65.96,16.81L66.96,16.65" />
        <path d="M70.07,15.87L70.92,23.28L68.73,28.70L66.10,30.41L63.27,30.27L62.13,28.52L60.41,21.67L61.27,16.88L63.89,15.17L66.26,15.36L66.96,16.65L69.15,15.97L69.62,20.15L67.68,23.66L66.75,23.76" />
        <path d="M69.15,15.97L69.93,18.70L68.25,24.53L65.94,29.02L61.52,31.41L59.92,29.71L59.33,24.61L61.48,18.73L65.74,14.95L68.06,14.69L69.15,15.97" />
        <path d="M69.15,15.97L69.15,15.97" />
        <path d="M66.49,21.44L67.24,15.72L69.15,15.97L70.19,21.02L68.51,26.85L65.59,30.00L63.63,29.29L62.26,21.46L63.89,15.17L66.25,11.14L68.97,10.36L70.01,11.18L71.48,19.93L71.03,24.21L69.55,27.67" />
      </g>
      <g id="f19" style="--index:19; opacity:0;" class="frame">
        <path d="M37.29,44.55" />
        <path d="M26.78,37.86L23.31,41.00L22.74,44.34L23.45,53.75L25.99,60.14L29.07,62.79L39.75,62.40L45.67,59.07L49.11,55.52L50.09,46.80L49.47,38.61L47.06,33.85L44.48,32.40L37.49,32.52L31.16,35.88L27.75,39.84L25.00,47.05L25.16,49.09L26.57,51.46" />
        <path d="M28.26,55.61L27.17,51.31L27.72,47.95L30.95,43.36L32.70,42.22L36.41,41.79L37.60,44.01L38.45,51.42L37.07,55.81L35.48,58.34L31.88,59.69L29.35,58.10L28.26,55.61" />
        <path d="M26.97,49.24L27.15,47.08L28.69,44.09L30.79,41.97L37.28,41.22L38.89,42.92L40.04,48.89L39.59,53.17L37.13,56.27L34.04,58.03L29.82,58.05L28.27,56.82L26.61,54.66L26.29,51.88L26.97,49.24" />
        <path d="M35.35,48.96L34.60,54.68L33.36,56.23L29.71,57.12L28.26,55.61L27.11,50.84L27.72,47.95" />
      </g>
      <g id="f20" style="--index:20; opacity:0;" class="frame">
        <path d="M19.68,43.63" />
        <path d="M8.10,36.58L12.37,32.80L19.52,29.64L21.84,29.37L23.85,30.55L27.37,36.72L28.60,47.38L27.07,54.60L24.97,56.72L22.35,58.43L15.86,59.18L11.06,58.32L4.97,54.32L3.77,52.10L3.30,47.93L5.28,40.66L8.10,36.58" />
        <path d="M8.10,36.58L8.10,36.58" />
        <path d="M9.07,35.77L10.26,34.92L19.02,33.45L21.96,34.52L24.65,37.50L25.55,45.39L22.64,52.76L19.71,55.92L11.83,56.82L9.35,55.69L6.71,53.18L4.95,50.09L4.51,42.16L7.23,37.15L9.07,35.77" />
        <path d="M7.08,44.02L6.57,39.57L8.10,36.58L12.94,33.68L16.23,33.77L18.82,35.82L20.69,39.84L21.89,46.27L20.98,50.60L19.80,52.62L14.56,56.04L8.01,56.32L4.97,54.32L3.87,48.81L4.94,45.87L7.08,44.02" />
        <path d="M8.88,50.14L8.20,49.72L7.08,44.02L12.86,41.20L23.52,39.98L26.51,41.52L28.17,43.68L28.40,49.76L25.58,53.84L22.08,56.11L17.09,57.63L14.72,57.43L12.24,56.30L8.88,50.14" />
        <path d="M10.17,41.71L13.88,37.80L17.94,36.39L23.10,36.27L28.42,41.77L29.83,45.83L30.25,49.54L29.54,51.50L26.56,54.19L23.01,56.01L14.72,57.43L10.85,56.46L6.25,53.23L5.31,49.11L5.92,46.22L10.17,41.71" />
        <path d="M13.46,50.53L8.88,50.14L8.59,44.98L10.17,41.71L16.71,37.94L24.95,36.06L27.89,37.13L29.14,39.81L29.56,43.52L27.26,48.01L20.94,54.37L16.11,57.27L11.88,57.28" />
      </g>
    </g>
    <g id="t4" transform="translate(-99.55 26.48)" class="thread">
      <g id="f0" style="--index:0; opacity:1;" class="frame">
        <path d="M-198.30,5.41" />
        <path d="M-212.45,4.08L-211.49,16.77L-210.52,18.75L-206.11,22.53L-200.76,22.54L-198.02,20.69L-192.76,14.11L-191.55,8.26L-192.80,-2.76L-193.71,-3.92L-198.84,-6.42L-202.52,-6.14L-204.44,-4.35L-206.59,-0.07L-207.44,4.94" />
        <path d="M-207.75,0.84" />
        <path d="M-209.14,-1.11" />
        <path d="M-200.53,18.23L-202.09,18.86L-203.13,17.65L-204.79,11.14L-205.29,3.15L-202.88,-2.94L-201.27,-4.47L-199.07,-4.73L-196.14,1.18L-194.73,13.08L-195.74,15.88L-197.35,17.41L-200.53,18.23" />
        <path d="M-199.48,6.94L-199.37,15.41L-200.53,18.23L-201.70,18.37L-204.11,16.87L-207.05,10.96L-207.33,4.74L-204.38,-0.53L-201.01,-2.27L-200.03,-1.49L-199.48,6.94" />
        <path d="M-199.79,4.29L-200.18,12.38L-202.07,15.29L-205.31,14.33L-207.80,8.37L-208.42,3.08L-206.30,-1.64L-203.71,-2.39L-202.18,-0.79L-201.24,7.14L-202.04,11.71L-204.09,13.29L-205.02,12.95L-206.27,9.97L-206.89,4.68L-205.05,1.34" />
      </g>
      <g id="f1" style="--index:1; opacity:0;" class="frame">
        <path d="M-180.61,48.45" />
        <path d="M-182.75,42.99L-186.69,45.35L-187.42,46.64L-187.99,49.98L-187.49,56.52L-185.17,60.05L-180.42,62.99L-176.70,63.12L-175.13,62.18L-170.97,57.33L-166.70,48.37L-167.29,40.59L-168.61,39.46L-175.22,39.13L-180.42,41.17L-183.42,45.10L-185.09,50.17" />
        <path d="M-171.24,58.12L-172.31,59.14L-174.07,59.35L-175.99,58.24L-179.08,51.00L-179.55,47.04L-178.59,43.80L-174.60,39.75L-172.34,39.93L-169.93,41.43L-168.24,44.36L-166.58,50.87L-166.27,53.51L-167.33,55.87L-168.94,57.40L-171.24,58.12" />
        <path d="M-171.64,49.68L-170.70,57.61L-171.97,58.21L-174.28,57.59L-177.11,52.56L-177.52,49.03L-176.46,46.67" />
      </g>
      <g id="f2" style="--index:2; opacity:0;" class="frame">
        <path d="M-164.41,50.96" />
        <path d="M-177.26,55.75L-176.86,61.07L-175.48,63.02L-172.08,64.41L-168.39,64.14L-161.68,60.34L-156.86,53.39L-157.82,46.05L-159.27,43.28L-161.06,41.35L-164.46,39.97L-168.58,39.87L-175.32,43.26L-180.27,48.57L-181.28,51.53L-181.04,54.80L-178.27,58.71" />
        <path d="M-169.93,47.25L-168.19,47.36L-167.46,49.63L-166.61,57.05L-167.58,60.91L-168.51,61.02L-169.59,59.74L-170.48,56.08L-169.93,47.25" />
        <path d="M-170.87,48.61L-168.97,44.64L-166.81,42.98L-164.85,43.69L-164.18,45.50L-163.54,51.06L-164.44,59.62L-167.42,62.31L-168.92,61.54L-170.27,57.93L-170.87,48.61" />
        <path d="M-170.38,46.68L-168.56,44.12L-166.71,43.91L-164.88,51.68L-165.53,58.33L-166.65,60.81L-169.38,61.59L-172.53,58.66L-173.85,51.30L-173.65,48.93L-172.42,47.38L-170.38,46.68" />
        <path d="M-171.51,55.26L-172.05,50.62L-170.38,46.68L-168.76,46.49L-166.75,47.67L-165.22,56.89L-165.83,59.78L-170.00,60.25L-171.82,56.70L-172.08,54.39" />
      </g>
      <g id="f3" style="--index:3; opacity:0;" class="frame">
        <path d="M-140.00,41.00" />
        <path d="M-148.53,38.35L-151.15,41.84L-150.94,50.06L-146.94,53.87L-143.17,54.82L-137.85,54.42L-133.88,52.47L-132.40,50.30L-130.30,39.85L-130.83,32.90L-133.00,31.41L-138.00,30.56L-143.73,30.99L-150.26,37.25L-152.78,41.96L-152.70,48.54" />
        <path d="M-142.72,52.43L-144.36,54.50L-147.25,53.89L-149.03,46.58L-148.22,41.32L-145.97,36.37L-144.33,34.30L-140.21,33.36L-138.55,35.52L-137.72,38.71L-136.97,45.20L-137.32,50.41L-139.83,53.04L-141.69,53.25L-142.72,52.43" />
        <path d="M-140.84,44.23L-140.72,49.39L-140.84,44.23" />
        <path d="M-143.44,37.96L-141.29,48.51L-142.72,52.43L-144.43,49.81L-145.85,41.52L-145.81,37.76L-144.63,35.74L-143.29,35.12L-142.26,35.94L-140.84,44.23L-140.28,40.88L-138.64,38.82L-137.28,46.64" />
      </g>
      <g id="f4" style="--index:4; opacity:0;" class="frame">
        <path d="M-97.18,-103.12" />
        <path d="M-103.28,-114.48L-109.12,-104.58L-110.32,-98.72L-110.04,-95.04L-107.34,-91.95L-105.64,-91.26L-99.94,-92.10L-94.58,-97.44L-92.78,-100.87L-88.55,-115.60L-87.81,-122.24L-91.18,-123.22L-94.36,-121.74L-99.19,-114.79L-101.97,-108.00" />
        <path d="M-98.36,-120.21L-101.45,-117.50L-103.53,-112.41" />
        <path d="M-97.74,-96.19L-99.66,-92.45L-101.51,-92.24L-102.25,-98.73L-101.25,-106.36L-97.32,-117.14L-93.41,-119.94L-92.77,-114.37L-94.55,-105.25L-97.74,-96.19" />
        <path d="M-93.30,-113.53L-97.00,-97.92L-99.41,-94.36L-100.85,-94.66L-102.04,-96.88L-102.78,-103.37L-101.92,-108.16L-98.14,-116.11L-92.23,-121.95L-91.45,-119.22L-93.30,-113.53" />
        <path d="M-99.55,-107.96L-96.43,-113.49L-93.50,-116.64L-93.30,-113.53L-95.43,-108.90L-96.72,-107.82L-99.55,-107.96" />
        <path d="M-99.55,-107.96L-99.55,-107.96" />
        <path d="M-99.57,-114.30L-96.62,-123.33L-93.79,-127.41L-94.35,-124.06L-99.57,-114.30" />
        <path d="M-99.73,-113.58L-101.37,-111.51L-99.73,-113.58" />
        <path d="M-99.73,-113.58L-99.73,-113.58" />
        <path d="M-92.63,-117.21L-92.63,-117.21" />
        <path d="M-92.68,-117.67L-92.68,-117.67" />
        <path d="M-92.43,-119.58L-92.68,-117.67L-92.43,-119.58" />
        <path d="M-92.43,-119.58L-92.43,-119.58" />
        <path d="M-92.48,-120.04L-92.48,-120.04" />
        <path d="M-90.91,-126.80L-90.91,-126.80" />
        <path d="M-99.90,-102.76L-100.08,-112.60L-99.37,-114.56L-95.21,-119.26L-94.40,-124.52L-93.01,-124.68L-92.48,-120.04L-90.91,-126.80L-91.66,-121.08" />
      </g>
      <g id="f5" style="--index:5; opacity:0;" class="frame">
        <path d="M-71.38,-196.98" />
        <path d="M-72.37,-206.55L-76.43,-205.83L-77.57,-204.51L-83.28,-192.97L-84.80,-185.85L-84.43,-180.94L-82.58,-178.20L-80.47,-177.54L-76.47,-179.07L-71.46,-183.57L-60.53,-207.86L-61.03,-214.41L-62.82,-216.33L-64.46,-216.20L-75.97,-199.69L-75.81,-197.65L-73.71,-196.98" />
        <path d="M-71.90,-205.76L-71.07,-211.18L-73.44,-209.76L-79.27,-199.85L-79.56,-198.19L-77.92,-198.31" />
        <path d="M-71.70,-209.31L-71.77,-214.00L-71.00,-215.49L-69.25,-216.63L-68.93,-213.85L-72.15,-205.03" />
      </g>
      <g id="f6" style="--index:6; opacity:0;" class="frame">
        <path d="M-46.23,-244.66" />
        <path d="M-50.28,-246.50L-54.28,-244.96L-56.11,-241.94L-58.17,-236.44L-57.89,-232.75L-53.01,-228.18L-49.33,-228.46L-47.35,-229.43L-43.53,-233.43L-39.15,-240.76L-38.51,-243.27L-38.85,-247.77L-40.36,-251.37L-43.35,-252.79L-48.67,-252.38L-51.85,-250.91L-60.01,-244.53L-61.05,-241.98L-60.87,-239.52" />
        <path d="M-49.68,-234.37L-51.78,-232.25L-54.16,-232.45L-55.26,-237.96L-53.52,-243.32L-50.95,-245.50L-49.10,-245.71L-48.01,-244.42L-47.69,-241.64L-49.68,-234.37" />
        <path d="M-49.68,-234.37L-49.68,-234.37" />
        <path d="M-56.96,-240.58L-51.67,-243.54L-50.74,-243.64L-50.12,-242.30L-50.46,-237.10L-51.53,-234.16L-53.64,-232.04L-55.49,-231.83L-56.58,-233.11L-57.47,-236.77L-56.96,-240.58" />
        <path d="M-46.51,-243.66L-48.09,-236.90L-51.27,-231.84L-52.96,-230.24L-56.15,-229.40L-57.81,-231.56L-58.50,-237.59L-55.18,-245.48L-53.02,-247.14L-51.16,-247.35L-49.56,-245.66L-49.14,-241.95L-50.41,-236.64L-52.66,-231.68L-53.89,-230.13L-56.26,-230.33L-57.88,-236.25L-56.75,-238.73L-55.47,-239.81L-53.15,-240.08L-50.98,-237.51" />
      </g>
      <g id="f7" style="--index:7; opacity:0;" class="frame">
        <path d="M-18.74,-270.43" />
        <path d="M-30.13,-273.95L-32.72,-270.05L-32.41,-265.96L-29.93,-260.39L-26.79,-256.92L-24.27,-256.29L-19.77,-256.63L-14.38,-261.56L-9.83,-272.20L-9.58,-274.27L-11.02,-277.04L-17.34,-279.04L-27.51,-277.44L-31.80,-274.24L-33.25,-271.66L-33.10,-269.61" />
        <path d="M-24.07,-264.53L-24.07,-264.53" />
        <path d="M-23.69,-264.97L-24.07,-264.53L-23.69,-264.97" />
        <path d="M-23.34,-265.82L-23.69,-264.97L-23.34,-265.82" />
        <path d="M-22.60,-266.93L-23.34,-265.82L-22.60,-266.93" />
        <path d="M-21.99,-267.49L-22.60,-266.93L-21.99,-267.49" />
        <path d="M-19.91,-269.38L-21.42,-267.61" />
        <path d="M-23.45,-263.38L-24.85,-267.74L-23.67,-269.75L-22.28,-269.91L-21.91,-266.67L-23.45,-263.38" />
        <path d="M-28.25,-260.54L-29.31,-261.59L-29.68,-264.84L-28.66,-268.24L-24.76,-271.04L-22.44,-271.30L-20.94,-270.54L-19.02,-266.06L-20.81,-261.16L-23.27,-258.06L-26.41,-256.76L-27.39,-257.12L-28.25,-260.54" />
        <path d="M-26.37,-260.52L-27.71,-259.90L-28.33,-261.24L-26.65,-267.06L-23.72,-270.22L-20.94,-270.54L-19.80,-268.79L-19.48,-266.01L-21.27,-261.10L-23.73,-258.00L-24.66,-257.90L-25.59,-257.79L-26.37,-260.52" />
        <path d="M-23.39,-263.21L-25.44,-260.63L-26.37,-260.52L-25.92,-264.80L-22.28,-269.91L-19.96,-270.18L-19.38,-265.08L-21.52,-259.20L-22.40,-258.63L-22.20,-261.00" />
      </g>
      <g id="f8" style="--index:8; opacity:0;" class="frame">
        <path d="M11.65,-249.23" />
        <path d="M-3.14,-245.22L-2.91,-240.61L-1.50,-238.25L0.67,-236.77L6.52,-235.56L14.27,-236.56L16.60,-238.38L19.73,-246.03L20.99,-251.06L20.97,-256.82L19.14,-259.16L12.88,-260.33L1.86,-259.08L-0.09,-257.70L-3.43,-252.92L-3.14,-245.22" />
        <path d="M3.15,-253.01L-0.85,-251.47L-3.03,-247.60L-3.14,-245.22L-1.34,-241.56" />
        <path d="M4.04,-240.99L2.65,-240.83L2.03,-242.17L1.80,-248.25L4.16,-252.27L6.89,-253.06L9.42,-251.47L10.77,-247.86L10.75,-239.88L9.62,-237.40L6.89,-236.62L4.77,-238.72L4.04,-240.99" />
        <path d="M7.37,-248.88L7.49,-243.73L5.84,-241.67L4.04,-240.99L3.82,-247.07L4.89,-250.01L7.87,-252.70L9.78,-252.45L10.97,-250.24L11.39,-246.53L10.02,-242.14L7.45,-239.97L5.59,-239.76L4.04,-240.99" />
      </g>
      <g id="f9" style="--index:9; opacity:0;" class="frame">
        <path d="M43.74,-167.97" />
        <path d="M33.54,-172.16L32.62,-167.98L35.38,-158.72L39.65,-151.22L46.88,-142.71L51.51,-141.41L55.19,-141.69L55.67,-146.26L54.33,-158.50L46.64,-173.15L39.19,-179.17L37.20,-178.20L35.43,-169.01L35.83,-163.69L38.06,-161.39" />
        <path d="M34.27,-178.80L31.72,-174.49L32.25,-172.89" />
        <path d="M47.89,-149.26L48.67,-146.53L46.60,-148.17L40.38,-161.55L38.35,-166.95L38.39,-170.72L39.78,-170.87L41.33,-169.64L45.99,-161.72L49.07,-151.27L49.33,-148.95L48.46,-148.38L47.89,-149.26" />
        <path d="M43.53,-161.95L43.37,-160.01L47.89,-149.26L45.20,-152.24L39.29,-162.83L37.73,-168.29L37.46,-170.61L38.39,-170.72L41.65,-166.86L43.53,-161.95" />
        <path d="M43.77,-164.76L45.53,-145.23L42.07,-163.15L41.54,-167.79L42.41,-168.36" />
      </g>
      <g id="f10" style="--index:10; opacity:0;" class="frame">
        <path d="M68.61,-41.13" />
        <path d="M53.74,-46.50L50.72,-42.98L50.74,-37.22L52.25,-33.63L60.14,-27.23L68.51,-25.39L74.21,-26.23L77.67,-29.38L80.71,-38.25L80.68,-44.01L78.74,-47.98L74.81,-50.98L60.48,-49.89L56.10,-47.92L54.18,-46.12L53.23,-42.35L54.52,-36.27" />
        <path d="M66.92,-38.05L67.70,-33.64L66.73,-29.78L64.32,-26.21L61.54,-25.89L59.62,-30.37L59.19,-34.08L59.91,-36.04L60.67,-37.54L62.89,-38.73L65.67,-39.05L66.92,-38.05" />
        <path d="M63.77,-35.07L67.22,-37.82L69.71,-32.47L69.51,-30.09L68.28,-28.54L65.39,-29.15L64.20,-31.36L63.35,-38.78L65.65,-43.27L69.36,-43.70L70.55,-41.49L70.98,-37.78L69.62,-29.17L68.80,-28.13" />
        <path d="M68.17,-36.16L66.49,-40.08L66.85,-41.06L67.77,-41.17L68.34,-40.29L68.17,-36.16" />
        <path d="M68.41,-35.60L68.17,-36.16L65.59,-31.52L62.40,-30.69L61.14,-37.59L62.78,-39.66L63.71,-39.76L64.28,-38.89L65.68,-34.82" />
      </g>
      <g id="f11" style="--index:11; opacity:0;" class="frame">
        <path d="M65.28,18.75" />
        <path d="M54.12,26.08L55.43,30.34L59.33,32.93L66.73,32.78L75.87,28.38L78.58,26.12L80.16,19.83L79.63,12.87L77.69,8.90L73.79,6.31L70.86,5.71L65.13,6.15L55.96,10.13L52.94,13.65L51.64,18.28L51.98,22.78L54.12,26.08" />
        <path d="M53.79,14.00L52.87,18.19L54.12,26.08L56.54,28.61L61.13,29.50" />
        <path d="M66.96,16.65L68.14,23.60L67.64,27.42L66.92,29.38L65.12,30.05L62.95,27.48L62.62,20.48L65.96,16.81L66.96,16.65" />
        <path d="M70.07,15.87L70.92,23.28L68.73,28.70L66.10,30.41L63.27,30.27L62.13,28.52L60.41,21.67L61.27,16.88L63.89,15.17L66.26,15.36L66.96,16.65L69.15,15.97L69.62,20.15L67.68,23.66L66.75,23.76" />
        <path d="M69.15,15.97L69.93,18.70L68.25,24.53L65.94,29.02L61.52,31.41L59.92,29.71L59.33,24.61L61.48,18.73L65.74,14.95L68.06,14.69L69.15,15.97" />
        <path d="M69.15,15.97L69.15,15.97" />
        <path d="M66.49,21.44L67.24,15.72L69.15,15.97L70.19,21.02L68.51,26.85L65.59,30.00L63.63,29.29L62.26,21.46L63.89,15.17L66.25,11.14L68.97,10.36L70.01,11.18L71.48,19.93L71.03,24.21L69.55,27.67" />
      </g>
      <g id="f12" style="--index:12; opacity:0;" class="frame">
        <path d="M37.29,44.55" />
        <path d="M26.78,37.86L23.31,41.00L22.74,44.34L23.45,53.75L25.99,60.14L29.07,62.79L39.75,62.40L45.67,59.07L49.11,55.52L50.09,46.80L49.47,38.61L47.06,33.85L44.48,32.40L37.49,32.52L31.16,35.88L27.75,39.84L25.00,47.05L25.16,49.09L26.57,51.46" />
        <path d="M28.26,55.61L27.17,51.31L27.72,47.95L30.95,43.36L32.70,42.22L36.41,41.79L37.60,44.01L38.45,51.42L37.07,55.81L35.48,58.34L31.88,59.69L29.35,58.10L28.26,55.61" />
        <path d="M26.97,49.24L27.15,47.08L28.69,44.09L30.79,41.97L37.28,41.22L38.89,42.92L40.04,48.89L39.59,53.17L37.13,56.27L34.04,58.03L29.82,58.05L28.27,56.82L26.61,54.66L26.29,51.88L26.97,49.24" />
        <path d="M35.35,48.96L34.60,54.68L33.36,56.23L29.71,57.12L28.26,55.61L27.11,50.84L27.72,47.95" />
      </g>
      <g id="f13" style="--index:13; opacity:0;" class="frame">
        <path d="M19.68,43.63" />
        <path d="M8.10,36.58L12.37,32.80L19.52,29.64L21.84,29.37L23.85,30.55L27.37,36.72L28.60,47.38L27.07,54.60L24.97,56.72L22.35,58.43L15.86,59.18L11.06,58.32L4.97,54.32L3.77,52.10L3.30,47.93L5.28,40.66L8.10,36.58" />
        <path d="M8.10,36.58L8.10,36.58" />
        <path d="M9.07,35.77L10.26,34.92L19.02,33.45L21.96,34.52L24.65,37.50L25.55,45.39L22.64,52.76L19.71,55.92L11.83,56.82L9.35,55.69L6.71,53.18L4.95,50.09L4.51,42.16L7.23,37.15L9.07,35.77" />
        <path d="M7.08,44.02L6.57,39.57L8.10,36.58L12.94,33.68L16.23,33.77L18.82,35.82L20.69,39.84L21.89,46.27L20.98,50.60L19.80,52.62L14.56,56.04L8.01,56.32L4.97,54.32L3.87,48.81L4.94,45.87L7.08,44.02" />
        <path d="M8.88,50.14L8.20,49.72L7.08,44.02L12.86,41.20L23.52,39.98L26.51,41.52L28.17,43.68L28.40,49.76L25.58,53.84L22.08,56.11L17.09,57.63L14.72,57.43L12.24,56.30L8.88,50.14" />
        <path d="M10.17,41.71L13.88,37.80L17.94,36.39L23.10,36.27L28.42,41.77L29.83,45.83L30.25,49.54L29.54,51.50L26.56,54.19L23.01,56.01L14.72,57.43L10.85,56.46L6.25,53.23L5.31,49.11L5.92,46.22L10.17,41.71" />
        <path d="M13.46,50.53L8.88,50.14L8.59,44.98L10.17,41.71L16.71,37.94L24.95,36.06L27.89,37.13L29.14,39.81L29.56,43.52L27.26,48.01L20.94,54.37L16.11,57.27L11.88,57.28" />
      </g>
      <g id="f14" style="--index:14; opacity:0;" class="frame">
        <path d="M7.71,20.29" />
        <path d="M-3.23,13.89L-5.15,18.46L-4.71,24.19L-1.25,26.39L2.84,26.08L6.00,18.85L6.47,14.28L5.56,13.12L2.64,12.52L-0.64,12.76L-3.23,13.89" />
        <path d="M-6.28,19.78L-5.94,24.28L-3.18,28.19L3.15,30.18L7.21,29.46L10.36,27.57L12.63,24.93L13.68,17.03L12.90,12.15L11.08,9.82L8.94,8.75L2.39,9.24L-1.55,11.60L-5.36,15.59L-6.28,19.78" />
        <path d="M-6.05,15.48L-6.41,18.14L-5.66,22.61L-2.61,24.85L1.49,24.54L3.41,22.75L4.80,19.35L5.78,15.98L5.44,11.48L4.50,9.91L2.36,8.83L-1.33,9.11L-4.82,11.85L-6.05,15.48" />
        <path d="M-5.92,18.41L-5.40,20.53L-3.17,22.83L1.05,24.16L4.29,23.50L5.97,18.44L5.00,11.10L2.86,10.03L0.40,10.22L-2.31,12.48L-5.92,18.41" />
        <path d="M3.31,25.09L7.32,19.98L10.03,12.37L9.85,9.91L8.50,8.37L6.39,7.71L2.71,7.98L-0.76,11.13L-2.78,17.04L-2.03,21.51L1.08,24.57L3.31,25.09" />
        <path d="M-6.13,16.37L-6.07,22.64L-3.80,25.35L0.79,26.24L5.61,24.64L7.48,16.68L7.32,14.63L5.97,13.09L1.76,11.76L-1.11,11.98L-4.29,13.45L-6.13,16.37" />
        <path d="M-3.56,12.16L-6.05,15.48L-6.78,18.58L-5.53,24.25L-3.30,26.55L-0.34,27.56L3.34,27.28L6.40,24.17" />
        <path d="M-4.17,25.77L-7.24,25.66L-8.46,14.99L-6.97,11.54L1.37,10.58L6.63,11.39L9.68,13.39L10.62,17.51L9.24,21.89L6.06,26.95L3.85,28.14L0.60,28.51L-2.34,27.44L-4.17,25.77" />
        <path d="M-3.94,25.75L-5.54,24.05L-6.89,20.45L-6.85,16.69L-3.62,12.09L-0.64,9.40L3.26,6.61L6.04,6.29L8.11,7.93L9.78,14.31L7.80,21.59L4.46,25.26L2.66,25.93L-2.44,26.52L-3.94,25.75" />
        <path d="M-6.58,23.23L-8.19,17.31L-4.10,7.92L4.71,6.91L9.56,8.23L11.32,11.32L11.90,16.42L9.97,24.16L8.43,27.15L3.96,29.07L-1.25,28.73L-4.76,26.78L-6.58,23.23" />
        <path d="M-5.54,24.05L-6.58,23.23L-6.84,20.91L-2.18,12.40L0.69,8.78L2.44,7.64L4.76,7.37L10.96,12.30L12.15,14.51L12.64,22.91L11.27,27.29L7.47,31.02L1.03,32.22L-1.96,30.69L-4.08,28.58L-5.54,24.05" />
        <path d="M1.75,11.16L6.88,9.48L8.73,9.27L9.77,10.09L10.72,18.43L9.40,23.28L6.22,28.34L4.47,29.48L-2.02,30.22L-9.09,25.87L-9.83,19.38L-7.99,14.94L-5.12,11.32L-1.93,10.49L1.75,11.16" />
        <path d="M-4.23,14.98L-3.52,13.02L-1.77,11.88L1.75,11.16L3.85,11.71L6.43,13.76L9.74,18.08L10.17,21.78L8.54,28.08L4.33,32.32L0.67,33.20L-3.14,32.70L-5.10,31.99L-8.83,28.19L-9.36,23.55L-7.87,20.09L-4.23,14.98" />
        <path d="M-4.23,14.98L-4.23,14.98" />
        <path d="M-1.77,11.88L2.60,9.03L6.31,8.61L11.07,13.23L12.88,16.78L13.73,24.19L13.43,25.64L10.50,28.79L5.56,30.77L0.92,31.30L-4.44,29.56L-6.67,26.53L-8.13,22.00L-7.73,17.26L-5.27,14.16L-1.77,11.88" />
        <path d="M-1.77,11.88L-1.77,11.88" />
        <path d="M-5.44,24.13L-5.86,21.27L-4.59,15.96L-1.77,11.88L0.85,10.17L5.90,9.12L8.73,9.27L11.83,11.73L12.99,17.70L11.50,21.16L8.17,24.83L1.58,28.87L-3.05,29.40L-4.49,29.10L-5.63,27.35L-5.44,24.13" />
        <path d="M-1.62,25.48L-3.94,25.75L-5.44,24.13L-3.40,18.17L1.28,13.88L6.38,13.30L8.76,17.72L8.06,23.90L6.11,27.41L2.67,30.16" />
      </g>
      <g id="f15" style="--index:15; opacity:0;" class="frame">
        <path d="M-49.52,-119.09" />
        <path d="M-55.37,-134.16L-56.39,-131.20L-55.80,-123.42L-52.88,-117.47L-51.12,-115.96L-48.66,-116.14L-47.97,-117.84L-48.71,-127.66L-51.13,-132.42L-53.30,-133.90L-55.37,-134.16" />
        <path d="M-55.37,-134.16L-55.37,-134.16" />
        <path d="M-55.18,-133.45L-56.59,-145.35L-55.45,-150.85L-54.96,-150.46" />
        <path d="M-59.41,-142.78L-59.46,-135.62L-52.19,-111.90L-50.56,-109.42L-49.13,-108.69L-41.59,-109.13L-40.52,-111.49L-40.53,-119.09L-42.45,-135.40L-44.17,-142.35L-46.50,-146.99L-49.56,-150.20L-53.35,-151.99L-56.44,-151.62L-57.99,-149.65L-59.05,-147.29L-58.22,-140.24L-56.48,-136.87L-54.56,-135.76" />
      </g>
      <g id="f16" style="--index:16; opacity:0;" class="frame">
        <path d="M-87.71,-209.56L-86.08,-205.39L-81.66,-199.37L-78.95,-192.41L-74.13,-186.09L-70.58,-183.98L-68.06,-184.30L-66.05,-188.58L-66.56,-198.37L-68.82,-204.66L-72.84,-213.28L-83.93,-228.67L-86.81,-228.30L-88.19,-224.84L-85.33,-210.96L-81.77,-205.93" />
        <path d="M-89.47,-218.59L-90.87,-214.16L-88.98,-212.14L-89.25,-209.95" />
      </g>
      <g id="f17" style="--index:17; opacity:0;" class="frame">
        <path d="M-91.53,-247.38" />
        <path d="M-101.81,-240.75L-101.10,-238.13L-96.26,-233.97L-94.56,-233.27L-89.24,-233.68L-84.61,-237.73L-80.54,-243.80L-79.62,-247.99L-80.59,-255.32L-82.79,-257.21L-89.02,-257.98L-95.98,-257.45L-97.55,-256.51L-99.88,-254.69L-103.20,-249.50L-103.23,-244.55L-101.81,-240.75" />
        <path d="M-102.35,-243.80L-101.81,-240.75L-100.34,-239.01" />
        <path d="M-87.49,-250.66L-86.12,-247.77L-86.81,-242.33L-89.04,-238.49L-91.74,-238.62L-93.63,-243.31L-93.97,-249.97L-92.13,-253.32L-89.05,-253.68L-87.49,-250.66" />
        <path d="M-91.07,-248.08L-87.49,-250.66L-87.26,-249.87L-88.65,-238.98L-92.10,-234.11L-93.08,-234.88L-93.84,-237.47L-94.28,-245.02L-93.53,-250.02L-91.82,-250.67L-89.46,-242.01" />
      </g>
      <g id="f18" style="--index:18; opacity:0;" class="frame">
        <path d="M-120.83,-267.14" />
        <path d="M-132.54,-267.45L-134.31,-263.61L-133.65,-260.37L-128.75,-255.39L-123.18,-252.51L-118.27,-252.89L-113.13,-255.74L-108.87,-264.71L-108.80,-274.59L-111.15,-278.53L-116.22,-280.21L-120.72,-279.87L-126.23,-276.57L-129.23,-272.64L-133.46,-263.26L-133.68,-260.78" />
        <path d="M-116.95,-262.90L-119.67,-267.05L-119.88,-268.81L-117.60,-272.21L-116.28,-272.36L-115.47,-269.33L-116.95,-262.90" />
        <path d="M-120.01,-258.52L-123.92,-257.61L-125.40,-258.77L-126.65,-261.75L-126.99,-268.42L-126.31,-270.28L-122.76,-274.28L-118.41,-275.24L-116.54,-274.57L-115.53,-269.77L-117.34,-262.41L-120.01,-258.52" />
        <path d="M-116.95,-262.90L-117.62,-261.03L-121.23,-257.48L-123.20,-259.03L-123.87,-264.76L-121.91,-270.80L-120.01,-273.71L-117.42,-274.46L-116.02,-270.16L-117.39,-262.85" />
      </g>
      <g id="f19" style="--index:19; opacity:0;" class="frame">
        <path d="M-150.98,-243.72" />
        <path d="M-162.10,-250.87L-164.96,-249.77L-166.98,-243.85L-167.27,-236.83L-164.60,-234.15L-159.91,-232.04L-154.09,-231.24L-149.21,-232.02L-145.02,-236.46L-143.97,-239.01L-143.18,-244.83L-143.58,-250.15L-147.13,-253.58L-152.64,-255.64L-157.14,-255.30L-162.10,-250.87" />
        <path d="M-160.96,-251.30L-162.53,-250.36L-164.74,-246.90" />
        <path d="M-154.10,-248.23L-153.86,-250.05L-152.65,-251.08L-150.00,-251.40L-148.86,-249.30L-149.04,-239.45L-151.65,-235.11L-154.35,-235.24L-156.19,-239.49L-155.60,-245.82L-154.10,-248.23" />
        <path d="M-154.10,-248.23L-154.10,-248.23" />
        <path d="M-150.04,-250.50L-148.57,-250.67L-147.04,-249.07L-145.98,-243.83L-146.44,-240.20L-147.79,-236.46L-150.90,-232.52L-155.75,-231.95L-158.16,-233.45L-162.03,-239.70L-163.35,-247.14L-159.91,-252.01L-157.31,-252.77L-152.41,-252.90L-150.04,-250.50" />
        <path d="M-151.73,-239.57L-154.07,-244.21L-154.10,-248.23L-150.34,-250.46L-149.25,-248.80L-148.52,-242.63L-149.24,-233.61" />
      </g>
      <g id="f20" style="--index:20; opacity:0;" class="frame">
        <path d="M-186.70,-91.08" />
        <path d="M-195.76,-96.38L-197.72,-89.65L-196.76,-76.96L-195.79,-74.97L-193.14,-72.70L-189.81,-72.13L-187.45,-73.55L-185.21,-76.60L-180.84,-95.04L-180.71,-98.75L-181.36,-107.35L-182.27,-108.51L-183.59,-109.65L-186.48,-109.84L-189.60,-107.55L-192.82,-101.13L-194.69,-93.17L-195.08,-87.38" />
        <path d="M-190.10,-110.36L-192.61,-105.15L-193.69,-99.21L-193.59,-90.73" />
        <path d="M-194.10,-79.95L-194.10,-79.95" />
        <path d="M-194.10,-79.95L-194.10,-79.95" />
        <path d="M-192.76,-91.28L-194.10,-79.95L-192.76,-91.28" />
        <path d="M-192.76,-91.28L-192.76,-91.28" />
        <path d="M-189.16,-102.43L-187.45,-103.08L-186.61,-96.03L-188.01,-85.14L-190.31,-78.16L-191.14,-77.62L-192.52,-85.50L-189.16,-102.43" />
        <path d="M-184.96,-107.24L-186.48,-91.13L-188.60,-78.81L-190.39,-75.02L-191.30,-78.94L-190.40,-90.22L-187.78,-102.14L-184.96,-107.24" />
        <path d="M-184.52,-97.17L-188.53,-81.95L-191.64,-78.00L-191.98,-84.67L-188.02,-100.33L-185.01,-105.15L-184.15,-101.68L-184.52,-97.17" />
        <path d="M-191.54,-99.91L-192.76,-91.28L-191.33,-98.15L-188.15,-105.23L-185.48,-109.12L-184.96,-107.24L-183.61,-108.45L-182.81,-105.41L-184.52,-97.17L-183.84,-91.44" />
      </g>
    </g>
  </g>
</svg>