<?xml version="1.0" encoding="utf-8"?>
<svg width="1194" height="834" viewBox="-627 -417 1194 834" xmlns="http://www.w3.org/2000/svg">
  <style>
svg { background-color:#E5A3A4; }

#looom { --version:2; }

#t0 {
--visible:1; --timeOffset:20.41668; --speed:12; --bookmarkIndex:-1; --latched:0; --playMode:0; --masked:0; --blendMode:0; 
stroke:#29534D; stroke-opacity:1; fill-opacity:0; stroke-width:10.36129; stroke-linecap:round; stroke-linejoin:round;
}
@keyframes t0 { 0% { opacity: 1; } 14.28571% { opacity: 0; } }
#t0 .frame { animation:t0 0.5833334s calc(var(--index) * 0.08333334s) steps(1) infinite; }

#t1 {
--visible:1; --timeOffset:336.001; --speed:12; --bookmarkIndex:-1; --latched:0; --playMode:0; --masked:0; --blendMode:0; 
stroke:#EDE9B8; stroke-opacity:0.2070299; fill-opacity:0; stroke-width:10.36129; stroke-linecap:round; stroke-linejoin:round;
}
@keyframes t1 { 0% { opacity: 1; } 4.761905% { opacity: 0; } }
#t1 .frame { animation:t1 1.75s calc(var(--index) * 0.08333334s) steps(1) infinite; }

#t2 {
--visible:1; --timeOffset:26.25005; --speed:12; --bookmarkIndex:-1; --latched:0; --playMode:0; --masked:0; --blendMode:0; 
stroke:#547FA7; stroke-opacity:1; fill-opacity:0; stroke-width:50; stroke-linecap:round; stroke-linejoin:round;
}
@keyframes t2 { 0% { opacity: 1; } 4.761905% { opacity: 0; } }
#t2 .frame { animation:t2 1.75s calc(var(--index) * 0.08333334s) steps(1) infinite; }

#t3 {
--visible:1; --timeOffset:28.00007; --speed:12; --bookmarkIndex:-1; --latched:0; --playMode:0; --masked:0; --blendMode:0; 
stroke:#C84448; stroke-opacity:1; fill-opacity:0; stroke-width:50; stroke-linecap:round; stroke-linejoin:round;
}
@keyframes t3 { 0% { opacity: 1; } 4.761905% { opacity: 0; } }
#t3 .frame { animation:t3 1.75s calc(var(--index) * 0.08333334s) steps(1) infinite; }

#t4 {
--visible:1; --timeOffset:26.25005; --speed:12; --bookmarkIndex:-1; --latched:0; --playMode:0; --masked:0; --blendMode:0; 
stroke:#54A76B; stroke-opacity:1; fill-opacity:0; stroke-width:50; stroke-linecap:round; stroke-linejoin:round;
}
@keyframes t4 { 0% { opacity: 1; } 4.761905% { opacity: 0; } }
#t4 .frame { animation:t4 1.75s calc(var(--index) * 0.08333334s) steps(1) infinite; }

</style>
  <g id="w0" transform="translate(237.50 69.00) scale(1.45 1.45) rotate(-357.70)" class="weave">
    <g id="t0" transform="translate(354.42 99.20)" class="thread">
      <g id="f0" style="--index:0; opacity:1;" class="frame">
        <path d="M-619.08,-81.86L-623.90,-87.74L-629.04,-101.22L-628.83,-114.16L-625.98,-124.83L-622.81,-127.91L-613.80,-132.67L-610.23,-132.62L-600.99,-124.43L-596.64,-116.77L-594.09,-109.14L-588.84,-102.36L-584.08,-92.46L-581.56,-83.04" />
        <path d="M-618.66,-80.51L-614.23,-77.76L-609.78,-77.24L-598.24,-72.59L-589.31,-72.90L-576.30,-76.71L-570.45,-79.29L-565.04,-82.78L-557.32,-91.14L-554.12,-95.55L-548.57,-107.52L-542.19,-115.46" />
        <path d="M-567.98,-122.12L-570.73,-117.70L-583.36,-109.86L-588.79,-105.04L-590.63,-101.94" />
        <path d="M-530.59,-109.45L-528.86,-102.30L-524.15,-89.89L-517.91,-65.34L-515.89,-61.38L-511.13,-56.65" />
        <path d="M-503.48,-118.54L-504.15,-113.98L-491.64,-90.67L-485.88,-75.59L-482.47,-70.79L-479.17,-68.25L-478.27,-68.30" />
        <path d="M-512.95,-57.01L-510.80,-50.34L-494.70,-27.66L-486.52,-18.14L-468.41,-0.08L-454.77,10.06L-443.62,15.81L-437.71,16.41L-431.49,14.28L-430.19,13.31L-428.57,9.61L-429.21,6.02L-431.70,1.63L-439.54,-10.17L-454.45,-36.07L-461.63,-43.84L-470.50,-57.85L-477.63,-64.71L-482.54,-72.15" />
      </g>
      <g id="f1" style="--index:1; opacity:0;" class="frame">
        <path d="M-570.25,-119.92L-581.51,-113.85L-604.98,-98.15L-618.93,-91.23L-631.11,-83.39L-662.89,-78.54L-674.06,-78.27L-687.07,-74.01L-691.58,-71.41L-695.23,-66.55L-694.89,-59.85L-691.81,-57.12L-688.71,-55.73L-676.68,-53.75L-659.27,-53.48L-632.87,-57.07L-611.80,-62.54L-599.65,-68.15L-570.78,-86.89L-560.38,-95.21L-548.12,-107.51L-544.96,-109.70L-543.59,-111.91" />
        <path d="M-529.24,-109.52L-530.26,-103.13L-529.80,-94.11L-524.40,-50.99L-523.52,-51.49" />
        <path d="M-504.40,-118.94L-504.60,-113.96L-500.17,-80.73L-496.26,-66.46L-493.80,-62.52" />
        <path d="M-521.93,-47.05L-521.46,-38.03L-515.38,-25.23L-506.96,-11.20L-496.34,1.81L-487.76,10.41L-473.67,20.53L-463.06,24.51L-459.01,24.30L-456.89,21.47L-455.34,16.42L-456.21,-0.26L-465.10,-14.72L-472.71,-22.02L-483.83,-35.91L-492.85,-53.07L-494.11,-59.79L-493.46,-64.80" />
      </g>
      <g id="f2" style="--index:2; opacity:0;" class="frame">
        <path d="M-563.38,-139.88L-578.80,-108.07L-590.35,-89.09" />
        <path d="M-542.04,-124.51L-545.91,-115.01L-561.80,-84.15L-562.30,-80.82" />
        <path d="M-591.80,-84.81L-598.51,-76.75L-646.85,-36.56L-650.19,-34.68L-659.73,-31.88" />
        <path d="M-560.42,-76.53L-572.41,-61.84L-590.59,-47.18L-617.84,-30.20L-625.00,-27.39L-640.29,-17.95L-646.98,-15.13L-656.50,-15.19L-661.25,-17.12L-666.45,-23.82" />
        <path d="M-663.13,-20.94L-664.06,-25.71L-662.14,-28.08" />
        <path d="M-525.58,-108.80L-526.23,-103.79L-523.42,-58.27" />
        <path d="M-502.70,-112.25L-499.09,-94.80L-496.79,-59.20L-495.79,-57.44L-494.92,-57.94" />
        <path d="M-520.77,-50.72L-520.06,-45.79L-517.14,-41.87L-501.44,-26.86L-492.10,-21.01L-485.22,-19.11L-471.12,-17.58L-458.78,-15.05L-447.46,-14.73L-447.13,-17.01L-448.19,-20.12L-454.93,-27.91L-466.74,-37.70L-477.46,-43.93L-484.15,-50.81L-493.11,-58.04L-496.36,-59.68" />
      </g>
      <g id="f3" style="--index:3; opacity:0;" class="frame">
        <path d="M-566.78,-128.00L-571.59,-120.40L-573.53,-113.75L-579.32,-101.88L-587.95,-90.98L-589.87,-89.56L-592.76,-84.34" />
        <path d="M-546.83,-119.78L-550.24,-105.99L-558.01,-81.28L-563.30,-71.78L-561.39,-72.72" />
        <path d="M-594.69,-79.11L-605.73,-64.89L-619.19,-42.59L-626.39,-33.11L-632.62,-26.48L-646.55,-6.08L-651.87,6.74L-651.89,10.55L-649.53,13.42L-643.33,12.98L-627.11,7.84L-621.38,5.02L-617.57,4.09L-613.73,0.30L-605.11,-9.17L-600.78,-15.34L-595.04,-20.06L-589.28,-28.13L-578.25,-40.44L-570.06,-56.11L-568.15,-58.48L-560.43,-75.10" />
        <path d="M-501.07,-72.09L-492.75,-94.68L-481.27,-108.84L-476.86,-110.87L-473.25,-111.06L-471.42,-110.70L-468.60,-108.59L-467.58,-106.38L-467.21,-99.17L-471.16,-88.11L-481.99,-70.37" />
        <path d="M-501.36,-68.91L-494.15,-69.29L-488.81,-70.92" />
        <path d="M-484.30,-71.15L-489.64,-69.52L-497.75,-69.10L-502.81,-70.65L-508.00,-74.90L-519.57,-88.77L-526.14,-93.40L-528.09,-96.01" />
        <path d="M-490.82,-101.11L-493.76,-105.48L-502.27,-112.72L-508.72,-123.69L-511.92,-124.43" />
        <path d="M-523.32,-91.29L-526.28,-96.11L-530.47,-107.19" />
      </g>
      <g id="f4" style="--index:4; opacity:0;" class="frame">
        <path d="M-564.35,-135.60L-569.64,-128.01L-584.11,-96.67L-585.57,-91.92L-598.09,-68.66L-603.91,-50.59L-621.70,-20.70L-628.43,-10.74L-631.80,-4.09L-637.11,7.78L-639.54,16.34L-639.56,18.72L-638.14,20.16L-632.43,21.62L-617.19,21.23L-611.93,17.93L-606.19,12.25L-598.99,4.20L-592.75,-4.34L-581.70,-21.89L-572.53,-42.31L-565.74,-62.27L-562.82,-73.68L-557.02,-87.94L-551.68,-104.57L-545.40,-119.30L-544.42,-125.01" />
        <path d="M-484.38,-81.55L-483.31,-87.03L-479.36,-98.08L-477.62,-108.12L-476.05,-112.72L-469.02,-125.30L-461.47,-127.95L-453.35,-128.37L-450.10,-126.73L-448.56,-123.19L-448.52,-113.70L-451.12,-102.71L-452.76,-99.46L-469.67,-85.47L-481.54,-78.98" />
        <path d="M-482.51,-80.29L-487.47,-80.03L-494.82,-82.36L-507.87,-89.82L-512.45,-90.94L-516.17,-93.01L-519.52,-96.46L-521.84,-97.69L-535.20,-102.43" />
        <path d="M-508.67,-122.79L-505.64,-116.62L-502.37,-114.53L-494.49,-110.86L-487.63,-109.41L-484.93,-109.55" />
      </g>
      <g id="f5" style="--index:5; opacity:0;" class="frame">
        <path d="M-568.66,-131.82L-571.56,-125.64L-577.40,-103.30L-580.30,-96.65L-585.17,-78.58L-587.58,-74.31L-589.03,-70.51L-589.03,-69.55L-588.55,-70.03" />
        <path d="M-545.44,-112.63L-543.99,-117.38L-544.94,-117.87L-545.89,-116.92L-547.84,-110.74L-555.65,-77.45L-559.52,-67.47L-560.99,-59.86" />
        <path d="M-590.01,-65.27L-597.72,-50.56L-614.02,-31.61L-616.91,-26.38L-626.99,-12.63L-632.77,-1.72L-633.75,2.09L-633.30,6.85L-630.93,8.77L-622.83,8.82L-612.82,6.50L-604.23,3.21L-599.92,-0.09L-581.24,-19.03L-574.04,-28.99L-565.37,-45.13L-561.50,-54.63L-559.06,-65.09L-558.10,-66.51" />
        <path d="M-533.16,-98.01L-526.52,-92.02L-517.63,-86.15L-488.49,-73.65L-468.82,-69.24L-464.74,-69.00L-454.16,-65.48L-442.30,-63.38L-430.36,-59.93L-417.74,-60.58" />
        <path d="M-509.54,-113.25L-488.44,-107.56L-474.07,-100.62L-462.63,-98.05L-451.57,-94.10L-435.60,-91.31L-430.62,-91.11L-420.56,-88.92L-406.28,-83.78L-396.05,-78.44L-393.16,-74.97L-392.50,-70.93L-395.31,-64.01L-407.37,-61.12L-426.28,-59.69" />
      </g>
      <g id="f6" style="--index:6; opacity:0;" class="frame">
        <path d="M-595.84,-55.59L-601.18,-56.57L-608.67,-62.49L-612.57,-70.14L-620.86,-82.33L-620.74,-89.92L-619.81,-92.14L-615.30,-94.74L-609.48,-95.99L-604.13,-95.46L-596.13,-93.10L-587.73,-87.61L-576.36,-73.14L-560.06,-59.04" />
        <path d="M-570.24,-120.82L-572.11,-115.49L-578.49,-107.11L-587.24,-90.28L-586.81,-89.82" />
        <path d="M-544.92,-112.37L-547.68,-107.06L-556.09,-83.98L-557.13,-75.06L-564.94,-61.35" />
        <path d="M-596.28,-55.60L-591.39,-54.62L-584.22,-56.30L-574.83,-57.04L-564.45,-63.57" />
        <path d="M-532.11,-112.53L-522.91,-92.21L-516.95,-73.08L-513.87,-66.00L-509.96,-60.33L-509.89,-58.97" />
        <path d="M-507.77,-122.84L-494.17,-95.96L-486.33,-84.16L-479.31,-70.96L-475.47,-66.64" />
        <path d="M-507.02,-55.96L-507.02,-55.96" />
        <path d="M-507.02,-55.96L-507.02,-55.96" />
        <path d="M-506.68,-55.22L-507.02,-55.96L-506.68,-55.22" />
        <path d="M-504.98,-51.54L-506.52,-55.08L-502.61,-49.40L-491.56,-36.86L-480.23,-27.50L-469.48,-20.83L-448.11,-9.73L-438.90,-6.59L-421.56,-3.42L-411.19,-3.95L-406.79,-6.44L-404.70,-9.71L-404.89,-13.32L-406.52,-18.66L-409.46,-23.03L-412.76,-25.57L-434.54,-35.75L-441.53,-39.91L-450.76,-43.50L-462.00,-51.06L-473.82,-60.84L-478.10,-73.73" />
      </g>
    </g>
    <g id="t1" transform="translate(-469.70 -50.83)" class="thread">
      <g id="f0" style="--index:0; opacity:1;" class="frame">
        <path d="M258.38,-80.14L257.46,-64.86L259.00,-59.82L259.93,-59.85" />
        <path d="M256.20,-91.17L254.95,-86.51L255.25,-61.56L255.53,-52.32L257.52,-47.76" />
        <path d="M285.24,-78.65L279.92,-71.09L267.40,-57.31L265.20,-53.54L264.39,-49.82" />
        <path d="M416.83,128.59L417.26,127.65L416.83,128.59" />
        <path d="M416.84,129.05L416.84,129.05" />
        <path d="M398.49,118.52L401.84,122.11L412.24,129.65L415.95,130.00L416.84,129.05L416.04,133.24L412.58,140.74L409.06,146.85L402.38,154.92" />
        <path d="M197.25,-174.89L206.85,-178.42L213.30,-179.08" />
        <path d="M219.87,-176.04L217.22,-171.80L216.41,-168.08L216.34,-155.13" />
      </g>
      <g id="f1" style="--index:1; opacity:0;" class="frame">
        <path d="M279.24,-139.02L277.55,-133.89L277.25,-128.33L277.34,-125.56L279.30,-121.92" />
        <path d="M277.51,-120.02L281.73,-117.84L284.95,-118.40L301.82,-126.31" />
        <path d="M292.76,-120.02L299.60,-123.00L307.31,-127.86" />
        <path d="M386.49,149.39L390.49,144.18L391.25,138.61" />
        <path d="M149.36,-17.19L149.12,-25.04L149.90,-29.69L155.40,-46.50L170.15,-78.38L177.18,-90.15" />
        <path d="M180.54,-86.09L178.86,-80.49L174.13,-38.75L173.91,-30.88L175.00,-25.37L176.93,-22.65" />
        <path d="M176.14,-33.26L176.34,-11.54L178.39,-5.13" />
      </g>
      <g id="f2" style="--index:2; opacity:0;" class="frame">
        <path d="M306.54,-168.52L305.85,-160.64L308.81,-154.72L311.66,-152.03" />
        <path d="M311.10,-155.25L316.70,-153.57L324.58,-152.89" />
        <path d="M134.35,81.73L135.52,74.76L137.66,69.15L146.48,55.01L147.83,54.04" />
        <path d="M155.89,45.48L157.92,51.43L159.76,66.16L162.38,76.25L165.29,80.79L167.18,82.11" />
        <path d="M168.51,80.23L168.72,87.15L170.18,89.42L172.05,90.29" />
      </g>
      <g id="f3" style="--index:3; opacity:0;" class="frame">
        <path d="M340.73,-169.10L343.85,-172.89L348.83,-176.28" />
        <path d="M285.57,-7.01L298.20,-2.31L302.96,2.17L305.41,6.71L307.49,14.51" />
        <path d="M323.60,-18.34L322.52,-8.14L320.87,-1.62L313.53,15.25" />
        <path d="M147.28,141.89L147.00,147.91L145.12,147.04L143.62,143.39L142.04,136.96L141.14,122.66" />
        <path d="M144.44,109.62L146.46,115.10L153.02,118.14L162.30,119.24L170.61,118.99" />
        <path d="M147.35,114.15L143.74,117.04L143.52,124.90" />
      </g>
      <g id="f4" style="--index:4; opacity:0;" class="frame">
        <path d="M370.12,-84.47L367.83,-98.73L364.70,-110.66" />
        <path d="M366.45,-113.95L360.66,-121.63" />
        <path d="M363.90,-121.73L376.42,-120.26L386.26,-115.94" />
        <path d="M372.83,-116.91L377.44,-117.05L382.11,-115.81L386.33,-113.63L390.60,-110.06L392.53,-107.35L394.48,-104.17L396.51,-98.22" />
        <path d="M262.71,-89.98L272.20,-81.95L275.63,-75.58L284.75,-64.31L288.20,-57.48L293.75,-41.93L296.57,-40.63" />
        <path d="M298.71,-106.80L299.93,-81.87L298.98,-67.51L299.02,-51.34L297.04,-40.18" />
        <path d="M163.01,142.34L157.83,154.51L157.52,159.61L164.14,164.49L169.74,166.17" />
      </g>
      <g id="f5" style="--index:5; opacity:0;" class="frame">
        <path d="M389.49,-10.18L393.94,-0.61L396.02,7.19L397.13,13.16L397.51,25.63" />
        <path d="M393.50,0.33L393.64,4.95L395.18,9.99L396.60,26.12L396.18,42.78" />
        <path d="M392.82,-7.04L405.71,6.43L413.03,19.15" />
        <path d="M399.93,-1.25L402.82,2.82L410.44,9.98L414.76,15.40L419.65,24.03L422.74,34.57" />
        <path d="M244.28,-133.34L250.76,-133.07L259.24,-127.78L263.06,-123.74L267.96,-114.64L269.98,-109.16L271.41,-107.81" />
        <path d="M278.93,-149.18L274.20,-122.23L273.58,-112.50" />
      </g>
      <g id="f6" style="--index:6; opacity:0;" class="frame">
        <path d="M403.18,90.18L414.86,79.19" />
        <path d="M414.80,77.34L416.41,69.43L424.61,80.74L427.64,88.97" />
        <path d="M427.50,84.35L429.99,90.28L430.29,99.98" />
        <path d="M241.80,-154.06L246.43,-153.74L249.26,-151.98L252.14,-148.37" />
        <path d="M254.03,-177.55L252.83,-171.50L252.80,-157.17" />
        <path d="M231.18,-2.12L228.55,2.59L229.12,21.52L232.75,34.35L235.56,35.65L237.38,34.67" />
        <path d="M237.48,37.91L239.62,32.29L243.61,26.63L257.04,12.35L262.00,8.04L264.74,7.03" />
      </g>
      <g id="f7" style="--index:7; opacity:0;" class="frame">
        <path d="M397.06,117.17L401.77,119.80L406.90,121.50L411.52,121.36L414.26,120.35L411.31,129.68L408.92,142.24" />
        <path d="M200.47,-175.45L211.05,-177.16L217.53,-176.90" />
        <path d="M216.66,-175.02L220.89,-172.84L218.04,-160.27L217.98,-146.86" />
        <path d="M256.03,-96.71L253.41,-91.55L250.08,-79.43L245.30,-54.32L245.21,-42.30L246.75,-37.26L247.70,-36.37" />
        <path d="M248.26,-33.15L250.36,-40.14L266.38,-60.51L274.44,-69.08" />
        <path d="M252.81,-35.60L272.28,-63.93L287.88,-82.89L295.50,-90.98" />
      </g>
      <g id="f8" style="--index:8; opacity:0;" class="frame">
        <path d="M392.89,146.88L394.52,139.90" />
        <path d="M150.80,-15.38L150.59,-22.31L154.35,-35.37L164.71,-59.72L169.07,-68.18L176.14,-79.02" />
        <path d="M180.80,-77.78L176.61,-63.32L173.41,-47.04L172.38,-35.46L172.72,-24.37L173.74,-21.17L176.13,-18.47" />
        <path d="M283.10,-148.85L279.53,-144.58L276.36,-127.38L275.67,-119.50" />
        <path d="M281.19,-120.59L303.12,-129.12" />
      </g>
      <g id="f9" style="--index:9; opacity:0;" class="frame">
        <path d="M142.78,70.38L149.25,54.93" />
        <path d="M148.80,55.40L150.44,48.42L155.28,40.41L158.41,37.08" />
        <path d="M161.62,36.06L161.04,47.63L161.52,63.33L162.66,70.23" />
        <path d="M164.55,71.56L165.68,78.46L168.75,88.08L171.18,92.16" />
        <path d="M311.15,-183.91L306.61,-181.46L304.39,-178.16L302.40,-167.93" />
        <path d="M301.50,-166.97L305.29,-163.85L314.63,-160.90" />
      </g>
      <g id="f10" style="--index:10; opacity:0;" class="frame">
        <path d="M294.59,-0.16L301.56,3.54L310.59,12.12L319.82,24.30L324.89,34.89" />
        <path d="M324.69,-12.57L325.82,26.70" />
        <path d="M144.73,134.11L142.26,129.10L142.15,125.41L141.98,119.86L144.09,113.33" />
        <path d="M144.54,112.85L153.85,114.88L162.16,114.63" />
        <path d="M334.67,-155.51L336.07,-170.34L336.02,-171.73L335.07,-172.62" />
        <path d="M334.55,-174.45L339.97,-178.78L345.92,-180.81L353.29,-181.50" />
      </g>
      <g id="f11" style="--index:11; opacity:0;" class="frame">
        <path d="M267.61,-80.89L272.78,-77.81L277.75,-66.40L282.11,-60.07L286.11,-50.02L294.96,-32.72L301.58,-12.58" />
        <path d="M301.72,-99.03L304.98,-37.65L303.21,-20.03" />
        <path d="M166.14,139.00L162.10,142.83L161.23,144.70L160.03,150.75L160.15,154.90L163.09,160.36L166.38,162.11L168.23,162.05" />
        <path d="M351.40,-137.52L356.62,-133.06L359.08,-128.05L360.62,-123.01L365.64,-94.97L369.18,-84.91" />
        <path d="M355.54,-138.11L360.19,-137.33L365.90,-131.96L377.92,-116.61L386.44,-109.93" />
        <path d="M389.75,-107.72L389.75,-107.72" />
        <path d="M389.78,-106.80L389.75,-107.72L389.78,-106.80" />
        <path d="M389.79,-106.34L389.79,-106.34" />
        <path d="M389.79,-106.34L389.79,-106.34" />
        <path d="M394.98,-102.80L389.79,-106.34L389.83,-104.95L393.77,-97.21L396.65,-93.60" />
      </g>
      <g id="f12" style="--index:12; opacity:0;" class="frame">
        <path d="M243.34,-133.77L259.86,-122.72L262.79,-117.72L265.87,-107.64" />
        <path d="M279.55,-144.12L280.61,-139.53L279.09,-128.85L273.14,-111.56L271.94,-105.52" />
        <path d="M393.21,-24.62L398.37,-6.75L400.56,4.28L403.92,38.84" />
        <path d="M393.01,-31.09" />
        <path d="M389.56,-37.92L391.12,-32.42L407.22,-4.71L413.47,3.42L421.55,10.57" />
        <path d="M419.76,12.47L423.60,16.98L426.54,22.44L428.09,27.94L428.51,41.79" />
      </g>
      <g id="f13" style="--index:13; opacity:0;" class="frame">
        <path d="M237.32,-149.30L242.42,-149.00L248.49,-146.87" />
        <path d="M252.01,-167.78L252.23,-160.85L249.82,-148.76" />
        <path d="M229.30,-2.98L229.61,22.43L231.62,27.45" />
        <path d="M235.96,33.33L242.22,26.67L249.43,20.44L253.52,18.00" />
        <path d="M253.63,21.70L255.34,17.02L263.52,12.61" />
        <path d="M412.33,87.12L413.07,81.09L415.15,73.63" />
        <path d="M419.08,66.12L422.95,71.55L428.87,83.85L431.60,97.63" />
      </g>
      <g id="f14" style="--index:14; opacity:0;" class="frame">
        <path d="M198.64,-174.93L202.23,-178.28L208.19,-179.85L208.28,-177.08L210.34,-170.21" />
        <path d="M254.87,-89.28L253.69,-82.31L254.10,-68.92L255.22,-62.48" />
        <path d="M256.54,-80.09L254.09,-69.38L252.69,-54.55L253.30,-34.69L254.78,-31.50" />
        <path d="M259.62,-39.50L261.75,-45.58L270.06,-61.08L273.60,-66.28L281.21,-74.37" />
        <path d="M271.99,-58.37L273.70,-63.04L279.48,-70.62L289.34,-80.62" />
        <path d="M403.18,120.68L407.88,123.31L411.14,124.14L416.69,123.97" />
        <path d="M418.10,124.85L416.44,130.91L411.69,142.15L401.93,155.39" />
      </g>
      <g id="f15" style="--index:15; opacity:0;" class="frame">
        <path d="M160.21,-25.38L162.28,-33.30L168.33,-46.89L173.00,-60.44L179.94,-75.44L181.73,-77.34L179.47,-45.38L179.78,-19.97" />
        <path d="M164.15,-32.43L159.63,-29.06L157.42,-25.76L154.90,-17.36L154.64,-10.88" />
        <path d="M278.55,-146.40L276.99,-137.11L277.27,-127.87L277.87,-123.26L279.31,-121.46" />
        <path d="M278.26,-125.59L277.05,-120.00L277.16,-116.31L277.69,-114.01L279.13,-112.21" />
        <path d="M280.48,-113.64L289.04,-120.83L304.03,-129.61" />
        <path d="M298.64,-124.36L302.70,-127.72L310.42,-132.12L317.28,-134.64L321.88,-135.24" />
        <path d="M385.22,153.13L390.20,149.74L393.26,144.10" />
        <path d="M393.44,134.85L393.64,141.31L392.82,144.58" />
      </g>
      <g id="f16" style="--index:16; opacity:0;" class="frame">
        <path d="M138.81,76.51L151.84,64.09" />
        <path d="M157.25,59.77L161.58,65.18L166.65,79.82" />
        <path d="M306.61,-181.46L303.04,-177.19L300.42,-172.03L297.89,-164.09L298.00,-160.40L298.93,-160.42" />
        <path d="M296.24,-157.57L301.82,-156.35L318.90,-157.34" />
      </g>
      <g id="f17" style="--index:17; opacity:0;" class="frame">
        <path d="M157.21,118.94L158.90,113.80L159.81,113.31L165.04,118.24L166.92,119.10L169.69,119.02" />
        <path d="M166.35,115.42L171.06,118.51" />
        <path d="M335.63,-169.40L335.31,-164.77L337.04,-153.73" />
        <path d="M336.39,-174.97L341.37,-178.36L345.50,-179.41L357.49,-180.24L359.37,-179.37" />
        <path d="M290.26,-4.84L295.43,-2.23L304.04,7.22L310.66,12.10" />
        <path d="M324.76,-25.77L325.21,-10.99L323.55,10.32" />
        <path d="M323.89,6.61L321.28,11.78L320.10,18.75L320.23,22.90" />
        <path d="M311.13,12.55L317.33,18.83" />
      </g>
      <g id="f18" style="--index:18; opacity:0;" class="frame">
        <path d="M360.29,-118.84L361.38,-113.33L367.43,-96.87L370.09,-85.40" />
        <path d="M359.95,-114.67L363.29,-96.28L364.62,-82.92L365.14,-81.09L366.07,-80.65" />
        <path d="M357.54,-117.83L363.09,-118.00L379.81,-115.28L400.34,-108.97" />
        <path d="M384.93,-114.05L391.51,-110.55L396.72,-106.55L400.54,-102.50L405.41,-94.33" />
        <path d="M267.00,-85.49L270.35,-81.89L276.93,-78.40L281.20,-74.83L284.12,-69.83L288.64,-57.95L291.58,-52.50L294.87,-50.75" />
        <path d="M294.88,-35.49L300.76,-69.88L301.84,-80.08" />
        <path d="M302.28,-80.56L302.59,-100.91L302.45,-105.52L301.43,-108.73" />
        <path d="M159.55,150.30L159.23,154.93L160.24,157.67L162.16,159.93L164.02,160.33" />
      </g>
      <g id="f19" style="--index:19; opacity:0;" class="frame">
        <path d="M391.67,-14.41L395.87,2.11L397.56,12.23L398.13,30.70L395.49,50.19" />
        <path d="M389.50,-24.97L393.32,-20.93L402.11,-5.48L405.45,-1.88L414.74,14.48L421.02,23.53L425.53,34.95" />
        <path d="M247.91,-135.76L250.34,-131.67L257.89,-126.82L265.04,-119.64" />
        <path d="M271.10,-117.97L275.60,-121.81L279.03,-130.70L281.83,-145.11L281.89,-158.06" />
      </g>
      <g id="f20" style="--index:20; opacity:0;" class="frame">
        <path d="M233.84,9.36L235.95,18.08L235.44,31.50" />
        <path d="M239.91,26.74L243.97,23.38L261.24,13.61" />
        <path d="M403.23,92.02L406.74,85.91L409.28,77.97" />
        <path d="M410.10,74.71L409.73,62.70" />
        <path d="M409.30,63.64L422.65,77.10L425.61,83.02L426.20,87.16" />
        <path d="M420.84,78.08L427.22,90.37L429.25,96.32L429.69,110.63" />
        <path d="M244.61,-152.76L252.07,-150.68L257.24,-148.06" />
        <path d="M258.57,-149.95L259.66,-159.69L259.29,-171.70L258.23,-176.29L253.28,-186.77" />
      </g>
    </g>
    <g id="t2" transform="translate(-119.94 41.48)" class="thread">
      <g id="f0" style="--index:0; opacity:1;" class="frame">
        <path d="M-71.38,-196.98L-71.38,-196.98" />
      </g>
      <g id="f1" style="--index:1; opacity:0;" class="frame">
        <path d="M-46.23,-244.66L-46.23,-244.66" />
      </g>
      <g id="f2" style="--index:2; opacity:0;" class="frame">
        <path d="M-18.74,-270.43L-18.74,-270.43" />
      </g>
      <g id="f3" style="--index:3; opacity:0;" class="frame">
        <path d="M11.65,-249.23L11.65,-249.23" />
      </g>
      <g id="f4" style="--index:4; opacity:0;" class="frame">
        <path d="M43.74,-167.97L43.74,-167.97" />
      </g>
      <g id="f5" style="--index:5; opacity:0;" class="frame">
        <path d="M68.61,-41.13L68.61,-41.13" />
      </g>
      <g id="f6" style="--index:6; opacity:0;" class="frame">
        <path d="M65.28,18.75L65.28,18.75" />
      </g>
      <g id="f7" style="--index:7; opacity:0;" class="frame">
        <path d="M37.29,44.55L37.29,44.55" />
      </g>
      <g id="f8" style="--index:8; opacity:0;" class="frame">
        <path d="M19.68,43.63L19.68,43.63" />
      </g>
      <g id="f9" style="--index:9; opacity:0;" class="frame">
        <path d="M7.71,20.29L7.71,20.29" />
      </g>
      <g id="f10" style="--index:10; opacity:0;" class="frame">
        <path d="M-49.52,-119.09L-49.52,-119.09" />
      </g>
      <g id="f11" style="--index:11; opacity:0;" class="frame">
        <path d="M-71.47,-198.48L-71.47,-198.48" />
      </g>
      <g id="f12" style="--index:12; opacity:0;" class="frame">
        <path d="M-91.53,-247.38L-91.53,-247.38" />
      </g>
      <g id="f13" style="--index:13; opacity:0;" class="frame">
        <path d="M-120.83,-267.14L-120.83,-267.14" />
      </g>
      <g id="f14" style="--index:14; opacity:0;" class="frame">
        <path d="M-150.98,-243.72L-150.98,-243.72" />
      </g>
      <g id="f15" style="--index:15; opacity:0;" class="frame">
        <path d="M-186.70,-91.08L-186.70,-91.08" />
      </g>
      <g id="f16" style="--index:16; opacity:0;" class="frame">
        <path d="M-198.30,5.41L-198.30,5.41" />
      </g>
      <g id="f17" style="--index:17; opacity:0;" class="frame">
        <path d="M-180.61,48.45L-180.61,48.45" />
      </g>
      <g id="f18" style="--index:18; opacity:0;" class="frame">
        <path d="M-164.41,50.96L-164.41,50.96" />
      </g>
      <g id="f19" style="--index:19; opacity:0;" class="frame">
        <path d="M-140.00,41.00L-140.00,41.00" />
      </g>
      <g id="f20" style="--index:20; opacity:0;" class="frame">
        <path d="M-97.18,-103.12L-97.18,-103.12" />
      </g>
    </g>
    <g id="t3" transform="translate(-119.94 41.48)" class="thread">
      <g id="f0" style="--index:0; opacity:1;" class="frame">
        <path d="M-150.98,-243.72L-150.98,-243.72" />
      </g>
      <g id="f1" style="--index:1; opacity:0;" class="frame">
        <path d="M-186.70,-91.08L-186.70,-91.08" />
      </g>
      <g id="f2" style="--index:2; opacity:0;" class="frame">
        <path d="M-198.30,5.41L-198.30,5.41" />
      </g>
      <g id="f3" style="--index:3; opacity:0;" class="frame">
        <path d="M-180.61,48.45L-180.61,48.45" />
      </g>
      <g id="f4" style="--index:4; opacity:0;" class="frame">
        <path d="M-164.41,50.96L-164.41,50.96" />
      </g>
      <g id="f5" style="--index:5; opacity:0;" class="frame">
        <path d="M-140.00,41.00L-140.00,41.00" />
      </g>
      <g id="f6" style="--index:6; opacity:0;" class="frame">
        <path d="M-97.18,-103.12L-97.18,-103.12" />
      </g>
      <g id="f7" style="--index:7; opacity:0;" class="frame">
        <path d="M-71.38,-196.98L-71.38,-196.98" />
      </g>
      <g id="f8" style="--index:8; opacity:0;" class="frame">
        <path d="M-46.23,-244.66L-46.23,-244.66" />
      </g>
      <g id="f9" style="--index:9; opacity:0;" class="frame">
        <path d="M-18.74,-270.43L-18.74,-270.43" />
      </g>
      <g id="f10" style="--index:10; opacity:0;" class="frame">
        <path d="M11.65,-249.23L11.65,-249.23" />
      </g>
      <g id="f11" style="--index:11; opacity:0;" class="frame">
        <path d="M43.74,-167.97L43.74,-167.97" />
      </g>
      <g id="f12" style="--index:12; opacity:0;" class="frame">
        <path d="M68.61,-41.13L68.61,-41.13" />
      </g>
      <g id="f13" style="--index:13; opacity:0;" class="frame">
        <path d="M65.28,18.75L65.28,18.75" />
      </g>
      <g id="f14" style="--index:14; opacity:0;" class="frame">
        <path d="M37.29,44.55L37.29,44.55" />
      </g>
      <g id="f15" style="--index:15; opacity:0;" class="frame">
        <path d="M19.68,43.63L19.68,43.63" />
      </g>
      <g id="f16" style="--index:16; opacity:0;" class="frame">
        <path d="M7.71,20.29L7.71,20.29" />
      </g>
      <g id="f17" style="--index:17; opacity:0;" class="frame">
        <path d="M-49.52,-119.09L-49.52,-119.09" />
      </g>
      <g id="f18" style="--index:18; opacity:0;" class="frame">
        <path d="M-71.47,-198.48L-71.47,-198.48" />
      </g>
      <g id="f19" style="--index:19; opacity:0;" class="frame">
        <path d="M-91.53,-247.38L-91.53,-247.38" />
      </g>
      <g id="f20" style="--index:20; opacity:0;" class="frame">
        <path d="M-120.83,-267.14L-120.83,-267.14" />
      </g>
    </g>
    <g id="t4" transform="translate(-119.94 41.48)" class="thread">
      <g id="f0" style="--index:0; opacity:1;" class="frame">
        <path d="M37.29,44.55L37.29,44.55" />
      </g>
      <g id="f1" style="--index:1; opacity:0;" class="frame">
        <path d="M19.68,43.63L19.68,43.63" />
      </g>
      <g id="f2" style="--index:2; opacity:0;" class="frame">
        <path d="M7.71,20.29L7.71,20.29" />
      </g>
      <g id="f3" style="--index:3; opacity:0;" class="frame">
        <path d="M-49.52,-119.09L-49.52,-119.09" />
      </g>
      <g id="f4" style="--index:4; opacity:0;" class="frame">
        <path d="M-71.47,-198.48L-71.47,-198.48" />
      </g>
      <g id="f5" style="--index:5; opacity:0;" class="frame">
        <path d="M-91.53,-247.38L-91.53,-247.38" />
      </g>
      <g id="f6" style="--index:6; opacity:0;" class="frame">
        <path d="M-120.83,-267.14L-120.83,-267.14" />
      </g>
      <g id="f7" style="--index:7; opacity:0;" class="frame">
        <path d="M-150.98,-243.72L-150.98,-243.72" />
      </g>
      <g id="f8" style="--index:8; opacity:0;" class="frame">
        <path d="M-186.70,-91.08L-186.70,-91.08" />
      </g>
      <g id="f9" style="--index:9; opacity:0;" class="frame">
        <path d="M-198.30,5.41L-198.30,5.41" />
      </g>
      <g id="f10" style="--index:10; opacity:0;" class="frame">
        <path d="M-180.61,48.45L-180.61,48.45" />
      </g>
      <g id="f11" style="--index:11; opacity:0;" class="frame">
        <path d="M-164.41,50.96L-164.41,50.96" />
      </g>
      <g id="f12" style="--index:12; opacity:0;" class="frame">
        <path d="M-140.00,41.00L-140.00,41.00" />
      </g>
      <g id="f13" style="--index:13; opacity:0;" class="frame">
        <path d="M-97.18,-103.12L-97.18,-103.12" />
      </g>
      <g id="f14" style="--index:14; opacity:0;" class="frame">
        <path d="M-71.38,-196.98L-71.38,-196.98" />
      </g>
      <g id="f15" style="--index:15; opacity:0;" class="frame">
        <path d="M-46.23,-244.66L-46.23,-244.66" />
      </g>
      <g id="f16" style="--index:16; opacity:0;" class="frame">
        <path d="M-18.74,-270.43L-18.74,-270.43" />
      </g>
      <g id="f17" style="--index:17; opacity:0;" class="frame">
        <path d="M11.65,-249.23L11.65,-249.23" />
      </g>
      <g id="f18" style="--index:18; opacity:0;" class="frame">
        <path d="M43.74,-167.97L43.74,-167.97" />
      </g>
      <g id="f19" style="--index:19; opacity:0;" class="frame">
        <path d="M68.61,-41.13L68.61,-41.13" />
      </g>
      <g id="f20" style="--index:20; opacity:0;" class="frame">
        <path d="M65.28,18.75L65.28,18.75" />
      </g>
    </g>
  </g>
</svg>