<?xml version="1.0" encoding="utf-8"?>
<svg width="1194" height="834" viewBox="-597 -417 1194 834" xmlns="http://www.w3.org/2000/svg">
  <style>
svg { background-color:#926EAE; }

#looom { --version:2; }

#t0 {
--visible:1; --timeOffset:6.666674; --speed:12; --bookmarkIndex:-1; --latched:0; --playMode:0; --masked:0; --blendMode:0; 
stroke:#F3C377; stroke-opacity:1; fill-opacity:0; stroke-width:10; stroke-linecap:round; stroke-linejoin:round;
}
@keyframes t0 { 0% { opacity: 1; } 5% { opacity: 0; } }
#t0 .frame { animation:t0 1.666667s calc(var(--index) * 0.08333334s) steps(1) infinite; }

#t1 {
--visible:1; --timeOffset:6.666674; --speed:12; --bookmarkIndex:-1; --latched:0; --playMode:0; --masked:0; --blendMode:0; 
stroke:#F3C377; stroke-opacity:1; fill-opacity:0; stroke-width:10; stroke-linecap:round; stroke-linejoin:round;
}
@keyframes t1 { 0% { opacity: 1; } 5% { opacity: 0; } }
#t1 .frame { animation:t1 1.666667s calc(var(--index) * 0.08333334s) steps(1) infinite; }

#t2 {
--visible:1; --timeOffset:6.666674; --speed:12; --bookmarkIndex:-1; --latched:0; --playMode:0; --masked:0; --blendMode:0; 
stroke:#F3C377; stroke-opacity:1; fill-opacity:0; stroke-width:10; stroke-linecap:round; stroke-linejoin:round;
}
@keyframes t2 { 0% { opacity: 1; } 5% { opacity: 0; } }
#t2 .frame { animation:t2 1.666667s calc(var(--index) * 0.08333334s) steps(1) infinite; }

</style>
  <g id="w0" transform="translate(296.50 61.75) scale(1.58 1.58) rotate(-3.23)" class="weave">
    <g id="t0" transform="translate(210.03 365.31) scale(0.91 0.91) rotate(-6.94)" class="thread">
      <g id="f0" transform="translate(-183.65 -490.73)" style="--index:0; opacity:1;" class="frame">
        <path d="M-195.77,-6.05L-195.84,8.00L-194.96,12.09" />
        <path d="M-195.45,21.15L-193.22,27.96L-190.07,32.97L-183.80,47.51L-174.36,64.78L-165.84,83.41L-160.00,93.87L-150.59,115.68L-148.78,116.59" />
        <path d="M-192.60,-5.13L-183.11,1.27L-176.78,4.47L-171.82,9.03" />
        <path d="M-167.31,14.04L-164.16,18.14L-162.37,23.13L-153.39,40.86L-147.99,48.14L-140.79,59.96L-139.88,59.97L-137.18,63.15L-130.43,72.71L-125.95,83.16L-119.64,91.80L-112.45,104.08L-117.89,104.05L-122.43,105.85L-127.89,108.99L-130.17,111.70L-133.35,113.50L-138.80,114.38L-140.62,115.73L-142.89,116.17" />
        <path d="M-196.33,14.35L-195.47,23.87" />
        <path d="M-194.91,3.02L-189.91,1.23" />
      </g>
      <g id="f1" transform="translate(-183.65 -490.73)" style="--index:1; opacity:0;" class="frame">
        <path d="M-191.23,-6.93L-189.93,4.86L-188.59,8.04" />
        <path d="M-190.39,5.76L-189.98,13.47" />
        <path d="M-189.53,15.74L-186.39,20.74L-185.05,24.83L-177.39,35.30L-175.15,40.30L-158.96,67.58L-156.28,74.85L-149.08,85.31L-142.34,98.49L-140.57,105.30L-137.86,108.94L-136.05,108.95L-125.58,100.39L-115.13,95.00L-109.66,90.04L-108.75,90.05L-107.84,88.69L-109.65,88.23L-115.95,78.22L-129.02,63.20L-134.41,54.10L-141.17,45.00L-144.76,37.73L-154.67,25.44L-157.82,19.53L-159.60,13.63L-165.92,8.15L-170.42,0.88L-172.68,-0.95" />
        <path d="M-192.14,-7.39L-187.61,-6.46L-174.04,0.86" />
        <path d="M-183.56,-0.55L-183.13,3.99L-184.94,4.43" />
      </g>
      <g id="f2" transform="translate(-183.65 -490.73)" style="--index:2; opacity:0;" class="frame">
        <path d="M-184.36,-20.95L-188.90,-19.62L-201.17,-13.79" />
        <path d="M-196.65,-11.50L-190.76,-10.11L-177.64,-5.05" />
        <path d="M-187.10,-17.34L-178.47,-21.38" />
        <path d="M-176.65,-21.37L-177.17,-8.22" />
        <path d="M-172.12,-20.89L-147.62,-25.76L-96.84,-25.96L-89.58,-26.83L-78.70,-26.77L-73.71,-27.65L-53.31,-26.65L-50.13,-27.99L-44.69,-27.96" />
        <path d="M-177.19,-4.14L-170.84,-5.93L-153.16,-5.84L-141.82,-7.14L-115.98,-6.56L-102.37,-7.85L-90.58,-7.79L-70.65,-5.42L-50.24,-5.77L-46.17,-4.85" />
        <path d="M-37.11,-3.44L-37.11,-3.44" />
        <path d="M-37.11,-3.44L-37.11,-3.44" />
        <path d="M-49.24,-25.72L-41.52,-27.49L-35.63,-27.46L-35.65,-21.57L-37.97,-12.06L-38.00,-5.26L-37.11,-3.44L-48.89,-3.95" />
        <path d="M-181.22,-15.05L-182.15,-10.52" />
      </g>
      <g id="f3" transform="translate(-183.65 -490.73)" style="--index:3; opacity:0;" class="frame">
        <path d="M-203.84,-24.68L-198.35,-35.08L-195.15,-39.60L-192.87,-41.40L-188.76,-49.09" />
        <path d="M-200.21,-25.57L-192.94,-29.16L-184.77,-29.57L-176.60,-31.80" />
        <path d="M-183.77,-49.51L-179.22,-52.21L-152.37,-72.93L-141.91,-79.23L-133.26,-86.44L-123.71,-92.28L-119.15,-96.79L-84.13,-119.74L-74.11,-128.30L-64.56,-133.70L-55.45,-142.26L-50.91,-144.06L-46.42,-134.97L-42.36,-131.77L-42.36,-130.41L-41.46,-129.50L-41.92,-128.60L-63.30,-114.65L-68.31,-109.69L-73.31,-106.99L-80.59,-101.59L-89.70,-93.02L-101.97,-87.64L-123.35,-72.79L-131.53,-68.29L-139.73,-61.08L-152.93,-51.17L-163.84,-44.43L-170.68,-37.66L-177.05,-33.16" />
        <path d="M-194.27,-34.15L-192.93,-29.61L-193.35,-36.87L-190.20,-32.32L-188.39,-32.31L-189.73,-34.58L-191.09,-35.04" />
      </g>
      <g id="f4" transform="translate(-183.65 -490.73)" style="--index:4; opacity:0;" class="frame">
        <path d="M-50.50,-169.00L-61.00,-163.50L-74.50,-153.00L-128.50,-105.00L-149.50,-88.50L-163.00,-79.00L-174.00,-69.00L-190.50,-58.00L-191.50,-58.00L-193.00,-56.00L-200.50,-34.00L-205.50,-26.50L-198.50,-29.50L-179.50,-35.00L-177.00,-36.50L-168.50,-46.50L-144.50,-68.50L-121.50,-86.50L-76.50,-126.50L-50.50,-146.50L-46.50,-151.50L-46.00,-155.00L-45.00,-155.50L-44.50,-157.50L-51.50,-162.50" />
        <path d="M-195.50,-35.00" />
      </g>
      <g id="f5" transform="translate(-183.65 -490.73)" style="--index:5; opacity:0;" class="frame">
        <path d="M-207.00,-21.00L-186.50,-16.00" />
        <path d="M-177.00,-33.00L-183.00,-18.50L-174.50,-18.50L-162.00,-21.00" />
        <path d="M-172.00,-35.50L-163.50,-43.50L-112.50,-80.00L-98.00,-94.50L-82.50,-105.50L-39.50,-143.50L-37.00,-144.50L-34.00,-144.50L-25.50,-139.50L-25.00,-138.00L-28.00,-135.00L-29.00,-132.50L-37.00,-124.00L-75.00,-92.50L-102.00,-72.50L-123.00,-53.00L-137.00,-38.00L-142.00,-35.00L-158.50,-21.00L-160.00,-20.50" />
        <path d="M-174.22,-22.44L-172.00,-22.00L-171.00,-21.00L-174.22,-22.44" />
        <path d="M-177.00,-23.00L-174.22,-22.44L-175.00,-24.50L-172.50,-21.50" />
      </g>
      <g id="f6" transform="translate(-183.65 -490.73)" style="--index:6; opacity:0;" class="frame">
        <path d="M-185.00,-11.50L-182.50,-6.50L-176.50,-0.50L-170.50,14.50L-163.00,26.50L-162.00,27.00" />
        <path d="M-154.50,15.00" />
        <path d="M-153.00,12.00L-161.50,28.00L-149.00,26.00L-140.00,26.00" />
        <path d="M-153.00,19.50L-150.50,24.00L-149.00,24.50" />
        <path d="M-149.50,10.50L-146.50,6.00L-134.00,0.00L-117.00,-12.00L-100.00,-21.00L-73.50,-38.00L-59.50,-50.00L-43.00,-62.50L-14.00,-82.00L-11.50,-81.50L-1.50,-73.50L-5.00,-69.50L-25.50,-52.00L-33.50,-44.00L-65.50,-22.50L-83.50,-12.00L-126.00,17.00L-134.50,21.50L-143.50,29.00" />
        <path d="M-207.56,-19.22L-185.67,-15.08" />
      </g>
      <g id="f7" transform="translate(-183.65 -490.73)" style="--index:7; opacity:0;" class="frame">
        <path d="M-207.04,-17.66L-201.30,-16.63L-187.23,-16.65L-186.71,-16.12" />
        <path d="M-186.71,-15.60L-185.66,-9.35L-183.05,-5.18L-173.12,17.74L-170.51,21.38L-162.14,39.09L-145.43,63.04L-135.52,75.54L-133.42,80.75L-129.25,86.47L-128.21,86.47L-122.98,95.85L-115.15,106.26L-112.54,111.47" />
        <path d="M-108.89,107.82L-109.42,107.82L-108.89,107.82" />
        <path d="M-108.89,107.82L-108.89,107.82" />
        <path d="M-104.22,93.74L-107.34,99.48L-108.90,104.17L-108.89,107.82L-103.16,108.85L-89.09,108.83" />
        <path d="M-96.93,90.60L-64.12,71.80L-35.48,54.04L-30.79,51.95L-10.48,38.89L-0.59,31.06L14.52,22.70L39.51,5.99L40.56,5.99L44.21,12.76L49.43,19.01L50.48,21.09L50.48,23.18L49.44,23.18L32.77,33.10L16.11,45.11L-15.14,63.40L-34.93,72.28L-46.91,78.55L-64.09,90.56L-70.34,93.70L-71.38,95.26L-84.40,102.57L-89.09,104.14" />
        <path d="M-105.77,105.73" />
      </g>
      <g id="f8" transform="translate(-183.65 -490.73)" style="--index:8; opacity:0;" class="frame">
        <path d="M-108.88,116.16L-95.85,116.66" />
        <path d="M-108.36,120.32L-104.69,131.79" />
        <path d="M-94.28,121.35" />
        <path d="M-92.20,119.78L-70.30,131.74L-62.47,136.94L-16.58,160.86L-6.14,167.10L0.12,172.30" />
        <path d="M-101.04,135.43L-95.30,139.59L-83.31,145.31L-65.06,152.58L-44.20,162.98L-29.59,171.30L-8.20,188.99L3.80,196.79L7.45,198.35L9.01,198.35L7.45,197.83" />
        <path d="M18.89,181.66L19.41,182.18L18.89,181.66" />
        <path d="M18.89,181.66L18.89,181.66" />
        <path d="M-4.58,167.62L3.24,171.26L18.89,181.66L19.42,183.74L9.01,195.22" />
        <path d="M-100.53,123.96" />
        <path d="M-207.04,-19.75L-201.83,-16.11L-186.19,-15.08" />
        <path d="M-184.36,-10.77L-175.99,3.85L-172.22,13.04L-168.04,17.63L-155.90,44.36L-145.44,59.81L-139.58,72.34L-134.98,79.02L-132.05,85.70L-122.01,99.90L-115.73,110.34L-114.06,114.93" />
      </g>
      <g id="f9" transform="translate(-183.65 -490.73)" style="--index:9; opacity:0;" class="frame">
        <path d="M-205.26,-19.94L-200.66,-17.02L-194.39,-15.77L-188.54,-13.27L-183.94,-10.35" />
        <path d="M-181.43,-9.10L-180.59,-4.50L-169.71,13.03L-156.74,44.78L-148.79,57.30L-146.69,62.32L-133.72,84.87L-126.19,101.57L-119.07,112.43L-115.31,116.19" />
        <path d="M-131.18,124.97L-123.66,122.88L-116.14,118.28" />
        <path d="M-132.43,129.15L-130.74,149.21" />
        <path d="M-129.92,131.24L-120.72,136.66L-113.62,142.09" />
        <path d="M-112.78,142.09L-117.79,145.02L-122.80,150.04" />
        <path d="M-128.65,152.13L-124.88,157.56L-116.10,167.58L-99.78,194.72L-92.25,210.59L-83.88,223.95L-76.77,237.32L-73.42,239.40" />
        <path d="M-113.61,143.34L-102.32,162.55L-96.46,170.90L-88.93,185.52L-81.82,195.12L-76.38,204.31L-67.18,215.17L-56.72,229.36L-55.88,232.70L-62.98,234.80L-69.66,238.57L-72.58,241.08" />
        <path d="M-124.90,142.10" />
      </g>
      <g id="f10" transform="translate(-183.65 -490.73)" style="--index:10; opacity:0;" class="frame">
        <path d="M-204.00,-19.11L-198.99,-16.19L-189.79,-13.27L-187.70,-11.60" />
        <path d="M-184.36,-9.52L-175.57,6.77L-171.39,12.62L-166.78,27.24L-160.50,39.35L-147.53,58.97L-137.91,76.93L-132.05,86.12L-129.12,92.80L-119.50,102.82L-118.66,110.76L-115.31,116.19" />
        <path d="M-115.31,117.44L-128.25,126.64" />
        <path d="M-131.18,128.73L-131.18,128.73" />
        <path d="M-131.18,128.73L-131.18,128.73" />
        <path d="M-124.08,125.39L-129.51,127.48L-131.18,128.32L-130.76,128.73" />
        <path d="M-134.93,131.66L-145.37,140.86L-153.72,146.30" />
        <path d="M-134.51,132.50L-136.18,144.20L-135.75,153.81" />
        <path d="M-137.00,156.32L-168.28,218.18L-184.55,245.35" />
        <path d="M-158.73,149.65L-172.08,171.80L-178.76,179.75L-189.19,194.80L-191.70,200.23L-206.72,224.90L-207.13,227.40L-200.44,233.67L-196.26,241.60L-193.33,244.52" />
        <path d="M-141.19,145.87" />
      </g>
      <g id="f11" transform="translate(-183.65 -490.73)" style="--index:11; opacity:0;" class="frame">
        <path d="M-200.66,-16.19L-188.96,-12.02" />
        <path d="M-183.94,-8.68L-165.11,25.98L-157.57,41.43L-137.07,75.68L-128.70,92.38L-121.59,103.66L-118.65,116.19" />
        <path d="M-132.43,126.23L-127.00,125.81L-117.81,120.78" />
        <path d="M-133.69,124.56L-142.05,113.29L-147.49,108.69L-150.00,103.26L-160.04,88.65" />
        <path d="M-178.85,83.23L-173.83,86.15L-166.31,87.82" />
        <path d="M-165.47,92.41L-166.29,104.11" />
        <path d="M-182.60,89.09L-203.05,111.67L-235.62,138.85L-263.59,163.95L-272.36,172.73L-277.37,176.91L-279.04,177.33L-274.86,181.50L-265.65,194.03L-263.15,190.27L-256.47,183.16L-245.20,173.54L-235.60,163.92L-219.73,151.37L-181.74,115.41L-175.90,110.81L-171.72,105.79L-170.47,105.37" />
        <path d="M-181.35,87.83L-173.82,99.52L-171.31,101.61" />
        <path d="M-173.82,93.68" />
      </g>
      <g id="f12" transform="translate(-183.65 -490.73)" style="--index:12; opacity:0;" class="frame">
        <path d="M-202.74,-12.84L-191.88,-11.18L-186.86,-9.10" />
        <path d="M-130.13,124.76L-130.34,125.39L-130.13,124.76" />
        <path d="M-187.70,-9.09L-186.03,-4.92L-178.91,3.43L-164.69,27.65L-154.65,40.60L-141.26,62.73L-123.68,103.66L-119.91,110.34L-117.40,113.26L-116.56,116.61L-126.59,121.63L-130.13,124.76L-137.45,118.71L-150.84,102.43L-159.62,86.98L-168.82,77.79L-174.68,66.52L-181.37,59.42L-184.72,53.57L-186.81,51.49L-191.42,39.38L-193.93,36.45L-195.60,32.69L-198.11,30.19" />
        <path d="M-217.34,24.36L-213.16,26.02L-206.05,26.02" />
        <path d="M-203.13,28.10L-205.21,34.79L-206.04,43.15" />
        <path d="M-221.09,27.28L-225.27,32.30L-231.53,37.32L-264.10,58.24L-284.56,76.22L-294.58,84.17L-298.34,85.85L-305.43,93.37L-318.38,103.83L-319.63,105.92L-310.85,112.18L-304.99,118.02L-302.07,122.20L-302.49,119.69L-301.65,117.18L-296.23,111.75L-268.25,89.58L-257.81,82.47L-239.44,66.99L-229.84,60.72L-216.06,49.01L-210.21,45.24" />
        <path d="M-206.89,28.53" />
      </g>
      <g id="f13" transform="translate(-183.65 -490.73)" style="--index:13; opacity:0;" class="frame">
        <path d="M-207.74,8.05" />
        <path d="M-207.32,7.22L-205.23,13.90L-201.88,18.08L-201.46,19.75L-193.10,32.69L-187.24,44.80L-177.20,57.33L-163.81,77.37L-153.76,97.00L-140.38,117.04L-139.12,121.64L-134.52,126.65L-133.27,126.65L-124.92,119.12L-117.82,115.77L-116.56,114.52L-116.57,110.76L-130.37,90.30L-134.98,76.93L-142.51,61.48L-155.48,42.69L-165.95,23.06L-169.29,18.47L-172.64,10.95L-178.08,3.43L-183.10,-1.16L-187.28,-9.09L-196.89,-9.09L-199.82,-9.92L-205.67,-9.50L-209.85,-10.75" />
        <path d="M-223.20,2.64L-215.68,3.46L-209.41,6.38" />
        <path d="M-209.83,7.22L-214.00,10.98L-217.34,15.58" />
        <path d="M-221.52,17.67L-242.82,26.47L-256.19,30.24L-269.13,36.52L-276.65,41.54L-283.33,44.47L-288.35,45.31L-297.53,49.08L-307.98,50.76L-313.41,50.76L-320.51,52.44L-323.43,54.95L-325.52,54.95L-329.30,39.08L-330.97,35.32L-333.06,33.23L-332.64,32.39L-318.03,26.12L-291.29,21.08L-277.50,19.81L-248.27,11.01L-242.00,8.08L-232.81,5.15" />
        <path d="M-220.69,10.99" />
        <path d="M-233.23,8.49L-225.29,5.98" />
        <path d="M-225.28,13.08L-225.28,14.75L-225.28,13.08" />
        <path d="M-225.28,13.08L-225.28,13.08" />
        <path d="M-224.87,10.58L-224.87,10.58" />
        <path d="M-224.87,10.99L-224.87,10.99" />
        <path d="M-224.95,11.24L-224.87,12.25L-224.95,11.24" />
        <path d="M-225.29,10.41L-225.28,13.08L-225.29,10.41" />
        <path d="M-225.29,8.07L-225.29,9.32" />
      </g>
      <g id="f14" transform="translate(-183.65 -490.73)" style="--index:14; opacity:0;" class="frame">
        <path d="M-206.92,-12.00L-206.90,8.47" />
        <path d="M-204.83,-12.00L-184.78,-9.10L-178.92,-6.18" />
        <path d="M-200.64,8.46L-202.30,13.06L-191.43,26.84L-186.82,36.45L-183.05,47.72L-177.19,61.09L-169.66,73.20L-166.73,79.46L-148.33,104.52L-142.47,114.54L-135.36,122.05" />
        <path d="M-176.41,-4.09L-176.41,0.92L-170.97,10.11L-161.34,30.99L-144.61,59.39L-124.94,88.20L-120.76,96.55L-115.73,110.76L-123.67,115.78L-139.54,122.89" />
        <path d="M-222.81,-20.76L-217.79,-14.50L-211.10,-8.24L-217.36,-6.56L-222.79,-3.63" />
        <path d="M-226.98,-21.18L-227.82,-17.00L-227.81,-9.48L-226.97,-4.46" />
        <path d="M-224.05,-5.30L-244.10,-3.61L-278.36,-4.84L-283.79,-3.58L-305.52,-1.47L-316.38,-2.30L-328.50,-4.38L-330.59,-4.37L-331.84,-3.12" />
        <path d="M-334.77,-4.79L-336.03,-16.49L-336.03,-18.58L-334.78,-18.99L-322.24,-19.42L-313.89,-16.92L-309.71,-14.84L-302.60,-14.43L-283.80,-17.37L-247.87,-17.40L-239.10,-19.08L-224.89,-19.51" />
      </g>
      <g id="f15" transform="translate(-183.65 -490.73)" style="--index:15; opacity:0;" class="frame">
        <path d="M-203.16,-13.68L-202.32,-9.08L-202.32,-1.14L-203.56,8.47" />
        <path d="M-199.40,-11.59L-185.61,-6.17L-173.91,-3.26L-172.23,-2.01" />
        <path d="M-139.95,123.31L-139.95,123.31" />
        <path d="M-139.95,123.31L-139.95,123.31" />
        <path d="M-201.47,12.23L-199.79,17.24L-187.66,34.36L-181.38,48.14L-167.57,71.94L-162.55,83.64L-145.40,109.95L-139.54,123.31L-131.60,117.04L-117.82,111.59L-115.32,108.67L-115.32,107.41L-129.12,85.28L-134.14,78.60L-140.84,63.98L-144.19,58.55L-146.70,51.87L-158.83,33.92L-168.04,11.36L-170.97,8.44L-172.65,3.01L-174.74,-0.75" />
        <path d="M-193.96,-5.33L-193.96,-5.33" />
        <path d="M-194.80,-4.91L-193.96,-5.33L-194.80,-4.91" />
        <path d="M-195.22,-4.49L-194.80,-4.91L-195.22,-4.49" />
        <path d="M-196.24,-4.31L-195.22,-4.49L-196.24,-4.31" />
        <path d="M-199.81,-3.65L-196.24,-4.31L-197.30,-2.82" />
        <path d="M-358.23,-78.72L-360.72,-66.18L-357.38,-67.02L-349.03,-67.03L-341.09,-65.37L-322.28,-64.96L-307.24,-61.22L-300.55,-60.39L-284.25,-54.97L-274.23,-53.31L-259.18,-48.31L-248.73,-47.48L-243.72,-45.40L-242.05,-45.40L-237.04,-48.33L-230.35,-49.59L-230.35,-50.84L-232.86,-55.43L-237.05,-60.02L-238.72,-64.62L-245.82,-64.20L-250.84,-65.03L-282.18,-76.28L-306.84,-77.93L-316.87,-82.52L-330.24,-85.85L-342.78,-86.67L-355.31,-85.83L-361.58,-87.07" />
        <path d="M-231.19,-52.93L-236.63,-57.52L-237.88,-57.52L-238.71,-52.50L-238.71,-50.41L-238.29,-50.83" />
      </g>
      <g id="f16" transform="translate(-183.65 -490.73)" style="--index:16; opacity:0;" class="frame">
        <path d="M-199.85,-6.52L-199.82,-11.51L-200.29,-9.70L-202.22,13.87" />
        <path d="M-197.57,-8.78L-191.68,-8.30L-175.40,-0.51" />
        <path d="M-172.26,5.85L-170.92,10.39L-162.36,22.23L-158.32,30.41L-142.57,52.70L-139.88,59.97L-129.99,74.98L-124.16,87.70L-119.21,95.43" />
        <path d="M-199.97,18.41L-194.11,25.24L-184.23,43.88L-181.08,47.52L-176.14,56.61L-154.53,87.55L-148.27,103.90L-143.31,110.73L-142.42,114.36L-139.28,120.72L-136.57,122.10L-128.82,114.43L-119.29,111.30L-115.19,108.60" />
        <path d="M-119.22,98.61L-116.07,103.16L-112.01,106.80" />
        <path d="M-193.98,-1.05" />
        <path d="M-316.17,-96.79L-305.76,-91.09L-301.00,-89.47L-300.03,-89.43L-299.52,-90.38L-294.22,-90.18L-282.26,-87.32L-270.23,-86.39L-261.62,-84.14L-258.73,-84.03L-257.25,-84.94L-254.20,-89.17L-262.23,-93.82L-268.01,-94.03L-274.22,-95.71L-284.38,-95.12L-288.13,-98.16L-290.98,-99.23L-301.64,-98.18L-308.76,-101.34L-312.17,-100.50L-316.03,-100.64L-318.86,-102.20" />
      </g>
      <g id="f17" transform="translate(-183.65 -490.73)" style="--index:17; opacity:0;" class="frame">
        <path d="M-200.41,14.33L-200.41,14.33" />
        <path d="M-200.41,13.87L-200.41,13.87" />
        <path d="M-200.41,13.87L-200.41,13.87" />
        <path d="M-198.03,-8.33L-199.41,-2.90L-199.95,13.88" />
        <path d="M-177.21,-0.06L-177.21,-0.06" />
        <path d="M-177.21,-0.06L-177.21,-0.06" />
        <path d="M-199.97,17.96L-199.09,22.95L-194.13,27.96L-188.27,35.70L-180.65,52.51L-176.15,59.33L-171.19,63.89L-168.95,70.25L-166.70,73.43L-163.58,83.42L-157.73,93.43L-152.78,99.80L-150.12,111.15L-144.29,123.87L-142.93,124.33L-139.74,121.63L-129.30,118.51L-119.75,114.02L-116.57,111.32L-112.03,109.98L-110.66,108.62L-110.65,107.26L-112.90,103.63L-120.11,94.98L-125.95,84.52L-134.51,74.05L-139.45,64.50L-142.14,57.24L-149.33,45.87L-152.47,38.60L-156.97,31.32L-163.28,23.58L-170.90,6.31L-176.32,2.66L-177.21,-0.06L-185.82,-1.01L-189.44,-2.39L-191.25,-4.21L-198.49,-5.61" />
        <path d="M-194.46,3.48" />
        <path d="M-306.35,-127.31L-303.62,-122.86L-300.73,-122.76L-297.21,-126.49L-294.89,-123.99L-292.48,-123.90L-288.55,-125.68L-286.23,-123.18L-284.30,-123.11L-283.77,-124.54L-280.86,-124.91L-276.68,-120.41L-275.72,-120.38L-275.18,-121.81" />
      </g>
      <g id="f18" transform="translate(-183.65 -490.73)" style="--index:18; opacity:0;" class="frame">
        <path d="M-197.12,-7.42L-197.20,7.54L-198.15,17.06" />
        <path d="M-197.72,20.69L-195.93,25.23L-186.48,39.33L-183.34,45.70L-180.66,53.42L-180.22,57.05L-177.53,63.41L-174.39,69.32L-170.78,72.96L-167.63,78.87L-166.73,79.33L-162.69,87.06L-158.21,98.87L-153.27,106.60L-146.54,121.59L-142.47,122.97L-139.73,119.81L-135.18,116.66L-124.28,112.64L-117.46,109.04L-113.38,108.61L-111.11,107.26L-113.80,101.35L-118.75,95.44L-125.04,82.26L-129.54,76.34L-141.22,54.07L-149.77,42.69L-156.03,25.43L-159.18,20.88L-164.15,17.68L-165.95,14.95L-169.07,3.15L-185.83,0.35L-193.06,-3.77" />
        <path d="M-187.66,3.06L-186.75,3.06L-187.66,3.06" />
        <path d="M-187.66,3.06L-187.66,3.06" />
        <path d="M-192.65,5.30L-188.56,3.05" />
        <path d="M-297.69,-152.56L-292.85,-152.87L-290.96,-151.83L-290.44,-152.78" />
      </g>
      <g id="f19" transform="translate(-183.65 -490.73)" style="--index:19; opacity:0;" class="frame">
        <path d="M-197.13,-6.96L-196.78,13.44" />
        <path d="M-195.91,22.51L-192.77,28.42L-190.09,37.05L-182.01,51.60L-170.34,76.59L-163.60,87.05L-160.01,96.14L-157.31,100.23L-148.79,117.95L-147.44,119.32L-126.54,110.81L-115.64,107.69L-112.92,106.35L-110.63,103.64L-109.27,103.64" />
        <path d="M-110.17,101.37L-113.78,98.18L-117.82,89.55L-121.42,84.54L-129.54,76.34L-131.34,73.61L-134.04,69.06L-141.19,49.53L-151.10,35.43L-157.39,24.97L-161.90,20.41L-163.70,16.78L-164.57,9.97" />
        <path d="M-189.89,-2.85L-182.65,-1.45L-176.32,3.11L-173.16,4.49" />
        <path d="M-194.90,1.21L-194.49,10.28L-195.46,21.61" />
        <path d="M-191.25,-3.76L-184.01,-1.46L-171.35,6.77" />
        <path d="M-187.21,5.33" />
      </g>
    </g>
    <g id="t1" transform="translate(-202.52 59.41) scale(0.79 0.79) rotate(-236.51)" class="thread">
      <g id="f0" transform="translate(67.29 132.46)" style="--index:0; opacity:1;" class="frame">
        <path d="M-195.77,-6.05L-195.84,8.00L-194.96,12.09" />
        <path d="M-195.45,21.15L-193.22,27.96L-190.07,32.97L-183.80,47.51L-174.36,64.78L-165.84,83.41L-160.00,93.87L-150.59,115.68L-148.78,116.59" />
        <path d="M-192.60,-5.13L-183.11,1.27L-176.78,4.47L-171.82,9.03" />
        <path d="M-167.31,14.04L-164.16,18.14L-162.37,23.13L-153.39,40.86L-147.99,48.14L-140.79,59.96L-139.88,59.97L-137.18,63.15L-130.43,72.71L-125.95,83.16L-119.64,91.80L-112.45,104.08L-117.89,104.05L-122.43,105.85L-127.89,108.99L-130.17,111.70L-133.35,113.50L-138.80,114.38L-140.62,115.73L-142.89,116.17" />
        <path d="M-196.33,14.35L-195.47,23.87" />
        <path d="M-194.91,3.02L-189.91,1.23" />
      </g>
      <g id="f1" transform="translate(67.29 132.46)" style="--index:1; opacity:0;" class="frame">
        <path d="M-191.23,-6.93L-189.93,4.86L-188.59,8.04" />
        <path d="M-190.39,5.76L-189.98,13.47" />
        <path d="M-189.53,15.74L-186.39,20.74L-185.05,24.83L-177.39,35.30L-175.15,40.30L-158.96,67.58L-156.28,74.85L-149.08,85.31L-142.34,98.49L-140.57,105.30L-137.86,108.94L-136.05,108.95L-125.58,100.39L-115.13,95.00L-109.66,90.04L-108.75,90.05L-107.84,88.69L-109.65,88.23L-115.95,78.22L-129.02,63.20L-134.41,54.10L-141.17,45.00L-144.76,37.73L-154.67,25.44L-157.82,19.53L-159.60,13.63L-165.92,8.15L-170.42,0.88L-172.68,-0.95" />
        <path d="M-192.14,-7.39L-187.61,-6.46L-174.04,0.86" />
        <path d="M-183.56,-0.55L-183.13,3.99L-184.94,4.43" />
      </g>
      <g id="f2" transform="translate(67.29 132.46)" style="--index:2; opacity:0;" class="frame">
        <path d="M-184.36,-20.95L-188.90,-19.62L-201.17,-13.79" />
        <path d="M-196.65,-11.50L-190.76,-10.11L-177.64,-5.05" />
        <path d="M-187.10,-17.34L-178.47,-21.38" />
        <path d="M-176.65,-21.37L-177.17,-8.22" />
        <path d="M-172.12,-20.89L-147.62,-25.76L-96.84,-25.96L-89.58,-26.83L-78.70,-26.77L-73.71,-27.65L-53.31,-26.65L-50.13,-27.99L-44.69,-27.96" />
        <path d="M-177.19,-4.14L-170.84,-5.93L-153.16,-5.84L-141.82,-7.14L-115.98,-6.56L-102.37,-7.85L-90.58,-7.79L-70.65,-5.42L-50.24,-5.77L-46.17,-4.85" />
        <path d="M-37.11,-3.44L-37.11,-3.44" />
        <path d="M-37.11,-3.44L-37.11,-3.44" />
        <path d="M-49.24,-25.72L-41.52,-27.49L-35.63,-27.46L-35.65,-21.57L-37.97,-12.06L-38.00,-5.26L-37.11,-3.44L-48.89,-3.95" />
        <path d="M-181.22,-15.05L-182.15,-10.52" />
      </g>
      <g id="f3" transform="translate(67.29 132.46)" style="--index:3; opacity:0;" class="frame">
        <path d="M-203.84,-24.68L-198.35,-35.08L-195.15,-39.60L-192.87,-41.40L-188.76,-49.09" />
        <path d="M-200.21,-25.57L-192.94,-29.16L-184.77,-29.57L-176.60,-31.80" />
        <path d="M-183.77,-49.51L-179.22,-52.21L-152.37,-72.93L-141.91,-79.23L-133.26,-86.44L-123.71,-92.28L-119.15,-96.79L-84.13,-119.74L-74.11,-128.30L-64.56,-133.70L-55.45,-142.26L-50.91,-144.06L-46.42,-134.97L-42.36,-131.77L-42.36,-130.41L-41.46,-129.50L-41.92,-128.60L-63.30,-114.65L-68.31,-109.69L-73.31,-106.99L-80.59,-101.59L-89.70,-93.02L-101.97,-87.64L-123.35,-72.79L-131.53,-68.29L-139.73,-61.08L-152.93,-51.17L-163.84,-44.43L-170.68,-37.66L-177.05,-33.16" />
        <path d="M-194.27,-34.15L-192.93,-29.61L-193.35,-36.87L-190.20,-32.32L-188.39,-32.31L-189.73,-34.58L-191.09,-35.04" />
      </g>
      <g id="f4" transform="translate(67.29 132.46)" style="--index:4; opacity:0;" class="frame">
        <path d="M-50.50,-169.00L-61.00,-163.50L-74.50,-153.00L-128.50,-105.00L-149.50,-88.50L-163.00,-79.00L-174.00,-69.00L-190.50,-58.00L-191.50,-58.00L-193.00,-56.00L-200.50,-34.00L-205.50,-26.50L-198.50,-29.50L-179.50,-35.00L-177.00,-36.50L-168.50,-46.50L-144.50,-68.50L-121.50,-86.50L-76.50,-126.50L-50.50,-146.50L-46.50,-151.50L-46.00,-155.00L-45.00,-155.50L-44.50,-157.50L-51.50,-162.50" />
        <path d="M-195.50,-35.00" />
      </g>
      <g id="f5" transform="translate(67.29 132.46)" style="--index:5; opacity:0;" class="frame">
        <path d="M-207.00,-21.00L-186.50,-16.00" />
        <path d="M-177.00,-33.00L-183.00,-18.50L-174.50,-18.50L-162.00,-21.00" />
        <path d="M-172.00,-35.50L-163.50,-43.50L-112.50,-80.00L-98.00,-94.50L-82.50,-105.50L-39.50,-143.50L-37.00,-144.50L-34.00,-144.50L-25.50,-139.50L-25.00,-138.00L-28.00,-135.00L-29.00,-132.50L-37.00,-124.00L-75.00,-92.50L-102.00,-72.50L-123.00,-53.00L-137.00,-38.00L-142.00,-35.00L-158.50,-21.00L-160.00,-20.50" />
        <path d="M-174.22,-22.44L-172.00,-22.00L-171.00,-21.00L-174.22,-22.44" />
        <path d="M-177.00,-23.00L-174.22,-22.44L-175.00,-24.50L-172.50,-21.50" />
      </g>
      <g id="f6" transform="translate(67.29 132.46)" style="--index:6; opacity:0;" class="frame">
        <path d="M-185.00,-11.50L-182.50,-6.50L-176.50,-0.50L-170.50,14.50L-163.00,26.50L-162.00,27.00" />
        <path d="M-154.50,15.00" />
        <path d="M-153.00,12.00L-161.50,28.00L-149.00,26.00L-140.00,26.00" />
        <path d="M-153.00,19.50L-150.50,24.00L-149.00,24.50" />
        <path d="M-149.50,10.50L-146.50,6.00L-134.00,0.00L-117.00,-12.00L-100.00,-21.00L-73.50,-38.00L-59.50,-50.00L-43.00,-62.50L-14.00,-82.00L-11.50,-81.50L-1.50,-73.50L-5.00,-69.50L-25.50,-52.00L-33.50,-44.00L-65.50,-22.50L-83.50,-12.00L-126.00,17.00L-134.50,21.50L-143.50,29.00" />
        <path d="M-207.56,-19.22L-185.67,-15.08" />
      </g>
      <g id="f7" transform="translate(67.29 132.46)" style="--index:7; opacity:0;" class="frame">
        <path d="M-207.04,-17.66L-201.30,-16.63L-187.23,-16.65L-186.71,-16.12" />
        <path d="M-186.71,-15.60L-185.66,-9.35L-183.05,-5.18L-173.12,17.74L-170.51,21.38L-162.14,39.09L-145.43,63.04L-135.52,75.54L-133.42,80.75L-129.25,86.47L-128.21,86.47L-122.98,95.85L-115.15,106.26L-112.54,111.47" />
        <path d="M-108.89,107.82L-109.42,107.82L-108.89,107.82" />
        <path d="M-108.89,107.82L-108.89,107.82" />
        <path d="M-104.22,93.74L-107.34,99.48L-108.90,104.17L-108.89,107.82L-103.16,108.85L-89.09,108.83" />
        <path d="M-96.93,90.60L-64.12,71.80L-35.48,54.04L-30.79,51.95L-10.48,38.89L-0.59,31.06L14.52,22.70L39.51,5.99L40.56,5.99L44.21,12.76L49.43,19.01L50.48,21.09L50.48,23.18L49.44,23.18L32.77,33.10L16.11,45.11L-15.14,63.40L-34.93,72.28L-46.91,78.55L-64.09,90.56L-70.34,93.70L-71.38,95.26L-84.40,102.57L-89.09,104.14" />
        <path d="M-105.77,105.73" />
      </g>
      <g id="f8" transform="translate(67.29 132.46)" style="--index:8; opacity:0;" class="frame">
        <path d="M-108.88,116.16L-95.85,116.66" />
        <path d="M-108.36,120.32L-104.69,131.79" />
        <path d="M-94.28,121.35" />
        <path d="M-92.20,119.78L-70.30,131.74L-62.47,136.94L-16.58,160.86L-6.14,167.10L0.12,172.30" />
        <path d="M-101.04,135.43L-95.30,139.59L-83.31,145.31L-65.06,152.58L-44.20,162.98L-29.59,171.30L-8.20,188.99L3.80,196.79L7.45,198.35L9.01,198.35L7.45,197.83" />
        <path d="M18.89,181.66L19.41,182.18L18.89,181.66" />
        <path d="M18.89,181.66L18.89,181.66" />
        <path d="M-4.58,167.62L3.24,171.26L18.89,181.66L19.42,183.74L9.01,195.22" />
        <path d="M-100.53,123.96" />
        <path d="M-207.04,-19.75L-201.83,-16.11L-186.19,-15.08" />
        <path d="M-184.36,-10.77L-175.99,3.85L-172.22,13.04L-168.04,17.63L-155.90,44.36L-145.44,59.81L-139.58,72.34L-134.98,79.02L-132.05,85.70L-122.01,99.90L-115.73,110.34L-114.06,114.93" />
      </g>
      <g id="f9" transform="translate(67.29 132.46)" style="--index:9; opacity:0;" class="frame">
        <path d="M-205.26,-19.94L-200.66,-17.02L-194.39,-15.77L-188.54,-13.27L-183.94,-10.35" />
        <path d="M-181.43,-9.10L-180.59,-4.50L-169.71,13.03L-156.74,44.78L-148.79,57.30L-146.69,62.32L-133.72,84.87L-126.19,101.57L-119.07,112.43L-115.31,116.19" />
        <path d="M-131.18,124.97L-123.66,122.88L-116.14,118.28" />
        <path d="M-132.43,129.15L-130.74,149.21" />
        <path d="M-129.92,131.24L-120.72,136.66L-113.62,142.09" />
        <path d="M-112.78,142.09L-117.79,145.02L-122.80,150.04" />
        <path d="M-128.65,152.13L-124.88,157.56L-116.10,167.58L-99.78,194.72L-92.25,210.59L-83.88,223.95L-76.77,237.32L-73.42,239.40" />
        <path d="M-113.61,143.34L-102.32,162.55L-96.46,170.90L-88.93,185.52L-81.82,195.12L-76.38,204.31L-67.18,215.17L-56.72,229.36L-55.88,232.70L-62.98,234.80L-69.66,238.57L-72.58,241.08" />
        <path d="M-124.90,142.10" />
      </g>
      <g id="f10" transform="translate(67.29 132.46)" style="--index:10; opacity:0;" class="frame">
        <path d="M-204.00,-19.11L-198.99,-16.19L-189.79,-13.27L-187.70,-11.60" />
        <path d="M-184.36,-9.52L-175.57,6.77L-171.39,12.62L-166.78,27.24L-160.50,39.35L-147.53,58.97L-137.91,76.93L-132.05,86.12L-129.12,92.80L-119.50,102.82L-118.66,110.76L-115.31,116.19" />
        <path d="M-115.31,117.44L-128.25,126.64" />
        <path d="M-131.18,128.73L-131.18,128.73" />
        <path d="M-131.18,128.73L-131.18,128.73" />
        <path d="M-124.08,125.39L-129.51,127.48L-131.18,128.32L-130.76,128.73" />
        <path d="M-134.93,131.66L-145.37,140.86L-153.72,146.30" />
        <path d="M-134.51,132.50L-136.18,144.20L-135.75,153.81" />
        <path d="M-137.00,156.32L-168.28,218.18L-184.55,245.35" />
        <path d="M-158.73,149.65L-172.08,171.80L-178.76,179.75L-189.19,194.80L-191.70,200.23L-206.72,224.90L-207.13,227.40L-200.44,233.67L-196.26,241.60L-193.33,244.52" />
        <path d="M-141.19,145.87" />
      </g>
      <g id="f11" transform="translate(67.29 132.46)" style="--index:11; opacity:0;" class="frame">
        <path d="M-200.66,-16.19L-188.96,-12.02" />
        <path d="M-183.94,-8.68L-165.11,25.98L-157.57,41.43L-137.07,75.68L-128.70,92.38L-121.59,103.66L-118.65,116.19" />
        <path d="M-132.43,126.23L-127.00,125.81L-117.81,120.78" />
        <path d="M-133.69,124.56L-142.05,113.29L-147.49,108.69L-150.00,103.26L-160.04,88.65" />
        <path d="M-178.85,83.23L-173.83,86.15L-166.31,87.82" />
        <path d="M-165.47,92.41L-166.29,104.11" />
        <path d="M-182.60,89.09L-203.05,111.67L-235.62,138.85L-263.59,163.95L-272.36,172.73L-277.37,176.91L-279.04,177.33L-274.86,181.50L-265.65,194.03L-263.15,190.27L-256.47,183.16L-245.20,173.54L-235.60,163.92L-219.73,151.37L-181.74,115.41L-175.90,110.81L-171.72,105.79L-170.47,105.37" />
        <path d="M-181.35,87.83L-173.82,99.52L-171.31,101.61" />
        <path d="M-173.82,93.68" />
      </g>
      <g id="f12" transform="translate(67.29 132.46)" style="--index:12; opacity:0;" class="frame">
        <path d="M-202.74,-12.84L-191.88,-11.18L-186.86,-9.10" />
        <path d="M-130.13,124.76L-130.34,125.39L-130.13,124.76" />
        <path d="M-187.70,-9.09L-186.03,-4.92L-178.91,3.43L-164.69,27.65L-154.65,40.60L-141.26,62.73L-123.68,103.66L-119.91,110.34L-117.40,113.26L-116.56,116.61L-126.59,121.63L-130.13,124.76L-137.45,118.71L-150.84,102.43L-159.62,86.98L-168.82,77.79L-174.68,66.52L-181.37,59.42L-184.72,53.57L-186.81,51.49L-191.42,39.38L-193.93,36.45L-195.60,32.69L-198.11,30.19" />
        <path d="M-217.34,24.36L-213.16,26.02L-206.05,26.02" />
        <path d="M-203.13,28.10L-205.21,34.79L-206.04,43.15" />
        <path d="M-221.09,27.28L-225.27,32.30L-231.53,37.32L-264.10,58.24L-284.56,76.22L-294.58,84.17L-298.34,85.85L-305.43,93.37L-318.38,103.83L-319.63,105.92L-310.85,112.18L-304.99,118.02L-302.07,122.20L-302.49,119.69L-301.65,117.18L-296.23,111.75L-268.25,89.58L-257.81,82.47L-239.44,66.99L-229.84,60.72L-216.06,49.01L-210.21,45.24" />
        <path d="M-206.89,28.53" />
      </g>
      <g id="f13" transform="translate(67.29 132.46)" style="--index:13; opacity:0;" class="frame">
        <path d="M-207.74,8.05" />
        <path d="M-207.32,7.22L-205.23,13.90L-201.88,18.08L-201.46,19.75L-193.10,32.69L-187.24,44.80L-177.20,57.33L-163.81,77.37L-153.76,97.00L-140.38,117.04L-139.12,121.64L-134.52,126.65L-133.27,126.65L-124.92,119.12L-117.82,115.77L-116.56,114.52L-116.57,110.76L-130.37,90.30L-134.98,76.93L-142.51,61.48L-155.48,42.69L-165.95,23.06L-169.29,18.47L-172.64,10.95L-178.08,3.43L-183.10,-1.16L-187.28,-9.09L-196.89,-9.09L-199.82,-9.92L-205.67,-9.50L-209.85,-10.75" />
        <path d="M-223.20,2.64L-215.68,3.46L-209.41,6.38" />
        <path d="M-209.83,7.22L-214.00,10.98L-217.34,15.58" />
        <path d="M-221.52,17.67L-242.82,26.47L-256.19,30.24L-269.13,36.52L-276.65,41.54L-283.33,44.47L-288.35,45.31L-297.53,49.08L-307.98,50.76L-313.41,50.76L-320.51,52.44L-323.43,54.95L-325.52,54.95L-329.30,39.08L-330.97,35.32L-333.06,33.23L-332.64,32.39L-318.03,26.12L-291.29,21.08L-277.50,19.81L-248.27,11.01L-242.00,8.08L-232.81,5.15" />
        <path d="M-220.69,10.99" />
        <path d="M-233.23,8.49L-225.29,5.98" />
        <path d="M-225.28,13.08L-225.28,14.75L-225.28,13.08" />
        <path d="M-225.28,13.08L-225.28,13.08" />
        <path d="M-224.87,10.58L-224.87,10.58" />
        <path d="M-224.87,10.99L-224.87,10.99" />
        <path d="M-224.95,11.24L-224.87,12.25L-224.95,11.24" />
        <path d="M-225.29,10.41L-225.28,13.08L-225.29,10.41" />
        <path d="M-225.29,8.07L-225.29,9.32" />
      </g>
      <g id="f14" transform="translate(67.29 132.46)" style="--index:14; opacity:0;" class="frame">
        <path d="M-206.92,-12.00L-206.90,8.47" />
        <path d="M-204.83,-12.00L-184.78,-9.10L-178.92,-6.18" />
        <path d="M-200.64,8.46L-202.30,13.06L-191.43,26.84L-186.82,36.45L-183.05,47.72L-177.19,61.09L-169.66,73.20L-166.73,79.46L-148.33,104.52L-142.47,114.54L-135.36,122.05" />
        <path d="M-176.41,-4.09L-176.41,0.92L-170.97,10.11L-161.34,30.99L-144.61,59.39L-124.94,88.20L-120.76,96.55L-115.73,110.76L-123.67,115.78L-139.54,122.89" />
        <path d="M-222.81,-20.76L-217.79,-14.50L-211.10,-8.24L-217.36,-6.56L-222.79,-3.63" />
        <path d="M-226.98,-21.18L-227.82,-17.00L-227.81,-9.48L-226.97,-4.46" />
        <path d="M-224.05,-5.30L-244.10,-3.61L-278.36,-4.84L-283.79,-3.58L-305.52,-1.47L-316.38,-2.30L-328.50,-4.38L-330.59,-4.37L-331.84,-3.12" />
        <path d="M-334.77,-4.79L-336.03,-16.49L-336.03,-18.58L-334.78,-18.99L-322.24,-19.42L-313.89,-16.92L-309.71,-14.84L-302.60,-14.43L-283.80,-17.37L-247.87,-17.40L-239.10,-19.08L-224.89,-19.51" />
      </g>
      <g id="f15" transform="translate(67.29 132.46)" style="--index:15; opacity:0;" class="frame">
        <path d="M-203.16,-13.68L-202.32,-9.08L-202.32,-1.14L-203.56,8.47" />
        <path d="M-199.40,-11.59L-185.61,-6.17L-173.91,-3.26L-172.23,-2.01" />
        <path d="M-139.95,123.31L-139.95,123.31" />
        <path d="M-139.95,123.31L-139.95,123.31" />
        <path d="M-201.47,12.23L-199.79,17.24L-187.66,34.36L-181.38,48.14L-167.57,71.94L-162.55,83.64L-145.40,109.95L-139.54,123.31L-131.60,117.04L-117.82,111.59L-115.32,108.67L-115.32,107.41L-129.12,85.28L-134.14,78.60L-140.84,63.98L-144.19,58.55L-146.70,51.87L-158.83,33.92L-168.04,11.36L-170.97,8.44L-172.65,3.01L-174.74,-0.75" />
        <path d="M-193.96,-5.33L-193.96,-5.33" />
        <path d="M-194.80,-4.91L-193.96,-5.33L-194.80,-4.91" />
        <path d="M-195.22,-4.49L-194.80,-4.91L-195.22,-4.49" />
        <path d="M-196.24,-4.31L-195.22,-4.49L-196.24,-4.31" />
        <path d="M-199.81,-3.65L-196.24,-4.31L-197.30,-2.82" />
        <path d="M-358.23,-78.72L-360.72,-66.18L-357.38,-67.02L-349.03,-67.03L-341.09,-65.37L-322.28,-64.96L-307.24,-61.22L-300.55,-60.39L-284.25,-54.97L-274.23,-53.31L-259.18,-48.31L-248.73,-47.48L-243.72,-45.40L-242.05,-45.40L-237.04,-48.33L-230.35,-49.59L-230.35,-50.84L-232.86,-55.43L-237.05,-60.02L-238.72,-64.62L-245.82,-64.20L-250.84,-65.03L-282.18,-76.28L-306.84,-77.93L-316.87,-82.52L-330.24,-85.85L-342.78,-86.67L-355.31,-85.83L-361.58,-87.07" />
        <path d="M-231.19,-52.93L-236.63,-57.52L-237.88,-57.52L-238.71,-52.50L-238.71,-50.41L-238.29,-50.83" />
      </g>
      <g id="f16" transform="translate(67.29 132.46)" style="--index:16; opacity:0;" class="frame">
        <path d="M-199.85,-6.52L-199.82,-11.51L-200.29,-9.70L-202.22,13.87" />
        <path d="M-197.57,-8.78L-191.68,-8.30L-175.40,-0.51" />
        <path d="M-172.26,5.85L-170.92,10.39L-162.36,22.23L-158.32,30.41L-142.57,52.70L-139.88,59.97L-129.99,74.98L-124.16,87.70L-119.21,95.43" />
        <path d="M-199.97,18.41L-194.11,25.24L-184.23,43.88L-181.08,47.52L-176.14,56.61L-154.53,87.55L-148.27,103.90L-143.31,110.73L-142.42,114.36L-139.28,120.72L-136.57,122.10L-128.82,114.43L-119.29,111.30L-115.19,108.60" />
        <path d="M-119.22,98.61L-116.07,103.16L-112.01,106.80" />
        <path d="M-193.98,-1.05" />
        <path d="M-316.17,-96.79L-305.76,-91.09L-301.00,-89.47L-300.03,-89.43L-299.52,-90.38L-294.22,-90.18L-282.26,-87.32L-270.23,-86.39L-261.62,-84.14L-258.73,-84.03L-257.25,-84.94L-254.20,-89.17L-262.23,-93.82L-268.01,-94.03L-274.22,-95.71L-284.38,-95.12L-288.13,-98.16L-290.98,-99.23L-301.64,-98.18L-308.76,-101.34L-312.17,-100.50L-316.03,-100.64L-318.86,-102.20" />
      </g>
      <g id="f17" transform="translate(67.29 132.46)" style="--index:17; opacity:0;" class="frame">
        <path d="M-200.41,14.33L-200.41,14.33" />
        <path d="M-200.41,13.87L-200.41,13.87" />
        <path d="M-200.41,13.87L-200.41,13.87" />
        <path d="M-198.03,-8.33L-199.41,-2.90L-199.95,13.88" />
        <path d="M-177.21,-0.06L-177.21,-0.06" />
        <path d="M-177.21,-0.06L-177.21,-0.06" />
        <path d="M-199.97,17.96L-199.09,22.95L-194.13,27.96L-188.27,35.70L-180.65,52.51L-176.15,59.33L-171.19,63.89L-168.95,70.25L-166.70,73.43L-163.58,83.42L-157.73,93.43L-152.78,99.80L-150.12,111.15L-144.29,123.87L-142.93,124.33L-139.74,121.63L-129.30,118.51L-119.75,114.02L-116.57,111.32L-112.03,109.98L-110.66,108.62L-110.65,107.26L-112.90,103.63L-120.11,94.98L-125.95,84.52L-134.51,74.05L-139.45,64.50L-142.14,57.24L-149.33,45.87L-152.47,38.60L-156.97,31.32L-163.28,23.58L-170.90,6.31L-176.32,2.66L-177.21,-0.06L-185.82,-1.01L-189.44,-2.39L-191.25,-4.21L-198.49,-5.61" />
        <path d="M-194.46,3.48" />
        <path d="M-306.35,-127.31L-303.62,-122.86L-300.73,-122.76L-297.21,-126.49L-294.89,-123.99L-292.48,-123.90L-288.55,-125.68L-286.23,-123.18L-284.30,-123.11L-283.77,-124.54L-280.86,-124.91L-276.68,-120.41L-275.72,-120.38L-275.18,-121.81" />
      </g>
      <g id="f18" transform="translate(67.29 132.46)" style="--index:18; opacity:0;" class="frame">
        <path d="M-197.12,-7.42L-197.20,7.54L-198.15,17.06" />
        <path d="M-197.72,20.69L-195.93,25.23L-186.48,39.33L-183.34,45.70L-180.66,53.42L-180.22,57.05L-177.53,63.41L-174.39,69.32L-170.78,72.96L-167.63,78.87L-166.73,79.33L-162.69,87.06L-158.21,98.87L-153.27,106.60L-146.54,121.59L-142.47,122.97L-139.73,119.81L-135.18,116.66L-124.28,112.64L-117.46,109.04L-113.38,108.61L-111.11,107.26L-113.80,101.35L-118.75,95.44L-125.04,82.26L-129.54,76.34L-141.22,54.07L-149.77,42.69L-156.03,25.43L-159.18,20.88L-164.15,17.68L-165.95,14.95L-169.07,3.15L-185.83,0.35L-193.06,-3.77" />
        <path d="M-187.66,3.06L-186.75,3.06L-187.66,3.06" />
        <path d="M-187.66,3.06L-187.66,3.06" />
        <path d="M-192.65,5.30L-188.56,3.05" />
        <path d="M-297.69,-152.56L-292.85,-152.87L-290.96,-151.83L-290.44,-152.78" />
      </g>
      <g id="f19" transform="translate(67.29 132.46)" style="--index:19; opacity:0;" class="frame">
        <path d="M-197.13,-6.96L-196.78,13.44" />
        <path d="M-195.91,22.51L-192.77,28.42L-190.09,37.05L-182.01,51.60L-170.34,76.59L-163.60,87.05L-160.01,96.14L-157.31,100.23L-148.79,117.95L-147.44,119.32L-126.54,110.81L-115.64,107.69L-112.92,106.35L-110.63,103.64L-109.27,103.64" />
        <path d="M-110.17,101.37L-113.78,98.18L-117.82,89.55L-121.42,84.54L-129.54,76.34L-131.34,73.61L-134.04,69.06L-141.19,49.53L-151.10,35.43L-157.39,24.97L-161.90,20.41L-163.70,16.78L-164.57,9.97" />
        <path d="M-189.89,-2.85L-182.65,-1.45L-176.32,3.11L-173.16,4.49" />
        <path d="M-194.90,1.21L-194.49,10.28L-195.46,21.61" />
        <path d="M-191.25,-3.76L-184.01,-1.46L-171.35,6.77" />
        <path d="M-187.21,5.33" />
      </g>
    </g>
    <g id="t2" transform="translate(-145.22 -39.97) scale(0.70 0.70) rotate(-107.15)" class="thread">
      <g id="f0" transform="translate(267.06 -19.06)" style="--index:0; opacity:1;" class="frame">
        <path d="M-195.77,-6.05L-195.84,8.00L-194.96,12.09" />
        <path d="M-195.45,21.15L-193.22,27.96L-190.07,32.97L-183.80,47.51L-174.36,64.78L-165.84,83.41L-160.00,93.87L-150.59,115.68L-148.78,116.59" />
        <path d="M-192.60,-5.13L-183.11,1.27L-176.78,4.47L-171.82,9.03" />
        <path d="M-167.31,14.04L-164.16,18.14L-162.37,23.13L-153.39,40.86L-147.99,48.14L-140.79,59.96L-139.88,59.97L-137.18,63.15L-130.43,72.71L-125.95,83.16L-119.64,91.80L-112.45,104.08L-117.89,104.05L-122.43,105.85L-127.89,108.99L-130.17,111.70L-133.35,113.50L-138.80,114.38L-140.62,115.73L-142.89,116.17" />
        <path d="M-196.33,14.35L-195.47,23.87" />
        <path d="M-194.91,3.02L-189.91,1.23" />
      </g>
      <g id="f1" transform="translate(267.06 -19.06)" style="--index:1; opacity:0;" class="frame">
        <path d="M-191.23,-6.93L-189.93,4.86L-188.59,8.04" />
        <path d="M-190.39,5.76L-189.98,13.47" />
        <path d="M-189.53,15.74L-186.39,20.74L-185.05,24.83L-177.39,35.30L-175.15,40.30L-158.96,67.58L-156.28,74.85L-149.08,85.31L-142.34,98.49L-140.57,105.30L-137.86,108.94L-136.05,108.95L-125.58,100.39L-115.13,95.00L-109.66,90.04L-108.75,90.05L-107.84,88.69L-109.65,88.23L-115.95,78.22L-129.02,63.20L-134.41,54.10L-141.17,45.00L-144.76,37.73L-154.67,25.44L-157.82,19.53L-159.60,13.63L-165.92,8.15L-170.42,0.88L-172.68,-0.95" />
        <path d="M-192.14,-7.39L-187.61,-6.46L-174.04,0.86" />
        <path d="M-183.56,-0.55L-183.13,3.99L-184.94,4.43" />
      </g>
      <g id="f2" transform="translate(267.06 -19.06)" style="--index:2; opacity:0;" class="frame">
        <path d="M-184.36,-20.95L-188.90,-19.62L-201.17,-13.79" />
        <path d="M-196.65,-11.50L-190.76,-10.11L-177.64,-5.05" />
        <path d="M-187.10,-17.34L-178.47,-21.38" />
        <path d="M-176.65,-21.37L-177.17,-8.22" />
        <path d="M-172.12,-20.89L-147.62,-25.76L-96.84,-25.96L-89.58,-26.83L-78.70,-26.77L-73.71,-27.65L-53.31,-26.65L-50.13,-27.99L-44.69,-27.96" />
        <path d="M-177.19,-4.14L-170.84,-5.93L-153.16,-5.84L-141.82,-7.14L-115.98,-6.56L-102.37,-7.85L-90.58,-7.79L-70.65,-5.42L-50.24,-5.77L-46.17,-4.85" />
        <path d="M-37.11,-3.44L-37.11,-3.44" />
        <path d="M-37.11,-3.44L-37.11,-3.44" />
        <path d="M-49.24,-25.72L-41.52,-27.49L-35.63,-27.46L-35.65,-21.57L-37.97,-12.06L-38.00,-5.26L-37.11,-3.44L-48.89,-3.95" />
        <path d="M-181.22,-15.05L-182.15,-10.52" />
      </g>
      <g id="f3" transform="translate(267.06 -19.06)" style="--index:3; opacity:0;" class="frame">
        <path d="M-203.84,-24.68L-198.35,-35.08L-195.15,-39.60L-192.87,-41.40L-188.76,-49.09" />
        <path d="M-200.21,-25.57L-192.94,-29.16L-184.77,-29.57L-176.60,-31.80" />
        <path d="M-183.77,-49.51L-179.22,-52.21L-152.37,-72.93L-141.91,-79.23L-133.26,-86.44L-123.71,-92.28L-119.15,-96.79L-84.13,-119.74L-74.11,-128.30L-64.56,-133.70L-55.45,-142.26L-50.91,-144.06L-46.42,-134.97L-42.36,-131.77L-42.36,-130.41L-41.46,-129.50L-41.92,-128.60L-63.30,-114.65L-68.31,-109.69L-73.31,-106.99L-80.59,-101.59L-89.70,-93.02L-101.97,-87.64L-123.35,-72.79L-131.53,-68.29L-139.73,-61.08L-152.93,-51.17L-163.84,-44.43L-170.68,-37.66L-177.05,-33.16" />
        <path d="M-194.27,-34.15L-192.93,-29.61L-193.35,-36.87L-190.20,-32.32L-188.39,-32.31L-189.73,-34.58L-191.09,-35.04" />
      </g>
      <g id="f4" transform="translate(267.06 -19.06)" style="--index:4; opacity:0;" class="frame">
        <path d="M-50.50,-169.00L-61.00,-163.50L-74.50,-153.00L-128.50,-105.00L-149.50,-88.50L-163.00,-79.00L-174.00,-69.00L-190.50,-58.00L-191.50,-58.00L-193.00,-56.00L-200.50,-34.00L-205.50,-26.50L-198.50,-29.50L-179.50,-35.00L-177.00,-36.50L-168.50,-46.50L-144.50,-68.50L-121.50,-86.50L-76.50,-126.50L-50.50,-146.50L-46.50,-151.50L-46.00,-155.00L-45.00,-155.50L-44.50,-157.50L-51.50,-162.50" />
        <path d="M-195.50,-35.00" />
      </g>
      <g id="f5" transform="translate(267.06 -19.06)" style="--index:5; opacity:0;" class="frame">
        <path d="M-207.00,-21.00L-186.50,-16.00" />
        <path d="M-177.00,-33.00L-183.00,-18.50L-174.50,-18.50L-162.00,-21.00" />
        <path d="M-172.00,-35.50L-163.50,-43.50L-112.50,-80.00L-98.00,-94.50L-82.50,-105.50L-39.50,-143.50L-37.00,-144.50L-34.00,-144.50L-25.50,-139.50L-25.00,-138.00L-28.00,-135.00L-29.00,-132.50L-37.00,-124.00L-75.00,-92.50L-102.00,-72.50L-123.00,-53.00L-137.00,-38.00L-142.00,-35.00L-158.50,-21.00L-160.00,-20.50" />
        <path d="M-174.22,-22.44L-172.00,-22.00L-171.00,-21.00L-174.22,-22.44" />
        <path d="M-177.00,-23.00L-174.22,-22.44L-175.00,-24.50L-172.50,-21.50" />
      </g>
      <g id="f6" transform="translate(267.06 -19.06)" style="--index:6; opacity:0;" class="frame">
        <path d="M-185.00,-11.50L-182.50,-6.50L-176.50,-0.50L-170.50,14.50L-163.00,26.50L-162.00,27.00" />
        <path d="M-154.50,15.00" />
        <path d="M-153.00,12.00L-161.50,28.00L-149.00,26.00L-140.00,26.00" />
        <path d="M-153.00,19.50L-150.50,24.00L-149.00,24.50" />
        <path d="M-149.50,10.50L-146.50,6.00L-134.00,0.00L-117.00,-12.00L-100.00,-21.00L-73.50,-38.00L-59.50,-50.00L-43.00,-62.50L-14.00,-82.00L-11.50,-81.50L-1.50,-73.50L-5.00,-69.50L-25.50,-52.00L-33.50,-44.00L-65.50,-22.50L-83.50,-12.00L-126.00,17.00L-134.50,21.50L-143.50,29.00" />
        <path d="M-207.56,-19.22L-185.67,-15.08" />
      </g>
      <g id="f7" transform="translate(267.06 -19.06)" style="--index:7; opacity:0;" class="frame">
        <path d="M-207.04,-17.66L-201.30,-16.63L-187.23,-16.65L-186.71,-16.12" />
        <path d="M-186.71,-15.60L-185.66,-9.35L-183.05,-5.18L-173.12,17.74L-170.51,21.38L-162.14,39.09L-145.43,63.04L-135.52,75.54L-133.42,80.75L-129.25,86.47L-128.21,86.47L-122.98,95.85L-115.15,106.26L-112.54,111.47" />
        <path d="M-108.89,107.82L-109.42,107.82L-108.89,107.82" />
        <path d="M-108.89,107.82L-108.89,107.82" />
        <path d="M-104.22,93.74L-107.34,99.48L-108.90,104.17L-108.89,107.82L-103.16,108.85L-89.09,108.83" />
        <path d="M-96.93,90.60L-64.12,71.80L-35.48,54.04L-30.79,51.95L-10.48,38.89L-0.59,31.06L14.52,22.70L39.51,5.99L40.56,5.99L44.21,12.76L49.43,19.01L50.48,21.09L50.48,23.18L49.44,23.18L32.77,33.10L16.11,45.11L-15.14,63.40L-34.93,72.28L-46.91,78.55L-64.09,90.56L-70.34,93.70L-71.38,95.26L-84.40,102.57L-89.09,104.14" />
        <path d="M-105.77,105.73" />
      </g>
      <g id="f8" transform="translate(267.06 -19.06)" style="--index:8; opacity:0;" class="frame">
        <path d="M-108.88,116.16L-95.85,116.66" />
        <path d="M-108.36,120.32L-104.69,131.79" />
        <path d="M-94.28,121.35" />
        <path d="M-92.20,119.78L-70.30,131.74L-62.47,136.94L-16.58,160.86L-6.14,167.10L0.12,172.30" />
        <path d="M-101.04,135.43L-95.30,139.59L-83.31,145.31L-65.06,152.58L-44.20,162.98L-29.59,171.30L-8.20,188.99L3.80,196.79L7.45,198.35L9.01,198.35L7.45,197.83" />
        <path d="M18.89,181.66L19.41,182.18L18.89,181.66" />
        <path d="M18.89,181.66L18.89,181.66" />
        <path d="M-4.58,167.62L3.24,171.26L18.89,181.66L19.42,183.74L9.01,195.22" />
        <path d="M-100.53,123.96" />
        <path d="M-207.04,-19.75L-201.83,-16.11L-186.19,-15.08" />
        <path d="M-184.36,-10.77L-175.99,3.85L-172.22,13.04L-168.04,17.63L-155.90,44.36L-145.44,59.81L-139.58,72.34L-134.98,79.02L-132.05,85.70L-122.01,99.90L-115.73,110.34L-114.06,114.93" />
      </g>
      <g id="f9" transform="translate(267.06 -19.06)" style="--index:9; opacity:0;" class="frame">
        <path d="M-205.26,-19.94L-200.66,-17.02L-194.39,-15.77L-188.54,-13.27L-183.94,-10.35" />
        <path d="M-181.43,-9.10L-180.59,-4.50L-169.71,13.03L-156.74,44.78L-148.79,57.30L-146.69,62.32L-133.72,84.87L-126.19,101.57L-119.07,112.43L-115.31,116.19" />
        <path d="M-131.18,124.97L-123.66,122.88L-116.14,118.28" />
        <path d="M-132.43,129.15L-130.74,149.21" />
        <path d="M-129.92,131.24L-120.72,136.66L-113.62,142.09" />
        <path d="M-112.78,142.09L-117.79,145.02L-122.80,150.04" />
        <path d="M-128.65,152.13L-124.88,157.56L-116.10,167.58L-99.78,194.72L-92.25,210.59L-83.88,223.95L-76.77,237.32L-73.42,239.40" />
        <path d="M-113.61,143.34L-102.32,162.55L-96.46,170.90L-88.93,185.52L-81.82,195.12L-76.38,204.31L-67.18,215.17L-56.72,229.36L-55.88,232.70L-62.98,234.80L-69.66,238.57L-72.58,241.08" />
        <path d="M-124.90,142.10" />
      </g>
      <g id="f10" transform="translate(267.06 -19.06)" style="--index:10; opacity:0;" class="frame">
        <path d="M-204.00,-19.11L-198.99,-16.19L-189.79,-13.27L-187.70,-11.60" />
        <path d="M-184.36,-9.52L-175.57,6.77L-171.39,12.62L-166.78,27.24L-160.50,39.35L-147.53,58.97L-137.91,76.93L-132.05,86.12L-129.12,92.80L-119.50,102.82L-118.66,110.76L-115.31,116.19" />
        <path d="M-115.31,117.44L-128.25,126.64" />
        <path d="M-131.18,128.73L-131.18,128.73" />
        <path d="M-131.18,128.73L-131.18,128.73" />
        <path d="M-124.08,125.39L-129.51,127.48L-131.18,128.32L-130.76,128.73" />
        <path d="M-134.93,131.66L-145.37,140.86L-153.72,146.30" />
        <path d="M-134.51,132.50L-136.18,144.20L-135.75,153.81" />
        <path d="M-137.00,156.32L-168.28,218.18L-184.55,245.35" />
        <path d="M-158.73,149.65L-172.08,171.80L-178.76,179.75L-189.19,194.80L-191.70,200.23L-206.72,224.90L-207.13,227.40L-200.44,233.67L-196.26,241.60L-193.33,244.52" />
        <path d="M-141.19,145.87" />
      </g>
      <g id="f11" transform="translate(267.06 -19.06)" style="--index:11; opacity:0;" class="frame">
        <path d="M-200.66,-16.19L-188.96,-12.02" />
        <path d="M-183.94,-8.68L-165.11,25.98L-157.57,41.43L-137.07,75.68L-128.70,92.38L-121.59,103.66L-118.65,116.19" />
        <path d="M-132.43,126.23L-127.00,125.81L-117.81,120.78" />
        <path d="M-133.69,124.56L-142.05,113.29L-147.49,108.69L-150.00,103.26L-160.04,88.65" />
        <path d="M-178.85,83.23L-173.83,86.15L-166.31,87.82" />
        <path d="M-165.47,92.41L-166.29,104.11" />
        <path d="M-182.60,89.09L-203.05,111.67L-235.62,138.85L-263.59,163.95L-272.36,172.73L-277.37,176.91L-279.04,177.33L-274.86,181.50L-265.65,194.03L-263.15,190.27L-256.47,183.16L-245.20,173.54L-235.60,163.92L-219.73,151.37L-181.74,115.41L-175.90,110.81L-171.72,105.79L-170.47,105.37" />
        <path d="M-181.35,87.83L-173.82,99.52L-171.31,101.61" />
        <path d="M-173.82,93.68" />
      </g>
      <g id="f12" transform="translate(267.06 -19.06)" style="--index:12; opacity:0;" class="frame">
        <path d="M-202.74,-12.84L-191.88,-11.18L-186.86,-9.10" />
        <path d="M-130.13,124.76L-130.34,125.39L-130.13,124.76" />
        <path d="M-187.70,-9.09L-186.03,-4.92L-178.91,3.43L-164.69,27.65L-154.65,40.60L-141.26,62.73L-123.68,103.66L-119.91,110.34L-117.40,113.26L-116.56,116.61L-126.59,121.63L-130.13,124.76L-137.45,118.71L-150.84,102.43L-159.62,86.98L-168.82,77.79L-174.68,66.52L-181.37,59.42L-184.72,53.57L-186.81,51.49L-191.42,39.38L-193.93,36.45L-195.60,32.69L-198.11,30.19" />
        <path d="M-217.34,24.36L-213.16,26.02L-206.05,26.02" />
        <path d="M-203.13,28.10L-205.21,34.79L-206.04,43.15" />
        <path d="M-221.09,27.28L-225.27,32.30L-231.53,37.32L-264.10,58.24L-284.56,76.22L-294.58,84.17L-298.34,85.85L-305.43,93.37L-318.38,103.83L-319.63,105.92L-310.85,112.18L-304.99,118.02L-302.07,122.20L-302.49,119.69L-301.65,117.18L-296.23,111.75L-268.25,89.58L-257.81,82.47L-239.44,66.99L-229.84,60.72L-216.06,49.01L-210.21,45.24" />
        <path d="M-206.89,28.53" />
      </g>
      <g id="f13" transform="translate(267.06 -19.06)" style="--index:13; opacity:0;" class="frame">
        <path d="M-207.74,8.05" />
        <path d="M-207.32,7.22L-205.23,13.90L-201.88,18.08L-201.46,19.75L-193.10,32.69L-187.24,44.80L-177.20,57.33L-163.81,77.37L-153.76,97.00L-140.38,117.04L-139.12,121.64L-134.52,126.65L-133.27,126.65L-124.92,119.12L-117.82,115.77L-116.56,114.52L-116.57,110.76L-130.37,90.30L-134.98,76.93L-142.51,61.48L-155.48,42.69L-165.95,23.06L-169.29,18.47L-172.64,10.95L-178.08,3.43L-183.10,-1.16L-187.28,-9.09L-196.89,-9.09L-199.82,-9.92L-205.67,-9.50L-209.85,-10.75" />
        <path d="M-223.20,2.64L-215.68,3.46L-209.41,6.38" />
        <path d="M-209.83,7.22L-214.00,10.98L-217.34,15.58" />
        <path d="M-221.52,17.67L-242.82,26.47L-256.19,30.24L-269.13,36.52L-276.65,41.54L-283.33,44.47L-288.35,45.31L-297.53,49.08L-307.98,50.76L-313.41,50.76L-320.51,52.44L-323.43,54.95L-325.52,54.95L-329.30,39.08L-330.97,35.32L-333.06,33.23L-332.64,32.39L-318.03,26.12L-291.29,21.08L-277.50,19.81L-248.27,11.01L-242.00,8.08L-232.81,5.15" />
        <path d="M-220.69,10.99" />
        <path d="M-233.23,8.49L-225.29,5.98" />
        <path d="M-225.28,13.08L-225.28,14.75L-225.28,13.08" />
        <path d="M-225.28,13.08L-225.28,13.08" />
        <path d="M-224.87,10.58L-224.87,10.58" />
        <path d="M-224.87,10.99L-224.87,10.99" />
        <path d="M-224.95,11.24L-224.87,12.25L-224.95,11.24" />
        <path d="M-225.29,10.41L-225.28,13.08L-225.29,10.41" />
        <path d="M-225.29,8.07L-225.29,9.32" />
      </g>
      <g id="f14" transform="translate(267.06 -19.06)" style="--index:14; opacity:0;" class="frame">
        <path d="M-206.92,-12.00L-206.90,8.47" />
        <path d="M-204.83,-12.00L-184.78,-9.10L-178.92,-6.18" />
        <path d="M-200.64,8.46L-202.30,13.06L-191.43,26.84L-186.82,36.45L-183.05,47.72L-177.19,61.09L-169.66,73.20L-166.73,79.46L-148.33,104.52L-142.47,114.54L-135.36,122.05" />
        <path d="M-176.41,-4.09L-176.41,0.92L-170.97,10.11L-161.34,30.99L-144.61,59.39L-124.94,88.20L-120.76,96.55L-115.73,110.76L-123.67,115.78L-139.54,122.89" />
        <path d="M-222.81,-20.76L-217.79,-14.50L-211.10,-8.24L-217.36,-6.56L-222.79,-3.63" />
        <path d="M-226.98,-21.18L-227.82,-17.00L-227.81,-9.48L-226.97,-4.46" />
        <path d="M-224.05,-5.30L-244.10,-3.61L-278.36,-4.84L-283.79,-3.58L-305.52,-1.47L-316.38,-2.30L-328.50,-4.38L-330.59,-4.37L-331.84,-3.12" />
        <path d="M-334.77,-4.79L-336.03,-16.49L-336.03,-18.58L-334.78,-18.99L-322.24,-19.42L-313.89,-16.92L-309.71,-14.84L-302.60,-14.43L-283.80,-17.37L-247.87,-17.40L-239.10,-19.08L-224.89,-19.51" />
      </g>
      <g id="f15" transform="translate(267.06 -19.06)" style="--index:15; opacity:0;" class="frame">
        <path d="M-203.16,-13.68L-202.32,-9.08L-202.32,-1.14L-203.56,8.47" />
        <path d="M-199.40,-11.59L-185.61,-6.17L-173.91,-3.26L-172.23,-2.01" />
        <path d="M-139.95,123.31L-139.95,123.31" />
        <path d="M-139.95,123.31L-139.95,123.31" />
        <path d="M-201.47,12.23L-199.79,17.24L-187.66,34.36L-181.38,48.14L-167.57,71.94L-162.55,83.64L-145.40,109.95L-139.54,123.31L-131.60,117.04L-117.82,111.59L-115.32,108.67L-115.32,107.41L-129.12,85.28L-134.14,78.60L-140.84,63.98L-144.19,58.55L-146.70,51.87L-158.83,33.92L-168.04,11.36L-170.97,8.44L-172.65,3.01L-174.74,-0.75" />
        <path d="M-193.96,-5.33L-193.96,-5.33" />
        <path d="M-194.80,-4.91L-193.96,-5.33L-194.80,-4.91" />
        <path d="M-195.22,-4.49L-194.80,-4.91L-195.22,-4.49" />
        <path d="M-196.24,-4.31L-195.22,-4.49L-196.24,-4.31" />
        <path d="M-199.81,-3.65L-196.24,-4.31L-197.30,-2.82" />
        <path d="M-358.23,-78.72L-360.72,-66.18L-357.38,-67.02L-349.03,-67.03L-341.09,-65.37L-322.28,-64.96L-307.24,-61.22L-300.55,-60.39L-284.25,-54.97L-274.23,-53.31L-259.18,-48.31L-248.73,-47.48L-243.72,-45.40L-242.05,-45.40L-237.04,-48.33L-230.35,-49.59L-230.35,-50.84L-232.86,-55.43L-237.05,-60.02L-238.72,-64.62L-245.82,-64.20L-250.84,-65.03L-282.18,-76.28L-306.84,-77.93L-316.87,-82.52L-330.24,-85.85L-342.78,-86.67L-355.31,-85.83L-361.58,-87.07" />
        <path d="M-231.19,-52.93L-236.63,-57.52L-237.88,-57.52L-238.71,-52.50L-238.71,-50.41L-238.29,-50.83" />
      </g>
      <g id="f16" transform="translate(267.06 -19.06)" style="--index:16; opacity:0;" class="frame">
        <path d="M-199.85,-6.52L-199.82,-11.51L-200.29,-9.70L-202.22,13.87" />
        <path d="M-197.57,-8.78L-191.68,-8.30L-175.40,-0.51" />
        <path d="M-172.26,5.85L-170.92,10.39L-162.36,22.23L-158.32,30.41L-142.57,52.70L-139.88,59.97L-129.99,74.98L-124.16,87.70L-119.21,95.43" />
        <path d="M-199.97,18.41L-194.11,25.24L-184.23,43.88L-181.08,47.52L-176.14,56.61L-154.53,87.55L-148.27,103.90L-143.31,110.73L-142.42,114.36L-139.28,120.72L-136.57,122.10L-128.82,114.43L-119.29,111.30L-115.19,108.60" />
        <path d="M-119.22,98.61L-116.07,103.16L-112.01,106.80" />
        <path d="M-193.98,-1.05" />
        <path d="M-316.17,-96.79L-305.76,-91.09L-301.00,-89.47L-300.03,-89.43L-299.52,-90.38L-294.22,-90.18L-282.26,-87.32L-270.23,-86.39L-261.62,-84.14L-258.73,-84.03L-257.25,-84.94L-254.20,-89.17L-262.23,-93.82L-268.01,-94.03L-274.22,-95.71L-284.38,-95.12L-288.13,-98.16L-290.98,-99.23L-301.64,-98.18L-308.76,-101.34L-312.17,-100.50L-316.03,-100.64L-318.86,-102.20" />
      </g>
      <g id="f17" transform="translate(267.06 -19.06)" style="--index:17; opacity:0;" class="frame">
        <path d="M-200.41,14.33L-200.41,14.33" />
        <path d="M-200.41,13.87L-200.41,13.87" />
        <path d="M-200.41,13.87L-200.41,13.87" />
        <path d="M-198.03,-8.33L-199.41,-2.90L-199.95,13.88" />
        <path d="M-177.21,-0.06L-177.21,-0.06" />
        <path d="M-177.21,-0.06L-177.21,-0.06" />
        <path d="M-199.97,17.96L-199.09,22.95L-194.13,27.96L-188.27,35.70L-180.65,52.51L-176.15,59.33L-171.19,63.89L-168.95,70.25L-166.70,73.43L-163.58,83.42L-157.73,93.43L-152.78,99.80L-150.12,111.15L-144.29,123.87L-142.93,124.33L-139.74,121.63L-129.30,118.51L-119.75,114.02L-116.57,111.32L-112.03,109.98L-110.66,108.62L-110.65,107.26L-112.90,103.63L-120.11,94.98L-125.95,84.52L-134.51,74.05L-139.45,64.50L-142.14,57.24L-149.33,45.87L-152.47,38.60L-156.97,31.32L-163.28,23.58L-170.90,6.31L-176.32,2.66L-177.21,-0.06L-185.82,-1.01L-189.44,-2.39L-191.25,-4.21L-198.49,-5.61" />
        <path d="M-194.46,3.48" />
        <path d="M-306.35,-127.31L-303.62,-122.86L-300.73,-122.76L-297.21,-126.49L-294.89,-123.99L-292.48,-123.90L-288.55,-125.68L-286.23,-123.18L-284.30,-123.11L-283.77,-124.54L-280.86,-124.91L-276.68,-120.41L-275.72,-120.38L-275.18,-121.81" />
      </g>
      <g id="f18" transform="translate(267.06 -19.06)" style="--index:18; opacity:0;" class="frame">
        <path d="M-197.12,-7.42L-197.20,7.54L-198.15,17.06" />
        <path d="M-197.72,20.69L-195.93,25.23L-186.48,39.33L-183.34,45.70L-180.66,53.42L-180.22,57.05L-177.53,63.41L-174.39,69.32L-170.78,72.96L-167.63,78.87L-166.73,79.33L-162.69,87.06L-158.21,98.87L-153.27,106.60L-146.54,121.59L-142.47,122.97L-139.73,119.81L-135.18,116.66L-124.28,112.64L-117.46,109.04L-113.38,108.61L-111.11,107.26L-113.80,101.35L-118.75,95.44L-125.04,82.26L-129.54,76.34L-141.22,54.07L-149.77,42.69L-156.03,25.43L-159.18,20.88L-164.15,17.68L-165.95,14.95L-169.07,3.15L-185.83,0.35L-193.06,-3.77" />
        <path d="M-187.66,3.06L-186.75,3.06L-187.66,3.06" />
        <path d="M-187.66,3.06L-187.66,3.06" />
        <path d="M-192.65,5.30L-188.56,3.05" />
        <path d="M-297.69,-152.56L-292.85,-152.87L-290.96,-151.83L-290.44,-152.78" />
      </g>
      <g id="f19" transform="translate(267.06 -19.06)" style="--index:19; opacity:0;" class="frame">
        <path d="M-197.13,-6.96L-196.78,13.44" />
        <path d="M-195.91,22.51L-192.77,28.42L-190.09,37.05L-182.01,51.60L-170.34,76.59L-163.60,87.05L-160.01,96.14L-157.31,100.23L-148.79,117.95L-147.44,119.32L-126.54,110.81L-115.64,107.69L-112.92,106.35L-110.63,103.64L-109.27,103.64" />
        <path d="M-110.17,101.37L-113.78,98.18L-117.82,89.55L-121.42,84.54L-129.54,76.34L-131.34,73.61L-134.04,69.06L-141.19,49.53L-151.10,35.43L-157.39,24.97L-161.90,20.41L-163.70,16.78L-164.57,9.97" />
        <path d="M-189.89,-2.85L-182.65,-1.45L-176.32,3.11L-173.16,4.49" />
        <path d="M-194.90,1.21L-194.49,10.28L-195.46,21.61" />
        <path d="M-191.25,-3.76L-184.01,-1.46L-171.35,6.77" />
        <path d="M-187.21,5.33" />
      </g>
    </g>
  </g>
</svg>