<?xml version="1.0" standalone="no"?>
<!DOCTYPE svg PUBLIC "-//W3C//DTD SVG 20010904//EN"
 "http://www.w3.org/TR/2001/REC-SVG-20010904/DTD/svg10.dtd">
<svg version="1.0" xmlns="http://www.w3.org/2000/svg"
 width="700.000000pt" height="700.000000pt" viewBox="0 0 700.000000 700.000000"
 preserveAspectRatio="xMidYMid meet">
<metadata>
Created by potrace 1.11, written by Peter Selinger 2001-2013
</metadata>
<g transform="translate(0.000000,700.000000) scale(0.100000,-0.100000)"
fill="#000000" stroke="none">
<path d="M3457 6854 c-1 -1 -33 -4 -72 -7 -266 -20 -534 -152 -732 -360 -277
-292 -382 -695 -282 -1089 98 -384 386 -692 764 -816 139 -46 202 -56 360 -56
127 0 218 8 260 24 14 5 25 7 25 5 0 -9 177 59 250 95 226 114 420 315 526
544 39 85 72 181 80 236 3 19 7 37 9 40 8 13 17 103 19 192 7 246 -62 478
-205 689 -38 57 -127 160 -164 190 -11 9 -31 27 -45 39 -134 119 -343 218
-535 255 -63 12 -250 26 -258 19z"/>
<path d="M1568 3535 c-2 -2 -34 -5 -71 -9 -114 -10 -270 -57 -382 -114 -343
-177 -579 -509 -631 -887 -29 -209 9 -457 98 -645 36 -74 88 -163 100 -168 4
-2 8 -8 8 -14 0 -20 102 -132 195 -214 324 -284 806 -360 1206 -188 223 95
400 244 533 447 43 66 106 200 125 267 7 25 17 56 21 70 8 22 14 52 27 130 11
65 9 254 -3 335 -71 461 -414 841 -864 955 -41 10 -100 22 -130 25 -58 7 -227
14 -232 10z"/>
<path d="M5268 3528 c-437 -48 -802 -333 -967 -755 -11 -29 -23 -63 -25 -75
-3 -13 -10 -41 -15 -63 -5 -22 -13 -53 -17 -70 -13 -60 -13 -309 0 -380 49
-261 154 -466 330 -640 224 -221 523 -344 826 -339 227 3 389 47 579 156 312
179 533 512 575 868 8 64 8 232 1 275 -22 130 -31 170 -58 245 -61 176 -146
311 -281 445 -252 252 -595 372 -948 333z"/>
</g>
</svg>
