<?xml version="1.0" encoding="iso-8859-1"?>
<!-- Generator: Adobe Illustrator 18.1.1, SVG Export Plug-In . SVG Version: 6.00 Build 0)  -->
<svg version="1.1" id="Capa_1" xmlns="http://www.w3.org/2000/svg" xmlns:xlink="http://www.w3.org/1999/xlink" x="0px" y="0px"
	 viewBox="0 0 28.149 28.149" style="enable-background:new 0 0 28.149 28.149;" xml:space="preserve">
<g>
	<g id="c191_triangles">
		<path d="M10.97,5.475c-0.088-0.041-0.192-0.027-0.269,0.028l-10.61,8.374c-0.121,0.096-0.121,0.298,0,0.395l10.61,8.373
			c0.076,0.059,0.181,0.068,0.269,0.027c0.084-0.041,0.138-0.129,0.138-0.227v-3.863l-5.465-4.31c-0.12-0.097-0.12-0.299,0-0.395
			l5.465-4.311V5.701C11.107,5.604,11.054,5.516,10.97,5.475z"/>
		<path d="M28.058,13.877l-10.61-8.374c-0.076-0.056-0.179-0.069-0.268-0.026c-0.086,0.039-0.138,0.127-0.138,0.224v3.865
			l5.464,4.312c0.119,0.096,0.119,0.297,0,0.395l-5.464,4.31v3.865c0,0.096,0.052,0.184,0.138,0.225
			c0.089,0.041,0.191,0.031,0.268-0.029l10.61-8.371C28.18,14.174,28.18,13.973,28.058,13.877z"/>
	</g>
	<g id="Capa_1_100_">
	</g>
</g>
<g>
</g>
<g>
</g>
<g>
</g>
<g>
</g>
<g>
</g>
<g>
</g>
<g>
</g>
<g>
</g>
<g>
</g>
<g>
</g>
<g>
</g>
<g>
</g>
<g>
</g>
<g>
</g>
<g>
</g>
</svg>
